<svg id="Layer_1" data-name="Layer 1" xmlns="http://www.w3.org/2000/svg" xmlns:xlink="http://www.w3.org/1999/xlink" viewBox="0 0 256.42 225.28">
    <style>
    #shine_animation.animation {
      animation: shine 3s infinite;
    }
    @keyframes shine {
      0%, 100% {
        opacity: 1;
      }

      0% {
        transform: skewX(-20deg) translate(-50%);
      }
      100% {
        transform: skewX(-20deg) translate(150%);
      }
    }
    </style>
  <defs>
    <linearGradient id="linear-gradient" x1="864.21" y1="-19.32" x2="-716.92" y2="-1600.46" gradientTransform="matrix(1, 0, 0, -1, 0, -564.62)" gradientUnits="userSpaceOnUse">
      <stop offset="0" stop-color="#5b2e02"/>
      <stop offset="0.3" stop-color="#703d09"/>
      <stop offset="0.6" stop-color="#af810e"/>
      <stop offset="1" stop-color="#936222"/>
    </linearGradient>
    <linearGradient id="linear-gradient-2" x1="359.26" y1="-797.65" x2="359.26" y2="-1137.13" gradientTransform="matrix(1, 0, 0, -1, -234.55, -674.07)" gradientUnits="userSpaceOnUse">
      <stop offset="0" stop-color="#937031"/>
      <stop offset="0.07" stop-color="#a58638"/>
      <stop offset="0.17" stop-color="#cc9825"/>
      <stop offset="0.26" stop-color="#6b4b17"/>
      <stop offset="0.42" stop-color="#c9a44a"/>
      <stop offset="0.86" stop-color="#feeba7"/>
      <stop offset="1" stop-color="#dcaf67"/>
    </linearGradient>
    <linearGradient id="linear-gradient-3" x1="369.37" y1="-688.42" x2="369.37" y2="-919.93" gradientTransform="matrix(1, 0, 0, -1, -234.55, -674.07)" gradientUnits="userSpaceOnUse">
      <stop offset="0" stop-color="#efc56c"/>
      <stop offset="0.07" stop-color="#edb21d"/>
      <stop offset="0.17" stop-color="#ba9035"/>
      <stop offset="0.26" stop-color="#70490b"/>
      <stop offset="0.42" stop-color="#916d1d"/>
      <stop offset="0.86" stop-color="#e0bc4b"/>
      <stop offset="1" stop-color="#dcaf67"/>
    </linearGradient>
    <linearGradient id="linear-gradient-5" x1="25.67" y1="125.68" x2="25.67" y2="446.17" gradientTransform="matrix(1, 0, 0, 1, 0, 0)" xlink:href="#linear-gradient-2"/>
    <linearGradient id="linear-gradient-6" x1="58.99" y1="125.71" x2="58.99" y2="445.91" gradientTransform="matrix(1, 0, 0, 1, 0, 0)" xlink:href="#linear-gradient-2"/>
    <linearGradient id="linear-gradient-7" x1="83.49" y1="125.71" x2="83.49" y2="445.91" gradientTransform="matrix(1, 0, 0, 1, 0, 0)" xlink:href="#linear-gradient-2"/>
    <linearGradient id="linear-gradient-8" x1="120.42" y1="125.71" x2="120.42" y2="445.91" gradientTransform="matrix(1, 0, 0, 1, 0, 0)" xlink:href="#linear-gradient-2"/>
    <linearGradient id="linear-gradient-9" x1="149.64" y1="125.71" x2="149.64" y2="445.91" gradientTransform="matrix(1, 0, 0, 1, 0, 0)" xlink:href="#linear-gradient-2"/>
    <linearGradient id="linear-gradient-10" x1="181.9" y1="123.58" x2="181.9" y2="463.06" gradientTransform="matrix(1, 0, 0, 1, 0, 0)" xlink:href="#linear-gradient-2"/>
    <linearGradient id="linear-gradient-11" x1="461.69" y1="-799.76" x2="461.69" y2="-1119.96" gradientTransform="matrix(1, 0, 0, -1, -234.55, -674.05)" xlink:href="#linear-gradient-2"/>
    <mask id="shine_mask">
        <use xlink:href="#main_logo"/>
    </mask>
  </defs>
  <g id="main_logo">
    <g id="celebrating_text">
      <path d="M61.71,1.53A6,6,0,0,1,65.62.1c2,0,3.25.64,3.88,1.92a3.54,3.54,0,0,1,.34,2.17H67.42a2.53,2.53,0,0,0-.34-1.26,2,2,0,0,0-1.79-.76A3.11,3.11,0,0,0,63,3.26a6.25,6.25,0,0,0-1.4,3,4,4,0,0,0,.18,2.92,2,2,0,0,0,1.85,1,2.9,2.9,0,0,0,2.12-.84A4.85,4.85,0,0,0,66.65,8H69a6.87,6.87,0,0,1-2.26,3.08,5.65,5.65,0,0,1-3.56,1.18,4,4,0,0,1-3.6-1.61,5.57,5.57,0,0,1-.49-4.39A8,8,0,0,1,61.71,1.53Z" fill="#af810e"/>
      <path d="M82.57,2.38H76.42L75.9,4.84h5.63l-.43,2H75.46l-.63,3h6.43l-.44,2.09H72L74.49.32H83Z" fill="#af810e"/>
      <path d="M87.12.32h2.42l-2,9.52h5.74l-.44,2.09H84.67Z" fill="#af810e"/>
      <path d="M107,2.38h-6.1l-.48,2.46h5.64l-.44,2H100l-.63,3h6.42l-.44,2.09h-8.8L99,.32h8.51Z" fill="#af810e"/>
      <path d="M120,1.56a2.64,2.64,0,0,1,.17,1.77A3.22,3.22,0,0,1,119.26,5a3.35,3.35,0,0,1-1,.66,1.94,1.94,0,0,1,1.12,1,2.75,2.75,0,0,1,.09,1.7,4.3,4.3,0,0,1-3.34,3.35,8.72,8.72,0,0,1-1.69.16h-5.25L111.67.26h5.64C118.68.34,119.6.75,120,1.56Zm-7.46,5.26-.65,3.09h2.9a3.16,3.16,0,0,0,1.22-.2,1.87,1.87,0,0,0,1.11-1.45A1,1,0,0,0,116.63,7a2.72,2.72,0,0,0-1.13-.19Zm1-4.48L113,4.9h2.84a2.78,2.78,0,0,0,1.3-.29,1.42,1.42,0,0,0,.7-1c.11-.54,0-.9-.4-1.07a4.46,4.46,0,0,0-1.36-.18Z" fill="#af810e"/>
      <path d="M133.67,1.43a2.55,2.55,0,0,1,.39,1,3.13,3.13,0,0,1,0,1.22,4.21,4.21,0,0,1-.77,1.61,3.1,3.1,0,0,1-1.62,1.13,1.61,1.61,0,0,1,.94.92,3.51,3.51,0,0,1,0,1.82l-.16.78a7.69,7.69,0,0,0-.17,1.07.76.76,0,0,0,.3.67v.29h-2.72v-.62a6.65,6.65,0,0,1,.11-1l.22-1.06c.14-.74.12-1.24-.09-1.48a1.81,1.81,0,0,0-1.38-.37h-2.51l-1,4.55h-2.35L125.33.34H131a5.06,5.06,0,0,1,1.81.3A2.42,2.42,0,0,1,133.67,1.43Zm-6.51.91-.66,3.12h2.75a3.45,3.45,0,0,0,1.27-.2,1.67,1.67,0,0,0,1-1.31c.15-.7,0-1.18-.4-1.42a2.36,2.36,0,0,0-1.14-.2Z" fill="#af810e"/>
      <path d="M142.07.32h2.74l1.61,11.61h-2.65l-.24-2.39h-4.26L138,11.93h-2.53Zm-1.65,7.22h2.94L142.88,3Z" fill="#af810e"/>
      <path d="M159.57.32l-.44,2.06h-3.47l-2,9.55h-2.44l2-9.55h-3.49l.44-2.06Z" fill="#af810e"/>
      <path d="M162.68,11.93h-2.41L162.74.32h2.41Z" fill="#af810e"/>
      <path d="M169.3.32h2.51l2.9,8.1,1.73-8.1h2.26l-2.47,11.61h-2.42l-3-8.25-1.74,8.25h-2.26Z" fill="#af810e"/>
      <path d="M190,3.94a1.75,1.75,0,0,0-1-1.68A3,3,0,0,0,187.72,2a3.61,3.61,0,0,0-2.52,1.06,6,6,0,0,0-1.64,3.2c-.3,1.42-.18,2.43.34,3a2.58,2.58,0,0,0,2,.89,3.47,3.47,0,0,0,2.15-.71,4,4,0,0,0,1.37-1.83h-2.59l.41-1.94h4.84l-1.33,6.23h-1.6l.06-1.45a7.4,7.4,0,0,1-1.51,1.16,5,5,0,0,1-2.49.59,4,4,0,0,1-3.44-1.59,5.33,5.33,0,0,1-.6-4.4,8.08,8.08,0,0,1,2.51-4.52A6.53,6.53,0,0,1,188.15,0a4.45,4.45,0,0,1,3.27,1.13,3.34,3.34,0,0,1,1,2.79Z" fill="#af810e"/>
    </g>
    <g>
      <polygon id="horizontal_line" points="245.07 193.55 4.79 193.55 4.44 194.84 244.71 194.83 245.07 193.55" fill="url(#linear-gradient)"/>
      <g id="applications_text">
        <path d="M33.81,203.55H29.08l-12.36,21h4.85l2.64-4.67h7.84l.67,4.67h4.59Zm-7.75,12.86,4.52-8.33h.06l1,8.33Z" fill="#af810e"/>
        <path d="M58.47,206.74A4.8,4.8,0,0,0,57,204.86a6.4,6.4,0,0,0-2.3-1,13.76,13.76,0,0,0-2.93-.31l-8.37-.05L39,224.5h4.56L45.15,217h5.69a9.44,9.44,0,0,0,3.12-.5,7.9,7.9,0,0,0,2.6-1.44,6.7,6.7,0,0,0,1.79-2.3A7.85,7.85,0,0,0,58.47,206.74Zm-5.09,5.78a4,4,0,0,1-2.77.9H45.93l1.29-6.28h3.94a5.92,5.92,0,0,1,1.19.11,3.33,3.33,0,0,1,1,.4,2.27,2.27,0,0,1,.75.79,2.84,2.84,0,0,1,.28,1.31A3.47,3.47,0,0,1,53.38,212.52Z" fill="#af810e"/>
        <path d="M78.05,206.74a4.63,4.63,0,0,0-1.51-1.88,6.52,6.52,0,0,0-2.31-1,13.67,13.67,0,0,0-2.92-.31l-8.4-.05-4.34,21h4.58L64.73,217h5.7a9.38,9.38,0,0,0,3.11-.5,7.9,7.9,0,0,0,2.6-1.44,6.7,6.7,0,0,0,1.79-2.3A7.85,7.85,0,0,0,78.05,206.74ZM73,212.52a4,4,0,0,1-2.77.9H65.52l1.29-6.28h4a5.82,5.82,0,0,1,1.18.11,3.33,3.33,0,0,1,1,.4,2.27,2.27,0,0,1,.75.79,2.83,2.83,0,0,1,.27,1.31A3.47,3.47,0,0,1,73,212.52Z" fill="#af810e"/>
        <polygon points="87.2 203.57 83.62 220.66 93.75 220.66 92.93 224.54 78.14 224.54 82.51 203.54 87.2 203.57" fill="#af810e"/>
        <polygon points="104.09 203.57 99.65 224.57 95 224.57 99.41 203.57 104.09 203.57" fill="#af810e"/>
        <path d="M119.09,207.91a3.8,3.8,0,0,0-2.72-1,5.72,5.72,0,0,0-3.07.81,6.85,6.85,0,0,0-2.14,2.08,9.67,9.67,0,0,0-1.25,2.85,12.21,12.21,0,0,0-.41,3.07,7.16,7.16,0,0,0,.28,2.06,5,5,0,0,0,.85,1.71,4,4,0,0,0,1.47,1.19,4.89,4.89,0,0,0,2.16.44,4.84,4.84,0,0,0,1.77-.33,5,5,0,0,0,2.57-2.25,4.77,4.77,0,0,0,.59-1.59h4.62a16.4,16.4,0,0,1-1.66,3.73,9.81,9.81,0,0,1-2.15,2.48,7.55,7.55,0,0,1-2.65,1.38,10.79,10.79,0,0,1-3.15.43c-3,0-5.27-.79-6.89-2.38s-2.42-3.87-2.42-6.87a14.81,14.81,0,0,1,.79-4.85,12.63,12.63,0,0,1,2.28-4,10.72,10.72,0,0,1,8.34-3.78,11,11,0,0,1,3.38.5,7.73,7.73,0,0,1,2.69,1.49,6.47,6.47,0,0,1,1.74,2.43,8.27,8.27,0,0,1,.59,3.37h-4.6a3.88,3.88,0,0,0-1-3Z" fill="#af810e"/>
        <path d="M140.42,203.55h-4.74l-12.36,21h4.85l2.64-4.67h7.82l.68,4.67h4.61Zm-7.75,12.86,4.52-8.33h.06l1,8.33Z" fill="#af810e"/>
        <polygon points="144.56 207.43 145.39 203.55 162.89 203.55 162.07 207.43 155.78 207.43 152.2 224.52 147.56 224.52 151.14 207.43 144.56 207.43" fill="#af810e"/>
        <polygon points="169.81 203.57 165.37 224.57 160.81 224.57 165.22 203.57 169.81 203.57" fill="#af810e"/>
        <path d="M190.73,208.19a7.42,7.42,0,0,0-4.8-4.53,12,12,0,0,0-3.85-.58,10.7,10.7,0,0,0-8.38,3.81,12.63,12.63,0,0,0-2.28,4h0a14.48,14.48,0,0,0-.83,4.84c0,3,.8,5.28,2.42,6.87s3.89,2.38,6.89,2.38a11.14,11.14,0,0,0,4.89-1,10.42,10.42,0,0,0,3.58-2.84,12.75,12.75,0,0,0,2.22-4.14,15.86,15.86,0,0,0,.76-4.93A10.49,10.49,0,0,0,190.73,208.19Zm-4.33,7.24a9.78,9.78,0,0,1-1.28,2.83,6.9,6.9,0,0,1-2.12,2.08,5.45,5.45,0,0,1-3,.8,4.89,4.89,0,0,1-2.16-.44,4,4,0,0,1-1.47-1.19,5,5,0,0,1-.85-1.71h0a7.16,7.16,0,0,1-.28-2.06,12.21,12.21,0,0,1,.41-3.07,9.67,9.67,0,0,1,1.25-2.85,6.85,6.85,0,0,1,2.14-2.08,5.72,5.72,0,0,1,3.07-.81,5,5,0,0,1,2.18.44,4.17,4.17,0,0,1,1.43,1.17,4.61,4.61,0,0,1,.81,1.72,8.27,8.27,0,0,1,.25,2.1A11.76,11.76,0,0,1,186.4,215.43Z" fill="#af810e"/>
        <polygon points="201.42 203.57 207.12 218.49 207.18 218.49 210.18 203.57 214.42 203.57 209.98 224.57 205.42 224.57 199.66 209.86 199.66 209.86 196.66 224.57 192.37 224.57 196.78 203.57 201.42 203.57" fill="#af810e"/>
        <path d="M218.9,219.43a2.78,2.78,0,0,0,.94,1.18,4,4,0,0,0,1.47.64,8.87,8.87,0,0,0,1.85.19,5.56,5.56,0,0,0,1.41-.18,4.44,4.44,0,0,0,1.27-.53,2.92,2.92,0,0,0,.94-.91,2.3,2.3,0,0,0,.37-1.35,1.8,1.8,0,0,0-.47-1.25,4.06,4.06,0,0,0-1.22-.83,11.53,11.53,0,0,0-1.7-.62c-.64-.18-1.28-.36-1.93-.56a16.46,16.46,0,0,1-1.93-.7,7.07,7.07,0,0,1-1.69-1.06,4.84,4.84,0,0,1-1.21-1.59,5.3,5.3,0,0,1-.45-2.29,5.71,5.71,0,0,1,.73-3,6.19,6.19,0,0,1,1.91-2,8.52,8.52,0,0,1,2.66-1.15,12.64,12.64,0,0,1,3-.37,12.14,12.14,0,0,1,3,.37,6.83,6.83,0,0,1,2.49,1.19,5.9,5.9,0,0,1,1.71,2.1,6.9,6.9,0,0,1,.63,3.1H228.3a3.17,3.17,0,0,0-.25-1.49,2.42,2.42,0,0,0-.79-1,3.43,3.43,0,0,0-1.22-.54,6.89,6.89,0,0,0-1.5-.16,6.3,6.3,0,0,0-1.3.13,3.88,3.88,0,0,0-1.19.44,2.28,2.28,0,0,0-.85.81,2.15,2.15,0,0,0-.33,1.23,1.66,1.66,0,0,0,.58,1.28,5,5,0,0,0,1.38.85,10.69,10.69,0,0,0,1.66.53l1.38.31a18.08,18.08,0,0,1,2.26.74,6.15,6.15,0,0,1,1.77,1.11,4.42,4.42,0,0,1,1.16,1.64,6.07,6.07,0,0,1,.42,2.38,6.27,6.27,0,0,1-.78,3.2,6.5,6.5,0,0,1-2,2.14A8.21,8.21,0,0,1,226,224.6a12.64,12.64,0,0,1-3,.37q-4.41,0-6.56-1.79t-2.16-5.64h4.37a4.08,4.08,0,0,0,.34,1.89Z" fill="#af810e"/>
      </g>
      <g>
        <g id="million_text">
          <path d="M38.26,137.26H51.34L42.1,180.78H33.63l6.23-29.43c.19-.85.46-2,.81-3.56s.59-2.7.75-3.53l-16,36.56H16.59l-.44-36.56c-.16.83-.39,2-.7,3.53s-.55,2.71-.75,3.56L8.47,180.78H0l9.24-43.52H22.47l.62,34.22Z" fill="url(#linear-gradient-5)"/>
          <polygon points="58.87 180.8 49.87 180.8 59.11 137.28 68.11 137.28 58.87 180.8" fill="url(#linear-gradient-6)"/>
          <polygon points="76.58 137.28 85.68 137.28 78.09 172.98 99.64 172.98 98 180.8 67.34 180.8 76.58 137.28" fill="url(#linear-gradient-7)"/>
          <polygon points="113.52 137.28 122.61 137.28 115 172.98 136.55 172.98 134.9 180.8 104.28 180.8 113.52 137.28" fill="url(#linear-gradient-8)"/>
          <polygon points="149.52 180.8 140.52 180.8 149.76 137.28 158.76 137.28 149.52 180.8" fill="url(#linear-gradient-9)"/>
          <path d="M200,140.92q-3.89-5.07-13.2-5.07t-15.32,5.07q-7.89,6-10.42,18-2.5,11.76,2.77,18Q167.67,182,177,182t15.32-5.07h0q7.91-6.22,10.43-18Q205.29,146.92,200,140.92Zm-6.35,18,0,0q-1.6,7.36-5.61,11.31a13,13,0,0,1-9.44,4c-3.6,0-6.18-1.34-7.76-4s-1.8-6.43-.8-11.34,2.92-8.66,5.63-11.33a13.08,13.08,0,0,1,9.46-4q5.42,0,7.72,4T193.63,158.92Z" fill="url(#linear-gradient-10)"/>
          <polygon points="214.12 137.28 223.66 137.28 234.52 167.66 241 137.28 249.43 137.28 240.19 180.8 231.1 180.8 219.88 149.89 213.32 180.8 204.85 180.8 214.12 137.28" fill="url(#linear-gradient-11)"/>
        </g>
        <path id="text_200" d="M80.05,37.59q8.19,8.22,6.73,21.46a34,34,0,0,1-4.36,13.47,52.57,52.57,0,0,1-11,12.74,132,132,0,0,1-13,9.56Q49.21,101,45.19,105.26H81l-2,18.5H13.22a53.09,53.09,0,0,1,7.2-19.45A62,62,0,0,1,35.66,88.4q3.12-2.34,9.39-6.43t9.13-6.3a34.3,34.3,0,0,0,7.45-7.76,18,18,0,0,0,3.07-8.08c.45-4-.17-7.14-1.83-9.35s-4.24-3.31-7.73-3.31a11.35,11.35,0,0,0-9.32,4.31q-3.47,4.32-4.41,12.89l-20.66-.06q1.89-16,11.8-25.45t24.67-9.48Q71.88,29.38,80.05,37.59ZM222.62,62.26l-7.81-2.35c.18,2.81.21,6,.1,9.13Q218.69,65.83,222.62,62.26Zm14.28-6.11V56l-1.33,1.92,1.77,2.37C237.21,58.81,237.08,57.45,236.9,56.15Zm.61,10.57a101.47,101.47,0,0,1-.7,11.16q-2.67,24.28-12.53,36.36t-27,12.07q-17.07,0-24.23-12.07a28.53,28.53,0,0,1-2.16-4.49c-19.08,11.57-37.54,18.34-48.8,16.56q-17.09,0-24.23-12T93.36,77.9Q96,53.66,105.85,41.58t26.89-12.07q17.12,0,24.32,12.07t4.54,36.3a93.74,93.74,0,0,1-5.39,23.72,85,85,0,0,1-24.79,3.66,17.69,17.69,0,0,0,2.15-3.46q3.48-7.23,5.31-23.92t-.06-23.79q-1.87-7.22-8-7.21c-4.08,0-7.18,2.29-9.45,6.88s-4,12.18-5.15,22.79l-.15,1.3q-1.57,14.41-.44,21.74c.68,7.33,7.25,18.53,42.58,6.07,27.46-9.68,50.37-28.28,64.68-42.08l.28,12.15,7.64-11Zm-23.11,8c-4.92,5.09-10.27,10.24-15.89,15-2.62,2.24-5.3,4.42-8,6.52a30.24,30.24,0,0,0,.8,5.6q1.86,7.17,7.9,7.17t9.57-7.24q3.48-7.23,5.31-23.92c.11-1.12.22-2.17.31-3.2ZM190.47,85c.14-1.9.59-4.94.83-7.06l.14-1.3q1.76-15.91,5.15-22.79T206,46.93a8.41,8.41,0,0,1,2.77.44c2.51.91,4.23,3.17,5.18,6.76a20.53,20.53,0,0,1,.5,2.8l8.18-2.87-.31-13.43,8.15,10.68,5-1.76a32.61,32.61,0,0,0-3.27-8,23.89,23.89,0,0,0-4.82-5.78h0l-.24-.19c-.28-.24-.57-.45-.86-.68s-.76-.57-1.15-.84-.65-.41-1-.61-.81-.48-1.23-.7l-1-.49q-.66-.3-1.35-.57c-.37-.15-.73-.29-1.11-.42s-1-.32-1.51-.46-.74-.22-1.13-.31c-.56-.13-1.14-.24-1.72-.35-.29,0-.58-.1-.87-.17h0a40.05,40.05,0,0,0-6.28-.47q-17.06,0-26.88,12.07t-12.5,36.3a97.31,97.31,0,0,0-.41,19.38c7.16-3.11,14.53-6.36,22.35-12.26Zm60.88-41,4.77-6.89-7.91,2.77-5.07-6.65.19,8.37-7.9,2.77,8,2.4.2,8.37,4.79-6.84,8,2.41ZM238,64.58l-8-2.4-4.79,6.91L225,60.72l-8-2.4,7.9-2.77-.19-8.37,5.07,6.66,7.9-2.78L232.92,58Z" fill="url(#linear-gradient-3)"/>
      </g>
    </g>
  </g>
  <g mask="url(#shine_mask)">
    <rect x="0" y="0" width="100%" height="100%" opacity="0" />
    <rect id="shine_animation" x="0" y="0" width="50%" height="100%" fill="#ffdb00" opacity="0" />
  </g>
</svg>
