<?xml version="1.0" standalone="no"?>
<!DOCTYPE svg PUBLIC "-//W3C//DTD SVG 1.1//EN" "http://www.w3.org/Graphics/SVG/1.1/DTD/svg11.dtd" >
<svg>
<metadata>
Created by FontForge 20090622 at Fri Jun 22 08:00:43 2018
 By deploy user
Copyright 2018 The Inter UI project authors
</metadata>
<defs>
<font id="InterUI-Bold" horiz-adv-x="0" >
  <font-face 
    font-family="Inter UI"
    font-weight="700"
    font-stretch="normal"
    units-per-em="2816"
    panose-1="2 11 8 2 3 0 0 0 0 4"
    ascent="2252"
    descent="-564"
    x-height="1536"
    cap-height="2048"
    bbox="-2049 -1087 3896 2927"
    underline-thickness="170"
    underline-position="-337"
    unicode-range="U+0002-U+1F16B"
  />
<missing-glyph horiz-adv-x="2833" 
d="M264 2176v512h2304v-512h-2304zM264 1472v512h2304v-512h-2304zM264 768v512h2304v-512h-2304zM264 64v512h2304v-512h-2304zM264 -640v512h2304v-512h-2304z" />
    <glyph glyph-name=".notdef" horiz-adv-x="2833" 
d="M264 2176v512h2304v-512h-2304zM264 1472v512h2304v-512h-2304zM264 768v512h2304v-512h-2304zM264 64v512h2304v-512h-2304zM264 -640v512h2304v-512h-2304z" />
    <glyph glyph-name=".null" 
 />
    <glyph glyph-name="space" unicode=" " horiz-adv-x="776" 
 />
    <glyph glyph-name="A" unicode="A" horiz-adv-x="2084" 
d="M501 0h-424l755 2048h419l755 -2048h-423l-149 436h-784zM1030 1550l-270 -790h564l-270 790h-24z" />
    <glyph glyph-name="Adieresis" unicode="&#xc4;" horiz-adv-x="2084" 
d="M758 2238q-80 0 -132.5 51.5t-52.5 122.5q0 75 52.5 125.5t132.5 50.5q79 0 130.5 -50.5t51.5 -125.5q0 -71 -51.5 -122.5t-130.5 -51.5zM1328 2238q-79 0 -131.5 51.5t-52.5 122.5q0 75 52.5 125.5t131.5 50.5q80 0 131 -50.5t51 -125.5q0 -71 -51 -122.5t-131 -51.5z
M501 0h-424l755 2048h419l755 -2048h-423l-149 436h-784zM1030 1550l-270 -790h564l-270 790h-24z" />
    <glyph glyph-name="Atilde" unicode="&#xc3;" horiz-adv-x="2084" 
d="M1332 2648l226 -16q0 -152 -88.5 -258t-223.5 -106q-88 0 -144.5 30t-107.5 60t-123 30q-49 0 -82.5 -35t-33.5 -98l-230 10q0 99 40.5 182.5t111 134t160.5 50.5q73 0 132.5 -29.5l117 -58.5t125.5 -29q49 0 84.5 35t35.5 98zM501 0h-424l755 2048h419l755 -2048h-423
l-149 436h-784zM1030 1550l-270 -790h564l-270 790h-24z" />
    <glyph glyph-name="uni023A" unicode="&#x23a;" horiz-adv-x="2084" 
d="M1876 2176l-417 -693l547 -1483h-423l-149 436h-605l-404 -672h-272l142 236h-218l755 2048h419l105 -284l247 412h273zM1030 1550l-258 -757l345 574l-63 183h-24zM1024 760h300l-109 318z" />
    <glyph glyph-name="Lambda" unicode="&#x39b;" horiz-adv-x="2084" 
d="M501 0h-424l755 2048h419l755 -2048h-423l-529 1550h-24z" />
    <glyph glyph-name="AE" unicode="&#xc6;" horiz-adv-x="2777" 
d="M2640 318v-318h-1223l-18 438h-661l-219 -438h-445l1089 2048h1393v-318h-830l21 -543h697v-315h-684l22 -554h858zM899 760h487l-37 900z" />
    <glyph glyph-name="B" unicode="B" horiz-adv-x="1799" 
d="M985 0h-808v2048h752q237 0 392.5 -72.5t232 -198t76.5 -284.5q0 -180 -93.5 -285t-257.5 -143v-17q169 -20 286.5 -152t117.5 -344q0 -243 -174.5 -397.5t-523.5 -154.5zM572 1716v-535h327q343 0 343 269q0 106 -70 186t-252 80h-348zM1297 596q0 121 -79.5 209.5
t-241.5 88.5h-404v-562h389q179 0 257.5 72.5t78.5 191.5z" />
    <glyph glyph-name="uni0243" unicode="&#x243;" horiz-adv-x="1941" 
d="M1126 0h-808v491h-269v239h269v1318h752q237 0 392.5 -72.5t232 -198t76.5 -284.5q0 -180 -93.5 -285t-257.5 -143v-17q170 -20 287 -152t117 -344q0 -243 -174.5 -397.5t-523.5 -154.5zM713 1716v-535h327q343 0 343 269q0 106 -70 186t-252 80h-348zM1005 730v-239
h-292v-159h389q179 0 257.5 72.5t78.5 191.5q0 121 -79.5 209.5t-241.5 88.5h-404v-164h292z" />
    <glyph glyph-name="Bhook" unicode="&#x181;" horiz-adv-x="2254" 
d="M1440 0h-808v1719h-71q-80 0 -121.5 -37t-56.5 -95.5t-15 -120.5v-112h-355v188q0 230 146 368t401 138h824q237 0 392.5 -72.5t232 -198t76.5 -284.5q0 -180 -93.5 -285t-257.5 -143v-17q170 -20 287 -152t117 -344q0 -243 -174.5 -397.5t-523.5 -154.5zM1027 1716v-535
h327q343 0 343 269q0 106 -69.5 186t-251.5 80h-349zM1752 596q0 121 -79.5 209.5t-241.5 88.5h-404v-562h389q180 0 258 72.5t78 191.5z" />
    <glyph glyph-name="C" unicode="C" horiz-adv-x="2004" 
d="M1882 1405l-384 -43q-45 178 -170.5 267.5t-288.5 89.5q-221 0 -365 -169.5t-144 -528.5q0 -358 144 -525t365 -167q163 0 286 87.5t168 261.5l387 -43q-50 -211 -171 -359.5t-293 -226t-377 -77.5q-261 0 -465 125t-321.5 360t-117.5 564q0 331 117.5 567t321.5 362
t465 126q205 0 378 -78.5t294 -228.5t171 -364z" />
    <glyph glyph-name="Chook" unicode="&#x187;" horiz-adv-x="2213" 
d="M1882 1362h-380v0h-4q-45 178 -170.5 267.5t-288.5 89.5q-221 0 -365 -169.5t-144 -528.5q0 -358 144 -525t365 -167q163 0 286 87.5t168 261.5l387 -43q-50 -211 -171 -359.5t-293 -226t-377 -77.5q-261 0 -465 125t-321.5 360t-117.5 564q0 331 117.5 567t321.5 362
t465 126q321 0 549 -184q76 112 203.5 170t276.5 58q48 0 94.5 -1.5t93.5 -10.5v-317q-21 1 -55 3t-57 2q-62 0 -122.5 -22.5t-100 -76t-39.5 -147.5v-188z" />
    <glyph glyph-name="uni023B" unicode="&#x23b;" horiz-adv-x="2004" 
d="M666 -208l-210 80l91 241q-190 127 -301 357.5t-111 549.5q0 331 117.5 567t321.5 362t465 126q124 0 238 -29l78 206l210 -80l-80 -211q145 -83 248.5 -224t148.5 -333l-384 -44q-39 156 -146 249l-474 -1257q74 -24 161 -24q163 0 286 87t168 262l387 -44
q-50 -211 -171 -359t-293 -225.5t-377 -77.5q-153 0 -289 44zM530 1020q0 -187 41.5 -321t114.5 -219l463 1227q-53 11 -110 11q-221 0 -365 -170t-144 -528z" />
    <glyph glyph-name="Oopen" unicode="&#x186;" horiz-adv-x="2004" 
d="M125 1405q50 214 171 364t294 228.5t378 78.5q260 0 464.5 -126t322 -362t117.5 -567q0 -329 -117.5 -564t-322 -360t-464.5 -125q-205 0 -377 77.5t-292.5 226t-171.5 359.5l387 43q45 -174 167.5 -261.5t286.5 -87.5q221 0 365 167t144 525q0 359 -144 528.5
t-365 169.5q-164 0 -289 -89.5t-170 -267.5z" />
    <glyph glyph-name="D" unicode="D" horiz-adv-x="1980" 
d="M872 0h-695v2048h704q299 0 515.5 -122.5t332.5 -352t116 -548.5q0 -320 -116.5 -549.5t-334.5 -352.5t-522 -123zM859 1706h-287v-1364h281q295 0 446 167.5t151 515.5t-150 514.5t-441 166.5z" />
    <glyph glyph-name="Dhook" unicode="&#x18a;" horiz-adv-x="2443" 
d="M1335 0h-695v1706h-79q-120 0 -156.5 -73t-36.5 -167v-112h-355v188q0 230 146 368t401 138h784q299 0 515 -122.5t332.5 -352t116.5 -548.5q0 -320 -117 -549.5t-335 -352.5t-521 -123zM1322 1706h-287v-1364h281q296 0 446.5 167.5t150.5 515.5t-150 514.5t-441 166.5z
" />
    <glyph glyph-name="Dbar1" unicode="&#x189;" horiz-adv-x="2136" 
d="M1028 0h-695v901h-268v239h268v908h704q299 0 515.5 -122.5t332.5 -352t116 -548.5q0 -320 -116.5 -549.5t-334.5 -352.5t-522 -123zM1021 1140v-239h-293v-559h281q295 0 446 167.5t151 515.5t-150 514.5t-441 166.5h-287v-566h293z" />
    <glyph glyph-name="Dzcaron_" unicode="&#x1c5;" horiz-adv-x="3308" 
d="M872 0h-695v2048h704q299 0 515.5 -122.5t332.5 -352t116 -548.5q0 -320 -116.5 -549.5t-334.5 -352.5t-522 -123zM2337 2048l215 -202l214 202h317v-13l-414 -387h-236l-416 387v13h320zM859 1706h-287v-1364h281q295 0 446 167.5t151 515.5t-150 514.5t-441 166.5z
M3159 315v-315h-1234v241l732 980h-718v315h1203v-237l-731 -984h748z" />
    <glyph glyph-name="E" unicode="E" horiz-adv-x="1665" 
d="M1508 332v-332h-1331v2048h1326v-332h-931v-526h803v-331h-803v-527h936z" />
    <glyph glyph-name="uni0246" unicode="&#x246;" horiz-adv-x="1774" 
d="M573 -223l-211 73l50 150h-235v2048h915l73 219l211 -73l-49 -146h176v-332h-286l-175 -526h333v-331h-443l-175 -527h751v-332h-861zM572 1190h235l175 526h-410v-526zM572 859v-377l125 377h-125z" />
    <glyph glyph-name="Eturn" unicode="&#x18e;" horiz-adv-x="1660" 
d="M138 0v332h931v526h-803v331h803v527h-936v332h1331v-2048h-1326z" />
    <glyph glyph-name="F" unicode="F" horiz-adv-x="1655" 
d="M1363 1190v-331h-791v-859h-395v2048h1323v-332h-928v-526h791z" />
    <glyph glyph-name="Fhook" unicode="&#x191;" horiz-adv-x="1652" 
d="M1363 1190v-331h-791v-966q0 -191 -76 -292t-191 -139t-233 -38q-38 0 -95 1t-90 8v305q17 -3 41 -4t40 -1q84 0 146.5 33t62.5 128v2154h1323v-332h-928v-526h791z" />
    <glyph glyph-name="Fturn" unicode="&#x2132;" horiz-adv-x="1655" 
d="M136 0v332h928v526h-791v331h791v859h395v-2048h-1323z" />
    <glyph glyph-name="G" unicode="G" horiz-adv-x="2029" 
d="M1886 1070v-301q0 -241 -113 -420t-304.5 -278t-426.5 -99q-260 0 -465.5 124t-323.5 358.5t-118 566.5q0 333 117 569t319.5 361t459.5 125q298 0 524.5 -168t320.5 -481l-399 -43q-54 172 -175.5 253.5t-270.5 81.5q-141 0 -254.5 -74t-180 -228.5t-66.5 -395.5
t67.5 -394t183.5 -225.5t261 -72.5q130 0 234.5 54t165 152.5t60.5 233.5h-429v301h813z" />
    <glyph glyph-name="Gbar" unicode="&#x1e4;" horiz-adv-x="2129" 
d="M1886 1070v-301q0 -41 -4 -80h190v-206h-235q-58 -158 -175 -272.5t-276 -176.5t-344 -62q-260 0 -465.5 124t-323.5 358.5t-118 566.5q0 333 117 569t319.5 361t459.5 125q298 0 524.5 -168t320.5 -481l-399 -43q-54 172 -175.5 253.5t-270.5 81.5q-141 0 -254.5 -74
t-180 -228.5t-66.5 -395.5t67.5 -394t183.5 -225.5t261 -72.5q231 0 361 154h-330v206h423q6 39 6 80v53h-429v248h813z" />
    <glyph glyph-name="Ghook" unicode="&#x193;" horiz-adv-x="2274" 
d="M1886 1070v-301q0 -241 -113 -420t-304.5 -278t-426.5 -99q-260 0 -465.5 124t-323.5 358.5t-118 566.5q0 333 117 569t319.5 361t459.5 125q287 0 503 -153q69 140 208.5 213.5t313.5 73.5q50 0 95 -4.5t93 -15.5v-314q-28 3 -55.5 6.5t-56.5 3.5q-62 0 -120 -15
t-94.5 -58t-36.5 -129v-300h-404q-54 172 -175.5 253.5t-270.5 81.5q-141 0 -254.5 -74t-180 -228.5t-66.5 -395.5t67.5 -394t183.5 -225.5t261 -72.5q130 0 234.5 54t165 152.5t60.5 233.5h-429v301h813z" />
    <glyph glyph-name="H" unicode="H" horiz-adv-x="1994" 
d="M572 2048v-858h850v858h395v-2048h-395v859h-850v-859h-395v2048h395z" />
    <glyph glyph-name="Hcedilla" unicode="&#x1e28;" horiz-adv-x="1978" 
d="M280 0h-106v2048h395v-858h850v858h395v-2048h-395v859h-850v-859h1l-16 -83q76 -12 140.5 -65.5t64.5 -170.5q0 -145 -120.5 -235t-353.5 -90l-11 224q68 0 113.5 25.5t45.5 86.5q0 58 -46.5 80t-150.5 29z" />
    <glyph glyph-name="Hbar" unicode="&#x126;" horiz-adv-x="1978" 
d="M573 2048v-369h850v369h395v-369h155v-236h-155v-1443h-395v859h-850v-859h-394v1443h-158v236h158v369h394zM573 1190h850v253h-850v-253z" />
    <glyph glyph-name="Enhookcyrillic" unicode="&#x4c7;" horiz-adv-x="1994" 
d="M572 2048v-858h850v858h395v-2122q0 -178 -76.5 -295t-203.5 -174t-280 -57q-44 0 -93.5 1.5t-94.5 10.5v318q21 -2 55 -4t56 -2q94 0 168 47t74 175v913h-850v-859h-395v2048h395z" />
    <glyph glyph-name="Endescendercyrillic" unicode="&#x4a2;" horiz-adv-x="2321" 
d="M558 2048v-858h850v858h395v-1768h318v-773h-377v493h-336v859h-850v-859h-395v2048h395z" />
    <glyph glyph-name="uni04C9" unicode="&#x4c9;" horiz-adv-x="2162" 
d="M555 2048v-858h850v858h395v-1794h327v-259q-1 -157 -71 -307t-176 -257l-216 89l91 204.5t45 250.5v25h-395v859h-850v-859h-395v2048h395z" />
    <glyph glyph-name="Enghecyrillic" unicode="&#x4a4;" horiz-adv-x="2833" 
d="M536 2048v-858h850v858h1218v-315h-823v-1733h-395v859h-850v-859h-394v2048h394z" />
    <glyph glyph-name="uni01F6" unicode="&#x1f6;" horiz-adv-x="3022" 
d="M569 2048v-863h853v863h392v-1367q0 -179 79 -278.5t247 -99.5q171 0 247 99.5t76 278.5v822h392v-822q0 -347 -192.5 -528t-522.5 -181q-332 0 -525 181.5t-193 527.5v181h-853v-862h-392v2048h392z" />
    <glyph glyph-name="I" unicode="I" horiz-adv-x="749" 
d="M572 2048v-2048h-395v2048h395z" />
    <glyph glyph-name="Idieresis" unicode="&#xcf;" horiz-adv-x="1033" 
d="M233 2238q-79 0 -132 51.5t-53 122.5q0 75 53 125.5t132 50.5t130.5 -50.5t51.5 -125.5q0 -71 -51.5 -122.5t-130.5 -51.5zM803 2238q-79 0 -131.5 51.5t-52.5 122.5q0 75 52.5 125.5t131.5 50.5t130.5 -50.5t51.5 -125.5q0 -71 -51.5 -122.5t-130.5 -51.5zM712 2048
v-2048h-395v2048h395z" />
    <glyph glyph-name="Idieresisacute" unicode="&#x1e2e;" horiz-adv-x="989" 
d="M371 2461l176 272h284l-248 -272h-212zM648 2255q-20 47 1 95t80 68q59 22 111.5 4t71.5 -65q23 -47 1 -94t-81 -69q-60 -20 -111 -3.5t-73 64.5zM72 2255q-20 47 0.5 95t79.5 68q59 22 111.5 4t72.5 -65q23 -47 0.5 -94t-82.5 -69q-59 -20 -109.5 -3.5t-72.5 64.5z
M649 2048v-2048h-395v2048h395z" />
    <glyph glyph-name="Istroke" unicode="&#x197;" horiz-adv-x="1148" 
d="M1052 1171v-239h-285v-932h-395v932h-276v239h276v877h395v-877h285z" />
    <glyph glyph-name="Itildebelow" unicode="&#x1e2c;" horiz-adv-x="1066" 
d="M721 2048v-2048h-395v2048h395zM821 -146l226 -16q0 -152 -88.5 -258t-223.5 -106q-88 0 -144.5 30t-107.5 60t-123 30q-49 0 -82.5 -35t-33.5 -98l-230 10q0 99 40.5 182.5t111 134t160.5 50.5q74 0 133 -29l116.5 -58.5t125.5 -29.5q49 0 84.5 35t35.5 98z" />
    <glyph glyph-name="J" unicode="J" horiz-adv-x="1552" 
d="M990 614v1434h392v-1434q0 -200 -85 -343.5t-234 -221t-339 -77.5q-186 0 -334 67.5t-233.5 201.5t-85.5 334h392q2 -135 76.5 -207.5t189.5 -72.5q109 0 185 77t76 242z" />
    <glyph glyph-name="uni0248" unicode="&#x248;" horiz-adv-x="1709" 
d="M1031 614v318h-370v239h370v877h392v-877h194v-239h-194v-318q0 -200 -85 -343.5t-233.5 -221t-339.5 -77.5q-187 0 -334.5 67.5t-233 201.5t-85.5 334h392q2 -135 76.5 -207.5t189.5 -72.5q110 0 185.5 77t75.5 242z" />
    <glyph glyph-name="K" unicode="K" horiz-adv-x="1980" 
d="M1420 0l-603 823l-245 -270v-553h-395v2048h395v-907h27l819 907h517l-868 -940l828 -1108h-475z" />
    <glyph glyph-name="Kabashkircyrillic" unicode="&#x4a0;" horiz-adv-x="2474" 
d="M1914 0l-603 824l-245 -270v-554h-395v1733h-631v315h1026v-907h26l820 907h517l-868 -940l827 -1108h-474z" />
    <glyph glyph-name="Kadescendercyrillic" unicode="&#x49a;" horiz-adv-x="2186" 
d="M1488 0l-603 823l-245 -270v-553h-395v2048h395v-907h27l819 907h517l-868 -940l619 -828h338v-773h-377v493h-227z" />
    <glyph glyph-name="Khook" unicode="&#x198;" horiz-adv-x="1971" 
d="M1420 0l-603 823l-245 -270v-553h-395v2048h395v-907h27l571 631l105 115q146 163 323.5 184t353.5 -86l-130 -285q-78 44 -138.5 28t-130.5 -93l-57 -64l-429 -463l828 -1108h-475z" />
    <glyph glyph-name="L" unicode="L" horiz-adv-x="1573" 
d="M1440 332v-332h-1263v2048h395v-1716h868z" />
    <glyph glyph-name="L_slash" unicode="&#x141;" horiz-adv-x="1747" 
d="M1557 332v-332h-1263v893l-207 -60v224l207 60v931h395v-816l286 83v-226l-286 -82v-675h868z" />
    <glyph glyph-name="L_bar" unicode="&#x23d;" horiz-adv-x="1747" 
d="M1027 1171v-239h-297v-600h868v-332h-1263v932h-264v239h264v877h395v-877h297z" />
    <glyph glyph-name="M" unicode="M" horiz-adv-x="2529" 
d="M177 2048h497l580 -1427h24l578 1427h496v-2048h-390v1397h-17l-538 -1370h-284l-539 1376h-17v-1403h-390v2048z" />
    <glyph glyph-name="uni04CD" unicode="&#x4cd;" horiz-adv-x="2666" 
d="M177 2048h497l580 -1427h24l578 1427h496v-1794h237v-259q-1 -157 -71 -307t-176 -257l-216 89l91 204.5t45 250.5v25h-300v1397h-17l-538 -1370h-284l-539 1376h-17v-1403h-390v2048z" />
    <glyph glyph-name="N" unicode="N" horiz-adv-x="1993" 
d="M1816 2048v-2048h-387l-840 1370h-17v-1370h-395v2048h390l838 -1373h17v1373h394z" />
    <glyph glyph-name="Nhook" unicode="&#x19d;" horiz-adv-x="1993" 
d="M1816 2048v-2048h-387l-840 1370h-17v-1477q0 -191 -76 -292t-191 -139t-233 -38q-38 0 -95 1t-90 8v305q17 -3 41 -4t40 -1q84 0 146.5 33t62.5 128v2154h390l838 -1373h17v1373h394z" />
    <glyph glyph-name="Eng" unicode="&#x14a;" horiz-adv-x="1993" 
d="M1816 2048v-2122q0 -178 -76.5 -295t-204 -174t-280.5 -57q-44 0 -93 1.5t-94 10.5v318q21 -2 54.5 -4t56.5 -2q94 0 170.5 47t76.5 175v59l-837 1365h-17v-1370h-395v2048h390l838 -1373h17v1373h394z" />
    <glyph glyph-name="afii10026" unicode="&#x418;" horiz-adv-x="1993" 
d="M1816 -30h-394v1373h-17l-838 -1373h-390v2048h395v-1370h17l840 1370h387v-2048z" />
    <glyph glyph-name="uni048A" unicode="&#x48a;" horiz-adv-x="2261" 
d="M1194 2530h279q0 -178 -127 -292t-346 -114q-215 0 -342 114t-127 292h277q0 -72 43.5 -127.5t148.5 -55.5t149.5 55.5t44.5 127.5zM1801 -30h-394v1373h-17l-838 -1373h-390v2048h395v-1370h17l840 1370h387v-2048zM2136 254v-259q-1 -157 -70.5 -307t-176.5 -257
l-216 89l91.5 204.5t44.5 250.5v279h327z" />
    <glyph glyph-name="uni0376" unicode="&#x376;" horiz-adv-x="2080" 
d="M1851 -30h-394v1373h-17l-838 -1373h-390v2048h395v-1370h17l840 1370h387v-2048z" />
    <glyph glyph-name="O" unicode="O" horiz-adv-x="2073" 
d="M1938 1021q0 -332 -118 -566.5t-321 -358.5t-460 -124t-462 124t-323.5 358.5t-118.5 566.5q0 333 118.5 569t323.5 361t462 125t460 -125t321 -361t118 -569zM1543 1021q0 362 -143 530t-361 168q-145 0 -260 -74t-182 -228.5t-67 -395.5t67 -394t182 -225.5t260 -72.5
q218 0 361 165t143 527z" />
    <glyph glyph-name="Odieresis" unicode="&#xd6;" horiz-adv-x="2073" 
d="M753 2238q-79 0 -132 51.5t-53 122.5q0 75 53 125.5t132 50.5t130.5 -50.5t51.5 -125.5q0 -71 -51.5 -122.5t-130.5 -51.5zM1323 2238q-79 0 -131.5 51.5t-52.5 122.5q0 75 52.5 125.5t131.5 50.5t130.5 -50.5t51.5 -125.5q0 -71 -51.5 -122.5t-130.5 -51.5zM1938 1021
q0 -332 -118 -566.5t-321 -358.5t-460 -124t-462 124t-323.5 358.5t-118.5 566.5q0 333 118.5 569t323.5 361t462 125t460 -125t321 -361t118 -569zM1543 1021q0 362 -143 530t-361 168q-145 0 -260 -74t-182 -228.5t-67 -395.5t67 -394t182 -225.5t260 -72.5q218 0 361 165
t143 527z" />
    <glyph glyph-name="Otilde" unicode="&#xd5;" horiz-adv-x="2073" 
d="M1327 2648l226 -16q0 -152 -88.5 -258t-223.5 -106q-88 0 -144.5 30t-107.5 60t-123 30q-49 0 -82.5 -35t-33.5 -98l-230 10q0 99 40.5 182.5t111 134t160.5 50.5q74 0 133 -29.5l116.5 -58.5t125.5 -29q49 0 84.5 35t35.5 98zM1938 1021q0 -332 -118 -566.5t-321 -358.5
t-460 -124t-462 124t-323.5 358.5t-118.5 566.5q0 333 118.5 569t323.5 361t462 125t460 -125t321 -361t118 -569zM1543 1021q0 362 -143 530t-361 168q-145 0 -260 -74t-182 -228.5t-67 -395.5t67 -394t182 -225.5t260 -72.5q218 0 361 165t143 527z" />
    <glyph glyph-name="Oslash" unicode="&#xd8;" horiz-adv-x="2073" 
d="M427 -95l-185 126l149 220q-120 134 -188 328.5t-68 441.5q0 333 118.5 569t323.5 361t462 125q276 0 488 -143l139 206l185 -126l-156 -231q114 -135 178.5 -326.5t64.5 -434.5q0 -332 -118 -566.5t-321 -358.5t-460 -124q-268 0 -477 133zM530 1021q0 -138 22.5 -246
t64.5 -189l705 1043q-117 90 -283 90q-145 0 -260 -74t-182 -228.5t-67 -395.5zM1543 1021q0 131 -20 236t-57 186l-699 -1035q115 -79 272 -79q218 0 361 165t143 527z" />
    <glyph glyph-name="Ohorn" unicode="&#x1a0;" horiz-adv-x="2126" 
d="M1938 1021q0 -332 -118 -566.5t-321 -358.5t-460 -124t-462 124t-323.5 358.5t-118.5 566.5q0 333 118.5 569t323 361t462.5 125q404 0 652 -289q82 35 115 130.5t33 240.5h263q0 -216 -69.5 -360t-215.5 -204q58 -118 89.5 -261.5t31.5 -311.5zM1543 1021
q0 362 -143 530t-361 168q-145 0 -260 -74t-182 -228.5t-67 -395.5t67 -394t182 -225.5t260 -72.5q218 0 361 165t143 527z" />
    <glyph glyph-name="P" unicode="P" horiz-adv-x="1792" 
d="M936 716h-364v-716h-395v2048h758q255 0 413 -85t231.5 -235.5t73.5 -346.5q0 -299 -171 -482t-546 -183zM572 1716v-672h364q181 0 253.5 97.5t72.5 239.5t-73 238.5t-254 96.5h-363z" />
    <glyph glyph-name="uni048E" unicode="&#x48e;" horiz-adv-x="1792" 
d="M936 716h-364v-716h-395v2048h758q255 0 413 -85t231.5 -235.5t73.5 -346.5q0 -166 -51.5 -298t-160.5 -220l132 -178l-198 -154l-162 219q-123 -34 -277 -34zM1044 1400l168 -227q26 43 38 96t12 112q0 142 -73 238.5t-254 96.5h-363v-672h364q29 0 56 3l-146 197z" />
    <glyph glyph-name="Phook" unicode="&#x1a4;" horiz-adv-x="2247" 
d="M1391 716h-364v-716h-395v1719h-71q-80 0 -121.5 -37t-56.5 -95.5t-15 -120.5v-112h-355v188q0 230 146 368t401 138h830q255 0 413.5 -85t231.5 -235.5t73 -346.5q0 -199 -75 -348.5t-233 -233t-409 -83.5zM1027 1716v-672h364q181 0 253.5 97.5t72.5 239.5t-72.5 238.5
t-254.5 96.5h-363z" />
    <glyph glyph-name="Q" unicode="Q" horiz-adv-x="2073" 
d="M1938 1021q0 -282 -87 -494.5t-237 -345.5l267 -373h-378l-154 216q-145 -52 -310 -52q-257 0 -462 124t-323.5 358.5t-118.5 566.5q0 333 118.5 569t323.5 361t462 125t460 -125t321 -361t118 -569zM889 684h345l151 -208q74 84 116 219t42 326q0 362 -143 530t-361 168
q-145 0 -260 -74t-182 -228.5t-67 -395.5t67 -394t182 -225.5t260 -72.5q52 0 100 9z" />
    <glyph glyph-name="R" unicode="R" horiz-adv-x="1792" 
d="M1295 0l-380 766h-343v-766h-395v2048h755q364 0 542.5 -175t178.5 -461q0 -213 -94.5 -353t-249.5 -217l424 -842h-438zM572 1716v-619h351q170 0 254.5 80t84.5 227q0 136 -78.5 224t-251.5 88h-360z" />
    <glyph glyph-name="response" unicode="&#x211f;" horiz-adv-x="1792" 
d="M1295 0l-362 730l-377 -1217l-218 23l140 464h-301v2048h755q86 0 162 -11l26 85l-271 90l77 226l481 -181l-88 -282q168 -76 251 -222t83 -341q0 -213 -94.5 -353t-249.5 -217l424 -842h-438zM572 1716v-619h238l186 615q-30 4 -64 4h-360zM1262 1404q0 122 -58 199
l-152 -491q210 54 210 292zM572 766v-456l138 456h-138z" />
    <glyph glyph-name="Rx" unicode="&#x211e;" horiz-adv-x="2057" 
d="M1309 0h-394l327 458l-217 308h-453v-766h-395v2048h755q364 0 542.5 -175t178.5 -461q0 -201 -84 -336.5t-224 -214.5l92 -130l136 191h386l-327 -464l327 -458h-394l-128 182zM572 1716v-619h351q170 0 254.5 80t84.5 227q0 136 -78.5 224t-251.5 88h-360z" />
    <glyph glyph-name="uni024C" unicode="&#x24c;" horiz-adv-x="1795" 
d="M1298 0l-381 766h-342v-766h-395v766h-177v331h177v951h755q364 0 542 -175t178 -461q0 -214 -95 -353.5t-249 -217.5l424 -841h-437zM575 1716v-619h351q170 0 254 80t84 227q0 136 -78 224t-251 88h-360z" />
    <glyph glyph-name="S" unicode="S" horiz-adv-x="1780" 
d="M1257 1466q-13 130 -103 203t-251 73q-157 0 -255.5 -67t-98.5 -174q0 -104 105 -165t282 -119l105 -34q289 -95 445 -234.5t156 -377.5q0 -185 -93.5 -320.5t-262 -208.5t-395.5 -73q-209 0 -386.5 72t-286 216.5t-112.5 362.5h386q9 -158 119.5 -238t279.5 -80
q178 0 273.5 78.5t95.5 187.5q0 107 -96 179t-323 142l-108 31q-250 75 -409.5 217.5t-159.5 363.5q0 172 97 301.5t264.5 201.5t379.5 72q213 0 376 -76t256 -213t96 -321h-376z" />
    <glyph glyph-name="Germandbls" unicode="&#x1e9e;" horiz-adv-x="1942" 
d="M691 51l110 304q45 -19 120.5 -42t176.5 -23q166 0 251.5 77t85.5 216q0 346 -388 346h-186v251l370 436q-71 53 -162.5 89t-203.5 36q-157 0 -227.5 -101t-70.5 -305v-1335h-395v1335q0 727 693 727q250 0 450.5 -94.5t394.5 -251.5l-445 -532q268 -35 414.5 -187.5
t146.5 -412.5q0 -202 -92 -338t-248 -205t-347 -69q-141 0 -251 22.5t-197 56.5z" />
    <glyph glyph-name="T" unicode="T" horiz-adv-x="1816" 
d="M1718 2048v-332h-614v-1716h-392v1716h-614v332h1620z" />
    <glyph glyph-name="Thook" unicode="&#x1ac;" horiz-adv-x="2043" 
d="M1955 2048v-332h-614v-1716h-395v1716h-397q-117 0 -156 -76t-39 -168v-111h-330v182q0 233 136.5 369t388.5 136h1406z" />
    <glyph glyph-name="Trthook" unicode="&#x1ae;" horiz-adv-x="1816" 
d="M1716 2048v-332h-615v-1823q0 -95 66 -126t150 -31h81v-312h-185q-88 0 -177 20t-163 71t-119 142.5t-45 234.5v1824h-614v332h1621z" />
    <glyph glyph-name="uni023E" unicode="&#x23e;" horiz-adv-x="1819" 
d="M496 -113l-204 99l425 903v827h-614v332h1160l113 240l204 -100l-66 -140h210v-332h-366l-248 -526v-1190h-393v356z" />
    <glyph glyph-name="U" unicode="U" horiz-adv-x="1996" 
d="M1423 2048h395v-1353q0 -233 -106 -395t-291 -246.5t-421 -84.5q-238 0 -423.5 84.5t-292.5 246.5t-107 395v1353h395v-1342q0 -179 123 -279t305 -100q183 0 303 100t120 279v1342z" />
    <glyph glyph-name="Uhorn" unicode="&#x1af;" horiz-adv-x="2322" 
d="M1423 2048h395v-323q131 32 164.5 137t33.5 269h262q0 -272 -99.5 -435.5t-360.5 -195.5v-805q0 -233 -106 -395t-291 -246.5t-421 -84.5q-238 0 -423.5 84.5t-292.5 246.5t-107 395v1353h395v-1342q0 -179 123 -279t305 -100q183 0 303 100t120 279v1342z" />
    <glyph glyph-name="uni0244" unicode="&#x244;" horiz-adv-x="2257" 
d="M2180 1169v-232h-212v-242q0 -233 -106 -395t-291 -246.5t-421 -84.5q-238 0 -423.5 84.5t-292.5 246.5t-107 395v242h-251v232h251v879h395v-879h851v879h395v-879h212zM722 706q0 -179 123 -279t305 -100t302.5 100t120.5 279v231h-851v-231z" />
    <glyph glyph-name="V" unicode="V" horiz-adv-x="2084" 
d="M492 2048l538 -1550h24l537 1550h415l-755 -2048h-419l-755 2048h415z" />
    <glyph glyph-name="W" unicode="W" horiz-adv-x="2824" 
d="M459 2048l371 -1469h17l382 1469h367l381 -1472h18l370 1472h367l-533 -2048h-403l-376 1395h-16l-376 -1395h-403l-532 2048h366z" />
    <glyph glyph-name="X" unicode="X" horiz-adv-x="1922" 
d="M534 2048l419 -727h16l419 727h450l-611 -1024l622 -1024h-455l-425 724h-16l-425 -724h-455l628 1024l-617 1024h450z" />
    <glyph glyph-name="Hadescendercyrillic" unicode="&#x4b2;" horiz-adv-x="2100" 
d="M1985 280v-773h-377v493h-214l-425 724h-16l-425 -724h-455l628 1024l-617 1024h450l419 -727h16l419 727h450l-611 -1024l452 -744h306z" />
    <glyph glyph-name="uni04FC" unicode="&#x4fc;" horiz-adv-x="2004" 
d="M534 2048l419 -727h16l419 727h450l-611 -1024l406 -669h304v-400q0 -259 -135 -403t-377 -144q-53 0 -97.5 4t-95.5 16l20 311q28 -9 63 -13t72 -4q79 0 126 59.5t47 173.5v45h-166l-425 724h-16l-425 -724h-455l628 1024l-617 1024h450z" />
    <glyph glyph-name="Y" unicode="Y" horiz-adv-x="2065" 
d="M501 2048l519 -896h24l520 896h433l-767 -1248v-800h-395v800l-767 1248h433z" />
    <glyph glyph-name="Yhook" unicode="&#x1b3;" horiz-adv-x="2127" 
d="M501 2048l519 -896h24l312 538l60 105q82 144 194 209.5t235 67.5t242 -45l-86 -301q-95 32 -157 6t-120 -125l-38 -63l-456 -744v-800h-395v800l-767 1248h433z" />
    <glyph glyph-name="uni024E" unicode="&#x24e;" horiz-adv-x="2057" 
d="M498 2048l246 -425h570l246 425h433l-261 -425h259v-211h-389l-376 -612v-800h-395v800l-376 612h-388v211h258l-261 425h434zM1017 1152h24l150 260h-324z" />
    <glyph glyph-name="Z" unicode="Z" horiz-adv-x="1804" 
d="M1657 332v-332h-1507v243l1018 1473h-1022v332h1507v-243l-1017 -1473h1021z" />
    <glyph glyph-name="uni0224" unicode="&#x224;" horiz-adv-x="1804" 
d="M1653 1805l-1017 -1473h523q253 0 389 -136t136 -369v-169h-327v98q0 60 -15 116t-57.5 92t-125.5 36h-1009v243l1017 1473h-1021v332h1507v-243z" />
    <glyph glyph-name="Zbar" unicode="&#x1b5;" horiz-adv-x="1804" 
d="M1657 332v-332h-1507v243l455 658h-189v239h354l398 576h-1022v332h1507v-243l-459 -665h178v-239h-343l-393 -569h1021z" />
    <glyph glyph-name="uni2C7F" unicode="&#x2c7f;" horiz-adv-x="1804" 
d="M277 0h-130v229l1009 1466h-1012v323h1496v-226l-1022 -1501q127 -38 225 -106t178.5 -146l152.5 -148.5t145 -115.5t157 -45q57 0 103 7t91 20v-316q-34 -15 -96 -28t-137 -13q-121 0 -217 43.5t-178 111.5t-161.5 145t-167 145t-193.5 111.5t-243 43.5z" />
    <glyph glyph-name="OE" unicode="&#x152;" horiz-adv-x="2785" 
d="M990 2048h1582v-332h-931v-526h803v-331h-803v-527h936v-332h-1587q-246 0 -432.5 103t-291 287t-104.5 426v420q0 242 104.5 425t291 285t432.5 102zM990 315h257v1418h-257q-203 0 -321 -122.5t-118 -374.5v-420q0 -252 119.5 -376.5t319.5 -124.5z" />
    <glyph glyph-name="a" unicode="a" horiz-adv-x="1564" 
d="M1022 0v173h-18q-40 -73 -135.5 -138.5t-257.5 -65.5q-137 0 -250.5 54t-181.5 157.5t-68 252.5q0 223 163 339t455 143q68 7 131.5 15t104 27t40.5 59v23q0 103 -60.5 158.5t-161.5 55.5q-107 0 -181 -54t-95 -132l-365 53q53 212 229.5 324t421.5 112q153 0 291 -50
t225 -165t87 -310v-1031h-374zM1005 512v203q-15 -16 -58.5 -28t-94.5 -20.5t-86 -12.5q-138 -16 -207.5 -66t-69.5 -150q0 -82 59.5 -128.5t155.5 -46.5q128 0 214.5 74.5t86.5 174.5z" />
    <glyph glyph-name="adieresis" unicode="&#xe4;" horiz-adv-x="1569" 
d="M499 1726q-79 0 -132 51.5t-53 122.5q0 75 53 125.5t132 50.5t130.5 -50.5t51.5 -125.5q0 -71 -51.5 -122.5t-130.5 -51.5zM1069 1726q-79 0 -131.5 51.5t-52.5 122.5q0 75 52.5 125.5t131.5 50.5t130.5 -50.5t51.5 -125.5q0 -71 -51.5 -122.5t-130.5 -51.5zM1022 0v173
h-18q-40 -73 -135.5 -138.5t-257.5 -65.5q-137 0 -250.5 54t-181.5 157.5t-68 252.5q0 223 163 339t455 143q68 7 131.5 15t104 27t40.5 59v23q0 103 -60.5 158.5t-161.5 55.5q-107 0 -181 -54t-95 -132l-365 53q53 212 229.5 324t421.5 112q153 0 291 -50t225 -165t87 -310
v-1031h-374zM1005 512v203q-15 -16 -58.5 -28t-94.5 -20.5t-86 -12.5q-138 -16 -207.5 -66t-69.5 -150q0 -82 59.5 -128.5t155.5 -46.5q128 0 214.5 74.5t86.5 174.5z" />
    <glyph glyph-name="atilde" unicode="&#xe3;" horiz-adv-x="1569" 
d="M1051 2116l226 -16q0 -152 -88.5 -258t-223.5 -106q-88 0 -144.5 30t-107.5 60t-123 30q-49 0 -82.5 -35t-33.5 -98l-230 10q0 99 40.5 182.5t111 134t160.5 50.5q74 0 133 -29.5l116.5 -58.5t125.5 -29q49 0 84.5 35t35.5 98zM1022 0v173h-18q-40 -73 -135.5 -138.5
t-257.5 -65.5q-137 0 -250.5 54t-181.5 157.5t-68 252.5q0 223 163 339t455 143q68 7 131.5 15t104 27t40.5 59v23q0 103 -60.5 158.5t-161.5 55.5q-107 0 -181 -54t-95 -132l-365 53q53 212 229.5 324t421.5 112q153 0 291 -50t225 -165t87 -310v-1031h-374zM1005 512v203
q-15 -16 -58.5 -28t-94.5 -20.5t-86 -12.5q-138 -16 -207.5 -66t-69.5 -150q0 -82 59.5 -128.5t155.5 -46.5q128 0 214.5 74.5t86.5 174.5z" />
    <glyph glyph-name="a_uni02DE" horiz-adv-x="2249" 
d="M1022 0v173h-18q-40 -73 -135.5 -138.5t-257.5 -65.5q-137 0 -250.5 54t-181.5 157.5t-68 252.5q0 223 163 339t455 143q68 7 131.5 15t104 27t40.5 59v23q0 103 -60.5 158.5t-161.5 55.5q-107 0 -181 -54t-95 -132l-365 53q53 212 229.5 324t421.5 112q153 0 291 -50
t225 -165t87 -310v-20l490 109q20 -134 36 -225.5t50.5 -138t110.5 -46.5q19 0 39 2.5t37 5.5l55 -263q-93 -51 -210 -51q-120 0 -188 52t-105 139.5t-65 194.5l-250 -58v-732h-374zM1005 512v203q-15 -16 -58.5 -28t-94.5 -20.5t-86 -12.5q-138 -16 -207.5 -66t-69.5 -150
q0 -82 59.5 -128.5t155.5 -46.5q128 0 214.5 74.5t86.5 174.5z" />
    <glyph glyph-name="ae" unicode="&#xe6;" horiz-adv-x="2495" 
d="M147 1120q53 212 229.5 324t422.5 112q146 0 260.5 -41t189.5 -114q87 74 200 114.5t248 40.5q195 0 350.5 -82t246 -246t90.5 -410v-121l-1032 -96q28 -147 117 -229.5t241 -82.5q139 0 209 63.5t101 149.5l348 -94q-28 -106 -108 -206t-216.5 -165.5t-331.5 -65.5
q-193 0 -322.5 70t-212.5 195h-9q-12 -42 -69 -105t-163 -112.5t-265 -49.5q-142 0 -268.5 49t-206 151.5t-79.5 263.5q0 223 163 339t455 143q67 7 130.5 15t104.5 27t41 59v23q0 103 -66.5 153t-163.5 50q-110 0 -178.5 -54.5t-95.5 -136.5zM1694 1241q-147 0 -237 -100
t-112 -278l671 59q0 136 -84.5 227.5t-237.5 91.5zM1011 512v203q-15 -16 -58.5 -28t-94.5 -20.5t-86 -12.5q-138 -16 -208 -66t-70 -150q0 -82 59.5 -128.5t155.5 -46.5q129 0 215.5 74.5t86.5 174.5z" />
    <glyph glyph-name="aturn" unicode="&#x250;" horiz-adv-x="1574" 
d="M533 1532v-173h18q40 73 135.5 138.5t257.5 65.5q136 0 250 -54t182 -157.5t68 -252.5q0 -223 -163 -339t-455 -143q-68 -7 -131.5 -15t-104 -27t-40.5 -59v-23q0 -103 60.5 -158.5t161.5 -55.5q107 0 181 54t95 132l365 -53q-53 -212 -229.5 -324t-421.5 -112
q-152 0 -290.5 50t-225.5 165t-87 310v1031h374zM550 1020v-203q14 16 58 28t95 20.5t86 12.5q138 16 207.5 66t69.5 150q0 82 -59.5 128.5t-155.5 46.5q-128 0 -214.5 -74.5t-86.5 -174.5z" />
    <glyph glyph-name="b" unicode="b" horiz-adv-x="1672" 
d="M167 2048h388v-702h18q39 79 130.5 144.5t245.5 65.5q167 0 306 -89t222.5 -265t83.5 -435q0 -257 -81.5 -434t-219.5 -268.5t-310 -91.5q-153 0 -245.5 64.5t-131.5 144.5h-23v-182h-383v2048zM1192 768q0 214 -86.5 343.5t-258.5 129.5q-177 0 -252.5 -135t-75.5 -338
q0 -134 32.5 -243t104.5 -172.5t191 -63.5q171 0 258 132t87 347z" />
    <glyph glyph-name="bbar" unicode="&#x180;" horiz-adv-x="1795" 
d="M292 2048h388v-125h314v-239h-314v-338h18q39 79 130.5 144.5t245.5 65.5q166 0 305.5 -89t223 -265t83.5 -435q0 -257 -81.5 -434t-220 -268.5t-309.5 -91.5q-153 0 -245.5 64.5t-131.5 144.5h-23v-182h-383v1684h-254v239h254v125zM1317 768q0 214 -86.5 343.5
t-258.5 129.5q-177 0 -252.5 -135t-75.5 -338q0 -134 32.5 -243t104.5 -172.5t191 -63.5q171 0 258 132t87 347z" />
    <glyph glyph-name="btopbar" unicode="&#x183;" horiz-adv-x="1789" 
d="M167 2048h1181v-329h-793v-373h18q39 79 130.5 144.5t245.5 65.5q167 0 306 -89t222.5 -265t83.5 -435q0 -257 -81.5 -434t-219.5 -268.5t-310 -91.5q-153 0 -245.5 64.5t-131.5 144.5h-23v-182h-383v2048zM1192 768q0 214 -86.5 343.5t-258.5 129.5q-177 0 -252.5 -135
t-75.5 -338q0 -134 32.5 -243t104.5 -172.5t191 -63.5q171 0 258 132t87 347z" />
    <glyph glyph-name="bhook" unicode="&#x253;" horiz-adv-x="1672" 
d="M777 1769q-84 0 -153 -33.5t-69 -128.5v-261h18q39 79 130.5 144.5t245.5 65.5q167 0 306 -89t222.5 -265t83.5 -435q0 -257 -81.5 -434t-219.5 -268.5t-310 -91.5q-153 0 -245.5 64.5t-131.5 144.5h-23v-182h-383v1607q0 145 45 237t119.5 142.5t164 70t177.5 19.5
q127 0 201 -15v-300q-21 3 -45.5 5.5t-51.5 2.5zM1192 768q0 214 -86.5 343.5t-258.5 129.5q-177 0 -252.5 -135t-75.5 -338q0 -134 32.5 -243t104.5 -172.5t191 -63.5q171 0 258 132t87 347z" />
    <glyph glyph-name="c" unicode="c" horiz-adv-x="1583" 
d="M1482 1046l-361 -54q-27 109 -97 179t-198 70q-172 0 -257.5 -129.5t-85.5 -343.5q0 -216 85 -347.5t258 -131.5q116 0 188.5 61.5t101.5 165.5l363 -52q-46 -220 -219.5 -356.5t-433.5 -136.5q-222 0 -382 102t-246.5 281.5t-86.5 413.5q0 232 87 409.5t247 278
t380 100.5q262 0 438.5 -139t218.5 -371z" />
    <glyph glyph-name="uni023C" unicode="&#x23c;" horiz-adv-x="1566" 
d="M1460 1046l-361 -54q-23 92 -71 151l-295 -847q34 -7 72 -7q115 0 187.5 61.5t101.5 165.5l364 -52q-46 -220 -220 -356.5t-433 -136.5q-94 0 -179 19l-196 -562h-230l225 644q-160 99 -247.5 280t-87.5 416q0 232 86.5 409.5t246.5 278t380 100.5q71 0 137 -11l160 459
h229l-183 -526q124 -64 206 -175t108 -257zM462 768q0 -222 85 -347l286 819q-14 1 -28 1q-173 0 -258 -129.5t-85 -343.5z" />
    <glyph glyph-name="chook" unicode="&#x188;" horiz-adv-x="1744" 
d="M1482 1046l-361 -54q-27 109 -97 179t-198 70q-172 0 -257.5 -129.5t-85.5 -343.5q0 -216 85 -347.5t258 -131.5q116 0 188.5 61.5t101.5 165.5l363 -52q-46 -220 -219.5 -356.5t-433.5 -136.5q-222 0 -382 102t-246.5 281.5t-86.5 413.5q0 232 87 409.5t247 278
t380 100.5q202 0 358 -86q61 105 169.5 160t244.5 55q44 0 84.5 -4.5t81.5 -15.5v-265q-23 3 -47 7t-51 4q-83 0 -133 -41t-50 -157v-167z" />
    <glyph glyph-name="ccurl" unicode="&#x255;" horiz-adv-x="1579" 
d="M826 289q86 0 159.5 29.5t73.5 97.5q0 43 -29 65t-66 22q-65 0 -140 -46.5t-159 -127.5q69 -40 161 -40zM1482 1046l-361 -54q-27 109 -97 179t-198 70q-172 0 -257.5 -129.5t-85.5 -343.5q0 -88 14 -162q141 113 268 160.5t239 47.5q150 0 242 -51.5t134 -135t42 -178.5
q0 -127 -68 -236t-200.5 -175.5t-327.5 -66.5q-221 0 -387 105l-83.5 -105.5l-86.5 -112.5l-251 204q98 144 195 261q-102 190 -102 445q0 232 87 409.5t247 278t380 100.5q262 0 438.5 -139t218.5 -371z" />
    <glyph glyph-name="d" unicode="d" horiz-adv-x="1672" 
d="M1505 0h-383v182h-21q-39 -80 -132.5 -144.5t-245.5 -64.5q-172 0 -310.5 91.5t-220 268.5t-81.5 434q0 259 83.5 435t223 265t306.5 89q154 0 246 -65.5t131 -144.5h16v702h388v-2048zM481 768q0 -215 86.5 -347t257.5 -132q119 0 191.5 63.5t105 172.5t32.5 243
q0 203 -75.5 338t-253.5 135q-172 0 -258 -129.5t-86 -343.5z" />
    <glyph glyph-name="dcroat" unicode="&#x111;" horiz-adv-x="1724" 
d="M1505 0h-383v182h-21q-39 -80 -132.5 -144.5t-245.5 -64.5q-172 0 -310.5 91.5t-220 268.5t-81.5 434q0 259 83.5 435t223 265t306.5 89q154 0 246 -65.5t131 -144.5h16v311h-363v239h363v152h388v-152h205v-239h-205v-1657zM481 768q0 -215 86.5 -347t257.5 -132
q119 0 191.5 63.5t105 172.5t32.5 243q0 203 -75.5 338t-253.5 135q-172 0 -258 -129.5t-86 -343.5z" />
    <glyph glyph-name="drthook" unicode="&#x256;" horiz-adv-x="1816" 
d="M1117 2048h388v-2155q0 -95 63.5 -128.5t147.5 -33.5q27 0 51.5 2.5t46.5 5.5v-300q-75 -15 -202 -15q-118 0 -231.5 38t-188.5 139t-75 292v289h-16q-39 -80 -132.5 -144.5t-245.5 -64.5q-172 0 -310.5 91.5t-220 268.5t-81.5 434q0 259 83.5 435t223 265t306.5 89
q154 0 246 -65.5t131 -144.5h16v702zM481 768q0 -215 86.5 -347t257.5 -132q119 0 191.5 63.5t105 172.5t32.5 243q0 203 -75.5 338t-253.5 135q-172 0 -258 -129.5t-86 -343.5z" />
    <glyph glyph-name="dhook" unicode="&#x257;" horiz-adv-x="1795" 
d="M1505 0h-383v182h-22q-39 -80 -132 -144.5t-245 -64.5q-172 0 -310.5 91.5t-220 268.5t-81.5 434q0 259 83.5 435t223 265t306.5 89q154 0 245.5 -65.5t130.5 -144.5h17v255q0 146 49 239t127 145t168.5 72t173.5 20q61 0 114.5 -5.5t87.5 -12.5v-302q-25 6 -50 8t-48 2
q-47 0 -102 -8.5t-93.5 -43.5t-38.5 -114v-1601zM481 768q0 -215 86.5 -347t257.5 -132q119 0 191.5 63.5t105 172.5t32.5 243q0 203 -75.5 338t-253.5 135q-172 0 -258 -129.5t-86 -343.5z" />
    <glyph glyph-name="dtopbar" unicode="&#x18c;" horiz-adv-x="1615" 
d="M1511 0h-383v182h-21q-39 -80 -132.5 -144.5t-246.5 -64.5q-172 0 -310 91.5t-219.5 268.5t-81.5 434q0 259 83.5 435t222.5 265t306 89q154 0 246.5 -65.5t131.5 -144.5h16v373h-818v329h1206v-2048zM486 768q0 -215 87 -347t258 -132q119 0 191 63.5t104.5 172.5
t32.5 243q0 203 -75.5 338t-252.5 135q-173 0 -259 -129.5t-86 -343.5z" />
    <glyph glyph-name="uni0221" unicode="&#x221;" horiz-adv-x="2236" 
d="M2141 -209q0 -170 -121 -276.5t-356 -106.5q-190 0 -301 67.5t-162 173.5l-230 -206l-177 235l353 304v188q-41 -76 -133.5 -136.5t-239.5 -60.5q-172 0 -310 91.5t-219.5 268.5t-81.5 434q0 259 83.5 435t223 265t306.5 89q153 0 245.5 -65.5t131.5 -144.5h16v702h388
v-1891q66 9 137 9q212 0 329.5 -102t117.5 -273zM532 768q0 -215 87 -347t258 -132q119 0 191 63.5t104.5 172.5t32.5 243q0 203 -75.5 338t-252.5 135q-172 0 -258.5 -129.5t-86.5 -343.5zM1524 -180q0 -70 36.5 -114.5t105.5 -44.5q56 0 96 30.5t40 91.5q0 55 -41 84
t-107 29t-130 -23v-53z" />
    <glyph glyph-name="dz" unicode="&#x2a3;" horiz-adv-x="2975" 
d="M1505 0h-383v182h-21q-39 -80 -132.5 -144.5t-245.5 -64.5q-172 0 -310.5 91.5t-220 268.5t-81.5 434q0 259 83.5 435t223 265t306.5 89q154 0 246 -65.5t131 -144.5h16v702h388v-2048zM2825 315v-315h-1234v241l732 980h-718v315h1203v-237l-731 -984h748zM481 768
q0 -215 86.5 -347t257.5 -132q119 0 191.5 63.5t105 172.5t32.5 243q0 203 -75.5 338t-253.5 135q-172 0 -258 -129.5t-86 -343.5z" />
    <glyph glyph-name="dzcaron" unicode="&#x1c6;" horiz-adv-x="2975" 
d="M1505 0h-383v182h-21q-39 -80 -132.5 -144.5t-245.5 -64.5q-172 0 -310.5 91.5t-220 268.5t-81.5 434q0 259 83.5 435t223 265t306.5 89q154 0 246 -65.5t131 -144.5h16v702h388v-2048zM2024 2048l215 -202l214 202h317v-13l-414 -387h-236l-416 387v13h320zM2825 315
v-315h-1234v241l732 980h-718v315h1203v-237l-731 -984h748zM481 768q0 -215 86.5 -347t257.5 -132q119 0 191.5 63.5t105 172.5t32.5 243q0 203 -75.5 338t-253.5 135q-172 0 -258 -129.5t-86 -343.5z" />
    <glyph glyph-name="dzcurl" unicode="&#x2a5;" horiz-adv-x="3329" 
d="M1505 0h-383v182h-21q-39 -80 -132.5 -144.5t-245.5 -64.5q-172 0 -310.5 91.5t-220 268.5t-81.5 434q0 259 83.5 435t223 265t306.5 89q154 0 246 -65.5t131 -144.5h16v702h388v-2048zM3282 478q0 -107 -57 -217.5t-180 -185.5t-321 -75h-313l-239 -335l-249 157
l123 178h-455v241l734 980h-720v315h1203v-237l-732 -984h191q133 183 237 299.5t200.5 172t203.5 55.5q102 0 187 -45.5t136 -127.5t51 -191zM481 768q0 -215 86.5 -347t257.5 -132q119 0 191.5 63.5t105 172.5t32.5 243q0 203 -75.5 338t-253.5 135q-172 0 -258 -129.5
t-86 -343.5zM2873 533q-55 0 -107 -52t-133 -166h111q121 0 171.5 43t50.5 100q0 35 -28 55t-65 20z" />
    <glyph glyph-name="dyogh" unicode="&#x2a4;" horiz-adv-x="2711" 
d="M1505 0h-383v182h-21q-39 -80 -132.5 -144.5t-245.5 -64.5q-172 0 -310.5 91.5t-220 268.5t-81.5 434q0 259 83.5 435t223 265t306.5 89q154 0 246 -65.5t131 -144.5h16v702h388v-512h1069l1 -255l-520 -662q269 -36 413 -199t144 -418q0 -191 -91.5 -325.5t-254 -205.5
t-373.5 -71q-171 0 -327.5 43t-270.5 152t-156 307h374q34 -83 123.5 -140.5t247.5 -57.5q166 0 259 89.5t93 228.5q0 160 -101 254t-293 94h-187v252l474 602h-624v-1224zM481 768q0 -215 86.5 -347t257.5 -132q119 0 191.5 63.5t105 172.5t32.5 243q0 203 -75.5 338
t-253.5 135q-172 0 -258 -129.5t-86 -343.5z" />
    <glyph glyph-name="e" unicode="e" horiz-adv-x="1639" 
d="M855 -29q-231 0 -397.5 94.5t-256.5 268.5t-90 414q0 234 86 416.5t249 287t393 104.5q195 0 350.5 -82t246 -246t90.5 -410v-163h-1040q19 -171 109.5 -268.5t256.5 -97.5q139 0 209 63.5t101 149.5l348 -94q-28 -106 -106.5 -206t-214 -165.5t-334.5 -65.5zM836 1241
q-134 0 -221 -84t-118 -235h661q0 136 -84.5 227.5t-237.5 91.5z" />
    <glyph glyph-name="edieresis" unicode="&#xeb;" horiz-adv-x="1637" 
d="M536 1726q-80 0 -132.5 51.5t-52.5 122.5q0 75 52.5 125.5t132.5 50.5q79 0 130.5 -50.5t51.5 -125.5q0 -71 -51.5 -122.5t-130.5 -51.5zM1106 1726q-79 0 -131.5 51.5t-52.5 122.5q0 75 52.5 125.5t131.5 50.5q80 0 131 -50.5t51 -125.5q0 -71 -51 -122.5t-131 -51.5z
M855 -29q-231 0 -397.5 94.5t-256.5 268.5t-90 414q0 234 86 416.5t249 287t393 104.5q195 0 350.5 -82t246 -246t90.5 -410v-163h-1040q19 -171 109.5 -268.5t256.5 -97.5q139 0 209 63.5t101 149.5l348 -94q-28 -106 -106.5 -206t-214 -165.5t-334.5 -65.5zM836 1241
q-134 0 -221 -84t-118 -235h661q0 136 -84.5 227.5t-237.5 91.5z" />
    <glyph glyph-name="uni0247" unicode="&#x247;" horiz-adv-x="1591" 
d="M855 -29q-106 0 -200 21l-195 -568h-232l221 646q-161 94 -249.5 267.5t-88.5 410.5q0 234 86 416.5t249 287t393 104.5q60 0 117 -8l171 500h232l-192 -562q162 -78 260.5 -245t98.5 -423v-163h-644l-123 -357q44 -9 93 -9q139 0 209 63.5t101 149.5l348 -94
q-28 -106 -106.5 -206t-214 -165.5t-334.5 -65.5zM836 1241q-134 0 -221 -84t-118 -235h244l109 319h-14zM1158 922q0 155 -101 243l-84 -243h185zM486 655q16 -147 83 -237l81 237h-164z" />
    <glyph glyph-name="f" unicode="f" horiz-adv-x="1073" 
d="M282 0v1248h-207v288h207v62q0 242 138.5 360t342.5 118q99 0 173 -15.5t111 -27.5l-74 -296q-26 8 -59.5 14.5t-72.5 6.5q-171 0 -171 -178v-44h303v-288h-303v-1248h-388z" />
    <glyph glyph-name="slongstroke" unicode="&#x1e9c;" horiz-adv-x="1041" 
d="M648 0h-377v740l-217 -72v272l217 72v606q0 244 147.5 373t383.5 129q52 0 98.5 -7t85.5 -18v-297q-24 4 -48 7t-66 3q-88 0 -156 -43.5t-68 -146.5v-482l231 76v-269l-231 -77v-866z" />
    <glyph glyph-name="slongdotaccent" unicode="&#x1e9b;" horiz-adv-x="982" 
d="M382 2516q0 80 53.5 133t145.5 53t146.5 -53t54.5 -133q0 -79 -54.5 -131t-146.5 -52t-145.5 52t-53.5 131zM542 0h-378v1618q0 244 146.5 373t384.5 129q53 0 99.5 -7t84.5 -18v-297q-24 4 -48 7t-66 3q-89 0 -156 -43.5t-67 -146.5v-1618z" />
    <glyph glyph-name="feng" unicode="&#x2a9;" horiz-adv-x="2437" 
d="M282 0v1248h-207v288h207v62q0 242 138.5 360t342.5 118q99 0 173 -15.5t111 -27.5l-74 -296q-26 8 -59.5 14.5t-72.5 6.5q-171 0 -171 -178v-44h649v-195h16q62 95 171.5 155t254.5 60q135 0 251 -59t187.5 -189t71.5 -343v-1031q0 -255 -142.5 -390.5t-372.5 -135.5
q-50 0 -100.5 3t-97.5 14l24 317q26 -5 53 -9t64 -4q84 0 133.5 47.5t49.5 157.5v1015q0 137 -73.5 212t-183.5 75q-130 0 -206 -106t-76 -285v-845h-388v1248h-285v-1248h-388z" />
    <glyph glyph-name="g" unicode="g" horiz-adv-x="1672" 
d="M1122 1531h383v-1489q0 -207 -93.5 -346.5t-256.5 -209.5t-371 -70q-219 0 -377 73t-223 156l190 254q64 -55 159 -108.5t241 -53.5q154 0 253 76.5t98 252.5v155h-22q-33 -61 -123.5 -126.5t-256.5 -65.5q-165 0 -304 81.5t-223.5 247.5t-84.5 421q0 253 83.5 426.5
t223 262t306.5 88.5q154 0 246 -65.5t131 -144.5h21v185zM481 780q0 -214 90.5 -327.5t253.5 -113.5q170 0 249.5 120.5t79.5 320.5q0 194 -78 327.5t-251 133.5q-172 0 -258 -129t-86 -332z" />
    <glyph glyph-name="ghook" unicode="&#x260;" horiz-adv-x="1769" 
d="M1727 1769q-84 0 -153 -33.5t-69 -128.5v-1565q0 -207 -93.5 -346.5t-256.5 -209.5t-371 -70q-219 0 -377 73t-223 156l190 254q64 -55 159 -108.5t241 -53.5q154 0 253 76.5t98 252.5v155h-22q-33 -61 -123.5 -126.5t-256.5 -65.5q-165 0 -304 81.5t-223.5 247.5
t-84.5 421q0 253 83.5 426.5t223 262t306.5 88.5q154 0 246 -65.5t131 -144.5h21v261q0 143 44.5 234.5t118 143t162 71.5t176.5 20q127 0 201 -15v-300q-21 3 -45.5 5.5t-51.5 2.5zM481 780q0 -214 90.5 -327.5t253.5 -113.5q170 0 249.5 120.5t79.5 320.5q0 194 -78 327.5
t-251 133.5q-172 0 -258 -129t-86 -332z" />
    <glyph glyph-name="gbar" unicode="&#x1e5;" horiz-adv-x="1737" 
d="M1122 1531h383v-625h219v-239h-219v-625q0 -207 -93.5 -346.5t-256.5 -209.5t-371 -70q-219 0 -377 73t-223 156l190 254q64 -55 159 -108.5t241 -53.5q154 0 253 76.5t98 252.5v155h-22q-33 -61 -123.5 -126.5t-256.5 -65.5q-165 0 -304 81.5t-223.5 247.5t-84.5 421
q0 253 83.5 426.5t223 262t306.5 88.5q154 0 246 -65.5t131 -144.5h21v185zM481 780q0 -214 90.5 -327.5t253.5 -113.5q145 0 223.5 88t98.5 240h-379v239h377q-21 147 -98.5 241t-221.5 94q-172 0 -258 -129t-86 -332z" />
    <glyph glyph-name="h" unicode="h" horiz-adv-x="1620" 
d="M555 852v-852h-388v2048h377v-693h16q64 87 169 144t247 57q210 0 343.5 -146t133.5 -445v-965h-389v968q0 123 -55 195.5t-169 72.5q-133 0 -209 -103.5t-76 -280.5z" />
    <glyph glyph-name="hcedilla" unicode="&#x1e29;" horiz-adv-x="1620" 
d="M266 0h-99v2048h377v-693h16q64 87 169 144t247 57q210 0 343.5 -146t133.5 -445v-965h-389v968q0 123 -55 195.5t-169 72.5q-133 0 -209 -103.5t-76 -280.5v-852h1l-16 -83q76 -12 140.5 -65.5t64.5 -170.5q0 -145 -120.5 -235t-353.5 -90l-11 224q68 0 113.5 25.5
t45.5 86.5q0 58 -46.5 80t-150.5 29z" />
    <glyph glyph-name="tshecyrillic" unicode="&#x45b;" horiz-adv-x="1595" 
d="M636 852v-852h-388v1679h-240v239h240v130h377v-130h339v-239h-339v-324h16q64 87 169 144t247 57q210 0 343.5 -146t133.5 -445v-965h-389v968q0 123 -55 195.5t-169 72.5q-133 0 -209 -103.5t-76 -280.5z" />
    <glyph glyph-name="djecyrillic" unicode="&#x452;" horiz-adv-x="1595" 
d="M634 852v-852h-388v1663h-249v238h249v147h377v-147h330v-238h-330v-308h16q63 87 168.5 144t246.5 57q210 0 343.5 -146t133.5 -445v-1031q0 -255 -136.5 -390.5t-363.5 -135.5q-50 0 -95.5 3t-92.5 14l11 303q29 -7 55.5 -10t63.5 -3q84 0 132.5 52.5t48.5 166.5v66
h-11v968q0 123 -55 195.5t-170 72.5q-133 0 -208.5 -103.5t-75.5 -280.5z" />
    <glyph glyph-name="hhook" unicode="&#x266;" horiz-adv-x="1620" 
d="M555 852v-852h-388v1607q0 191 73.5 292t186.5 139t230 38q126 0 201 -15v-300q-21 3 -46 5.5t-52 2.5q-83 0 -146.5 -33.5t-63.5 -128.5v-244h-6v-8h16q64 87 169 144t247 57q210 0 343.5 -146t133.5 -445v-965h-389v968q0 123 -55 195.5t-169 72.5q-133 0 -209 -103.5
t-76 -280.5z" />
    <glyph glyph-name="henghook" unicode="&#x267;" horiz-adv-x="1620" 
d="M555 852v-852h-388v1607q0 191 73.5 292t186.5 139t230 38q126 0 201 -15v-300q-21 3 -46 5.5t-52 2.5q-83 0 -146.5 -33.5t-63.5 -128.5v-244h-6v-8h16q64 87 169 144t247 57q210 0 343.5 -146t133.5 -445v-1072q0 -191 -75 -292t-189.5 -139t-231.5 -38q-126 0 -201 15
v300q21 -3 46 -5.5t52 -2.5q84 0 147 33.5t63 128.5v1075q0 123 -55 195.5t-169 72.5q-133 0 -209 -103.5t-76 -280.5z" />
    <glyph glyph-name="hv" unicode="&#x195;" horiz-adv-x="2497" 
d="M555 852v-852h-388v2048h377v-693h16q64 87 169 144t247 57q210 0 343.5 -144.5t133.5 -446.5v-365q0 -168 73.5 -235.5t169.5 -67.5t171 67.5t75 235.5v936h388v-936q0 -282 -167 -455t-467 -173t-466 173t-166 455v368q0 123 -55.5 195.5t-168.5 72.5
q-132 0 -208.5 -103.5t-76.5 -280.5z" />
    <glyph glyph-name="hturn" unicode="&#x265;" horiz-adv-x="1620" 
d="M1045 684v852h388v-2048h-377v693h-16q-64 -87 -169 -144t-247 -57q-210 0 -343.5 146t-133.5 445v965h389v-968q0 -123 55 -195.5t169 -72.5q133 0 209 103.5t76 280.5z" />
    <glyph glyph-name="hturnlthook" unicode="&#x2ae;" horiz-adv-x="1723" 
d="M1168 684v852h388v-2112h-377v757h-16q-64 -87 -169 -144t-247 -57q-209 0 -343 144.5t-134 446.5v516q0 95 -63 128.5t-147 33.5q-27 0 -52 -2.5t-46 -5.5v300q75 15 202 15q117 0 231 -38t189 -139t75 -292v-519q0 -123 55 -195.5t169 -72.5q133 0 209 103.5t76 280.5z
" />
    <glyph glyph-name="hturnhook2" unicode="&#x2af;" horiz-adv-x="1724" 
d="M1168 684v852h388v-1643q0 -95 63.5 -128.5t146.5 -33.5q28 0 52.5 2.5t45.5 5.5v-300q-74 -15 -201 -15q-117 0 -230 38t-186.5 139t-73.5 292v244h6v44h-16q-64 -87 -169 -144t-247 -57q-209 0 -343 144.5t-134 446.5v516q0 95 -63 128.5t-147 33.5q-27 0 -52 -2.5
t-46 -5.5v300q75 15 202 15q117 0 231 -38t189 -139t75 -292v-519q0 -123 55 -195.5t169 -72.5q133 0 209 103.5t76 280.5z" />
    <glyph glyph-name="dotlessi" unicode="&#x131;" horiz-adv-x="744" 
d="M566 1536v-1536h-388v1536h388z" />
    <glyph glyph-name="i" unicode="i" horiz-adv-x="744" 
d="M373 1664q-95 0 -159 60.5t-64 145.5q0 82 64 144t159 62t157 -62t62 -144q0 -85 -62 -145.5t-157 -60.5zM566 1536v-1536h-388v1536h388z" />
    <glyph glyph-name="idieresis" unicode="&#xef;" horiz-adv-x="829" 
d="M131 1726q-79 0 -132 51.5t-53 122.5q0 75 53 125.5t132 50.5t130.5 -50.5t51.5 -125.5q0 -71 -51.5 -122.5t-130.5 -51.5zM701 1726q-79 0 -131.5 51.5t-52.5 122.5q0 75 52.5 125.5t131.5 50.5t130.5 -50.5t51.5 -125.5q0 -71 -51.5 -122.5t-130.5 -51.5zM612 1536
v-1536h-388v1536h388z" />
    <glyph glyph-name="idieresisacute" unicode="&#x1e2f;" horiz-adv-x="935" 
d="M281 2096l270 424h427l-382 -424h-315zM-52 1859q0 73 53 123t135 50t135 -50t53 -123t-53 -122.5t-135 -49.5t-135 49.5t-53 122.5zM613 1858q0 73 52.5 123t135.5 50t135.5 -50t52.5 -123t-52.5 -122.5t-135.5 -49.5t-135.5 49.5t-52.5 122.5zM663 1536v-1536h-388
v1536h388z" />
    <glyph glyph-name="itilde" unicode="&#x129;" horiz-adv-x="925" 
d="M753 2116l226 -16q0 -152 -88.5 -258t-223.5 -106q-88 0 -144.5 30t-107.5 60t-123 30q-49 0 -82.5 -35t-33.5 -98l-230 10q0 99 40.5 182.5t111 134t160.5 50.5q74 0 133 -29.5l116.5 -58.5t125.5 -29q49 0 84.5 35t35.5 98zM659 1536v-1536h-388v1536h388z" />
    <glyph glyph-name="itildebelow" unicode="&#x1e2d;" horiz-adv-x="850" 
d="M422 1664q-94 0 -158.5 60.5t-64.5 145.5q0 82 64.5 144t158.5 62t156.5 -62t62.5 -144q0 -85 -62.5 -145.5t-156.5 -60.5zM615 1536v-1536h-388v1536h388zM716 -135l226 -16q0 -151 -88.5 -257.5t-223.5 -106.5q-88 0 -144.5 30t-107.5 60t-123 30q-49 0 -82.5 -35
t-33.5 -98l-230 10q0 100 40.5 183t111 133.5t160.5 50.5q73 0 132.5 -29l117 -58.5t125.5 -29.5q49 0 84.5 35t35.5 98z" />
    <glyph glyph-name="ibar" unicode="&#x268;" horiz-adv-x="1161" 
d="M611 1664q-95 0 -159 60.5t-64 145.5q0 82 64 144t159 62t157 -62t62 -144q0 -85 -62 -145.5t-157 -60.5zM1059 922v-239h-255v-683h-388v683h-313v239h313v614h388v-614h255z" />
    <glyph glyph-name="dotlessj" unicode="&#x237;" horiz-adv-x="858" 
d="M295 1536h388v-1604q0 -258 -152.5 -385t-398.5 -127h-130v315h79q127 0 170.5 56.5t43.5 145.5v1599z" />
    <glyph glyph-name="jdotlessbar" unicode="&#x25f;" horiz-adv-x="1000" 
d="M996 239v-239h-286v-68q0 -258 -152.5 -385t-398.5 -127h-130v315h79q127 0 170.5 56.5t43.5 145.5v63h-282v239h282v1297h388v-1297h286z" />
    <glyph glyph-name="uni0249" unicode="&#x249;" horiz-adv-x="1043" 
d="M541 1664q-95 0 -159 60.5t-64 145.5q0 82 64 144t159 62t157 -62t62 -144q0 -85 -62 -145.5t-157 -60.5zM1012 922v-239h-278v-751q0 -258 -152.5 -385t-398.5 -127h-130v315h79q127 0 170.5 56.5t43.5 145.5v746h-290v239h290v614h388v-614h278z" />
    <glyph glyph-name="j" unicode="j" horiz-adv-x="858" 
d="M490 1664q-94 0 -158.5 60.5t-64.5 145.5q0 82 64.5 144t158.5 62t156.5 -62t62.5 -144q0 -85 -62.5 -145.5t-156.5 -60.5zM295 1536h388v-1604q0 -258 -152.5 -385t-398.5 -127h-130v315h79q127 0 170.5 56.5t43.5 145.5v1599z" />
    <glyph glyph-name="jcrosstail" unicode="&#x29d;" horiz-adv-x="1379" 
d="M820 1664q-94 0 -158.5 60.5t-64.5 145.5q0 82 64.5 144t158.5 62t156.5 -62t62.5 -144q0 -85 -62.5 -145.5t-156.5 -60.5zM1363 167v-272h-350q-2 -136 -51 -246.5t-159 -175.5t-295 -65q-237 0 -356.5 108t-119.5 275q0 173 121 274.5t331 101.5h141v1369h388v-1369
h350zM501 -338q74 0 104.5 44t30.5 114v75h-119q-65 0 -106 -30t-41 -82q0 -59 39 -90t92 -31z" />
    <glyph glyph-name="k" unicode="k" horiz-adv-x="1560" 
d="M1121 0l-432 634l-134 -151v-483h-388v2048h388v-1079h23l477 567h455l-567 -655l604 -881h-426z" />
    <glyph glyph-name="khook" unicode="&#x199;" horiz-adv-x="1560" 
d="M1119 0l-415 602l-149 -170v-432h-388v1607q0 191 75.5 292t189.5 139t230 38q56 0 110 -4t92 -11v-300q-22 3 -46.5 5.5t-51.5 2.5q-84 0 -147.5 -33.5t-63.5 -128.5v-638h20l477 567h458l-568 -656l605 -880h-428z" />
    <glyph glyph-name="kturn" unicode="&#x29e;" horiz-adv-x="1560" 
d="M23 0l567 655l-604 881h426l432 -634l134 151v483h388v-2048h-388v1079h-23l-477 -567h-455z" />
    <glyph glyph-name="l" unicode="l" horiz-adv-x="722" 
d="M555 2048v-2048h-388v2048h388z" />
    <glyph glyph-name="lslash" unicode="&#x142;" horiz-adv-x="722" 
d="M743 1324v-225l-188 -63v-1036h-388v905l-193 -65v225l193 65v918h388v-787z" />
    <glyph glyph-name="lbar" unicode="&#x19a;" horiz-adv-x="1161" 
d="M1059 1247v-239h-272v-1008h-388v1008h-296v239h296v801h388v-801h272z" />
    <glyph glyph-name="lmidtilde" unicode="&#x26b;" horiz-adv-x="1197" 
d="M859 1338l226 -16q0 -152 -88.5 -258t-221.5 -106v-958h-388v1078q-45 -4 -75 -39t-30 -94l-230 10q0 99 40.5 182.5t111 134t160.5 50.5q12 0 23 -1v727h388v-838q36 11 60 44t24 84z" />
    <glyph glyph-name="lrthook" unicode="&#x26d;" horiz-adv-x="722" 
d="M555 2048v-2155q0 -95 63.5 -128.5t147.5 -33.5q27 0 51.5 2.5t46.5 5.5v-300q-75 -15 -202 -15q-118 0 -231.5 38t-188.5 139t-75 292v2155h388z" />
    <glyph glyph-name="lbelt" unicode="&#x26c;" horiz-adv-x="1618" 
d="M1472 770h-351v-770h-388v770h-152q-210 0 -325.5 104.5t-115.5 273.5q0 168 119.5 288t356.5 120q62 0 117 -9v501h388v-1004h351v-274zM615 1044h118v72q0 156 -123 156q-56 0 -92.5 -34t-36.5 -81q0 -44 34 -78.5t100 -34.5z" />
    <glyph glyph-name="lcurl" unicode="&#x234;" horiz-adv-x="1135" 
d="M555 2048v-1859q92 23 170 23q119 0 210 -51.5t142 -138.5t51 -193q0 -107 -53 -199t-150 -149t-231 -57q-140 0 -266 68t-196 196l-230 -207l-196 224l233 209q60 51 128 96v2038h388zM555 -141q0 -71 36.5 -115.5t105.5 -44.5q47 0 79 35.5t32 86.5q0 43 -32.5 78.5
t-90.5 35.5q-66 0 -130 -23v-53z" />
    <glyph glyph-name="m" unicode="m" horiz-adv-x="2428" 
d="M1406 956v-956h-379v974q0 140 -65.5 201t-165.5 61q-96 0 -168.5 -70t-72.5 -215v-951h-388v1536h380v-195h13q56 87 157 151t243 64q140 0 237 -63t146 -169h16q53 94 167.5 163t268.5 69q129 0 234.5 -57.5t168.5 -185.5t63 -339v-974h-388v977q0 147 -70.5 203
t-155.5 56q-113 0 -177 -71.5t-64 -208.5z" />
    <glyph glyph-name="mhook" unicode="&#x271;" horiz-adv-x="2428" 
d="M1406 956v-956h-379v974q0 140 -65.5 201t-165.5 61q-96 0 -168.5 -70t-72.5 -215v-951h-388v1536h380v-195h13q56 87 157 151t243 64q140 0 237 -63t146 -169h16q53 94 167.5 163t268.5 69q129 0 234.5 -57.5t168.5 -185.5t63 -339v-1081q0 -191 -75 -292t-188.5 -139
t-231.5 -38q-126 0 -201 15v300q21 -3 46 -5.5t52 -2.5q83 0 146.5 33.5t63.5 128.5v1084q0 147 -70.5 203t-155.5 56q-113 0 -177 -71.5t-64 -208.5z" />
    <glyph glyph-name="mturn" unicode="&#x26f;" horiz-adv-x="2428" 
d="M996 580v956h379v-974q0 -140 65.5 -201t165.5 -61q96 0 168.5 70t72.5 215v951h388v-1536h-380v195h-13q-56 -87 -157 -151t-243 -64q-140 0 -237 63t-146 169h-16q-53 -94 -167.5 -163t-268.5 -69q-129 0 -235 57.5t-168.5 185.5t-62.5 339v974h388v-977
q0 -147 70.5 -203t155.5 -56q113 0 177 71.5t64 208.5z" />
    <glyph glyph-name="mturndescend" unicode="&#x270;" horiz-adv-x="2428" 
d="M996 580v956h379v-974q0 -140 65.5 -201t165.5 -61q96 0 168 70t72 215v951h389v-1512h26v-600h-380v576h-27v195h-13q-55 -87 -156 -151t-244 -64q-139 0 -236 63t-146 169h-16q-53 -94 -167.5 -163t-268.5 -69q-130 0 -235.5 57.5t-168.5 185.5t-63 339v974h388v-977
q0 -147 71 -203t156 -56q113 0 177 71.5t64 208.5z" />
    <glyph glyph-name="n" unicode="n" horiz-adv-x="1650" 
d="M555 845v-845h-388v1536h364v-195h16q62 95 171.5 155t254.5 60q135 0 251 -59t187.5 -189t71.5 -343v-965h-389v949q0 137 -73.5 212t-183.5 75q-130 0 -206 -106t-76 -285z" />
    <glyph glyph-name="ntilde" unicode="&#xf1;" horiz-adv-x="1650" 
d="M1085 2116l226 -16q0 -152 -88.5 -258t-223.5 -106q-88 0 -144.5 30t-107.5 60t-123 30q-49 0 -82.5 -35t-33.5 -98l-230 10q0 99 40.5 182.5t111 134t160.5 50.5q74 0 133 -29.5l116.5 -58.5t125.5 -29q49 0 84.5 35t35.5 98zM555 845v-845h-388v1536h364v-195h16
q62 95 171.5 155t254.5 60q135 0 251 -59t187.5 -189t71.5 -343v-965h-389v949q0 137 -73.5 212t-183.5 75q-130 0 -206 -106t-76 -285z" />
    <glyph glyph-name="nrthook" unicode="&#x273;" horiz-adv-x="1731" 
d="M555 845v-845h-388v1536h364v-195h16q62 95 171.5 155t254.5 60q135 0 251 -59t187.5 -189t71.5 -343v-1072q0 -95 63 -128.5t147 -33.5q27 0 52 2.5t46 5.5v-300q-75 -15 -202 -15q-117 0 -231 38t-189 139t-75 292v1056q0 137 -73.5 212t-183.5 75q-130 0 -206 -106
t-76 -285z" />
    <glyph glyph-name="eng" unicode="&#x14b;" horiz-adv-x="1650" 
d="M555 845v-845h-388v1536h364v-195h16q62 95 171.5 155t254.5 60q135 0 251 -59t187.5 -189t71.5 -343v-1031q0 -255 -142.5 -390.5t-372.5 -135.5q-50 0 -100.5 3t-97.5 14l24 317q26 -5 53 -9t64 -4q84 0 133.5 47.5t49.5 157.5v1015q0 137 -73.5 212t-183.5 75
q-130 0 -206 -106t-76 -285z" />
    <glyph glyph-name="ncurl" unicode="&#x235;" horiz-adv-x="2077" 
d="M555 845v-845h-388v1536h364v-195h16q62 95 171.5 155t254.5 60q135 0 251 -59t187.5 -189t71.5 -343v-702q91 23 169 23q120 0 211 -51.5t142 -138.5t51 -193q0 -107 -53 -199t-150 -149t-231 -57q-140 0 -266 68.5t-196 195.5l-231 -206l-196 224l233 208q60 51 128 96
v865q0 137 -73.5 212t-183.5 75q-130 0 -206 -106t-76 -285zM1483 -67q0 -71 36 -115.5t105 -44.5q48 0 79.5 35.5t31.5 86.5q0 43 -32.5 78.5t-90.5 35.5q-65 0 -129 -22v-54z" />
    <glyph glyph-name="nlfthook" unicode="&#x272;" horiz-adv-x="1731" 
d="M637 845v-952q0 -191 -75 -292t-188.5 -139t-231.5 -38q-127 0 -202 15v300q22 -3 46.5 -5.5t51.5 -2.5q84 0 147.5 33.5t63.5 128.5v1643h363v-195h16q62 95 172 155t255 60q135 0 251 -59t187 -189t71 -343v-965h-388v949q0 137 -73.5 212t-183.5 75
q-131 0 -206.5 -106t-75.5 -285z" />
    <glyph glyph-name="o" unicode="o" horiz-adv-x="1653" 
d="M826 -29q-220 0 -380.5 101t-247.5 280.5t-87 412.5q0 235 87 413t247.5 278t380.5 100t380.5 -100t247.5 -278t87 -413q0 -233 -87 -412.5t-247.5 -280.5t-380.5 -101zM826 289q182 0 262.5 136t80.5 340q0 205 -80.5 340.5t-262.5 135.5t-262.5 -135.5t-80.5 -340.5
q0 -204 80.5 -340t262.5 -136z" />
    <glyph glyph-name="odieresis" unicode="&#xf6;" horiz-adv-x="1653" 
d="M543 1726q-79 0 -132 51.5t-53 122.5q0 75 53 125.5t132 50.5t130.5 -50.5t51.5 -125.5q0 -71 -51.5 -122.5t-130.5 -51.5zM1113 1726q-79 0 -131.5 51.5t-52.5 122.5q0 75 52.5 125.5t131.5 50.5t130.5 -50.5t51.5 -125.5q0 -71 -51.5 -122.5t-130.5 -51.5zM826 -29
q-220 0 -380.5 101t-247.5 280.5t-87 412.5q0 235 87 413t247.5 278t380.5 100t380.5 -100t247.5 -278t87 -413q0 -233 -87 -412.5t-247.5 -280.5t-380.5 -101zM826 289q182 0 262.5 136t80.5 340q0 205 -80.5 340.5t-262.5 135.5t-262.5 -135.5t-80.5 -340.5
q0 -204 80.5 -340t262.5 -136z" />
    <glyph glyph-name="otilde" unicode="&#xf5;" horiz-adv-x="1653" 
d="M1117 2116l226 -16q0 -152 -88.5 -258t-223.5 -106q-88 0 -144.5 30t-107.5 60t-123 30q-49 0 -82.5 -35t-33.5 -98l-230 10q0 99 40.5 182.5t111 134t160.5 50.5q74 0 133 -29.5l116.5 -58.5t125.5 -29q49 0 84.5 35t35.5 98zM826 -29q-220 0 -380.5 101t-247.5 280.5
t-87 412.5q0 235 87 413t247.5 278t380.5 100t380.5 -100t247.5 -278t87 -413q0 -233 -87 -412.5t-247.5 -280.5t-380.5 -101zM826 289q182 0 262.5 136t80.5 340q0 205 -80.5 340.5t-262.5 135.5t-262.5 -135.5t-80.5 -340.5q0 -204 80.5 -340t262.5 -136z" />
    <glyph glyph-name="oslash" unicode="&#xf8;" horiz-adv-x="1653" 
d="M380 -95l-185 126l109 161q-193 218 -193 573q0 235 87 413t247.5 278t380.5 100q193 0 345 -80l96 143l185 -126l-104 -155q193 -216 193 -573q0 -233 -87 -412.5t-247.5 -280.5t-380.5 -101q-193 0 -346 82zM483 765q0 -146 38 -252l465 690q-68 38 -160 38
q-182 0 -262.5 -135.5t-80.5 -340.5zM826 289q182 0 262.5 136t80.5 340q0 147 -38 253l-466 -690q69 -39 161 -39z" />
    <glyph glyph-name="ohorn" unicode="&#x1a1;" horiz-adv-x="1727" 
d="M826 -29q-220 0 -380.5 101t-247.5 280.5t-87 412.5q0 235 87 413t247.5 278t380.5 100q177 0 316.5 -66t232.5 -184q63 40 84 123.5t21 200.5h242q0 -181 -60 -306t-192 -180q71 -168 71 -379q0 -233 -87 -412.5t-247.5 -280.5t-380.5 -101zM826 289q182 0 262.5 136
t80.5 340q0 205 -80.5 340.5t-262.5 135.5t-262.5 -135.5t-80.5 -340.5q0 -204 80.5 -340t262.5 -136z" />
    <glyph glyph-name="fitacyrillic" unicode="&#x473;" horiz-adv-x="1653" 
d="M826 -29q-220 0 -380.5 101t-247.5 280.5t-87 412.5q0 235 87 413t247.5 278t380.5 100t380.5 -100t247.5 -278t87 -413q0 -233 -87 -412.5t-247.5 -280.5t-380.5 -101zM826 1241q-152 0 -233 -97.5t-102 -253.5h670q-21 156 -101.5 253.5t-233.5 97.5zM826 289
q153 0 233.5 98t101.5 253h-670q21 -155 102 -253t233 -98z" />
    <glyph glyph-name="oe" unicode="&#x153;" horiz-adv-x="2693" 
d="M826 -29q-220 0 -380.5 101t-247.5 280.5t-87 412.5q0 235 87 413t247.5 278t380.5 100q170 0 305 -60.5t228 -169.5q93 108 229 169t309 61q195 0 350.5 -82t246 -246t90.5 -410v-163h-1040q19 -171 109.5 -268.5t256.5 -97.5q139 0 209 63.5t101 149.5l348 -94
q-28 -106 -106.5 -206t-214 -165.5t-334.5 -65.5q-180 0 -322 58.5t-239 167.5q-93 -107 -226 -166.5t-300 -59.5zM826 289q182 0 262.5 136t80.5 340q0 205 -80.5 340.5t-262.5 135.5t-262.5 -135.5t-80.5 -340.5q0 -204 80.5 -340t262.5 -136zM1894 1241q-134 0 -221 -84
t-118 -235h661q0 136 -84.5 227.5t-237.5 91.5z" />
    <glyph glyph-name="p" unicode="p" horiz-adv-x="1672" 
d="M167 -576v2112h383v-190h23q39 79 130.5 144.5t245.5 65.5q167 0 306 -89t222.5 -265t83.5 -435q0 -257 -81.5 -434t-219.5 -268.5t-310 -91.5q-153 0 -245.5 64.5t-131.5 144.5h-18v-758h-388zM1192 768q0 214 -86.5 343.5t-258.5 129.5q-177 0 -252.5 -135t-75.5 -338
q0 -134 32.5 -243t104.5 -172.5t191 -63.5q171 0 258 132t87 347z" />
    <glyph glyph-name="uni048F" unicode="&#x48f;" horiz-adv-x="1789" 
d="M167 -576v2112h383v-190h23q39 79 130.5 144.5t245.5 65.5q167 0 306 -89t222.5 -265t83.5 -435q0 -200 -50.5 -351.5t-138.5 -252.5l132 -159l-146 -125l-135 163q-124 -69 -273 -69q-153 0 -245.5 64.5t-131.5 144.5h-18v-758h-388zM981 631l146 -175q65 122 65 312
q0 214 -86.5 343.5t-258.5 129.5q-177 0 -252.5 -135t-75.5 -338q0 -134 32.5 -243t104.5 -172.5t191 -63.5q80 0 144 31l-154 186z" />
    <glyph glyph-name="phook" unicode="&#x1a5;" horiz-adv-x="1672" 
d="M167 -576v2112v0q3 164 73 250t178.5 117.5t224.5 31.5q69 0 118.5 -7t83.5 -16v-281q-17 5 -51.5 12t-73.5 7q-67 0 -110.5 -26.5t-59.5 -87.5v0v-190h23q39 79 130.5 144.5t245.5 65.5q167 0 306 -89t222.5 -265t83.5 -435q0 -257 -81.5 -434t-219.5 -268.5t-310 -91.5
q-153 0 -245.5 64.5t-131.5 144.5h-18v-758h-388zM1192 768q0 214 -86.5 343.5t-258.5 129.5q-177 0 -252.5 -135t-75.5 -338q0 -134 32.5 -243t104.5 -172.5t191 -63.5q171 0 258 132t87 347z" />
    <glyph glyph-name="q" unicode="q" horiz-adv-x="1672" 
d="M1505 1536v-2112h-388v758h-16q-39 -80 -132.5 -144.5t-245.5 -64.5q-172 0 -310.5 91.5t-220 268.5t-81.5 434q0 259 83.5 435t223 265t306.5 89q154 0 246 -65.5t131 -144.5h21v190h383zM481 768q0 -215 86.5 -347t257.5 -132q119 0 191.5 63.5t105 172.5t32.5 243
q0 203 -75.5 338t-253.5 135q-172 0 -258 -129.5t-86 -343.5z" />
    <glyph glyph-name="qhook" unicode="&#x2a0;" horiz-adv-x="1773" 
d="M1716 1590q-84 0 -147.5 -33t-63.5 -129v-2004h-388v758h-16q-39 -80 -132.5 -144.5t-245.5 -64.5q-172 0 -310.5 91.5t-220 268.5t-81.5 434q0 259 83.5 435t223 265t306.5 89q154 0 246 -65.5t131 -144.5h19v95q0 28 2 54v41h4q21 145 97 223t180 108t209 30
q124 0 202 -14v-301q-22 3 -46.5 5.5t-51.5 2.5zM481 768q0 -215 86.5 -347t257.5 -132q119 0 191.5 63.5t105 172.5t32.5 243q0 203 -75.5 338t-253.5 135q-172 0 -258 -129.5t-86 -343.5z" />
    <glyph glyph-name="qrthook" unicode="&#x24b;" horiz-adv-x="1754" 
d="M1505 1536v-1643q0 -95 63.5 -128.5t147.5 -33.5q27 0 51.5 2.5t46.5 5.5v-300q-75 -15 -202 -15q-118 0 -231.5 38t-188.5 139t-75 292v289h-16q-39 -80 -132.5 -144.5t-245.5 -64.5q-172 0 -310.5 91.5t-220 268.5t-81.5 434q0 259 83.5 435t223 265t306.5 89
q154 0 246 -65.5t131 -144.5h21v190h383zM481 768q0 -215 86.5 -347t257.5 -132q119 0 191.5 63.5t105 172.5t32.5 243q0 203 -75.5 338t-253.5 135q-172 0 -258 -129.5t-86 -343.5z" />
    <glyph glyph-name="Q_rthook" unicode="&#x24a;" horiz-adv-x="2215" 
d="M1966 2051v-2158q0 -95 63.5 -128.5t147.5 -33.5q27 0 51.5 2.5t46.5 5.5v-300q-75 -15 -202 -15q-117 0 -231 38t-189 139t-75 292v298h-16q-80 -110 -215 -165t-303 -55q-284 0 -487 134t-311 372.5t-108 549.5q0 304 109.5 541t311.5 372.5t479 135.5q167 0 306.5 -56
t214.5 -163h22v194h385zM520 1025q0 -205 58 -362t176.5 -245.5t300.5 -88.5q145 0 243.5 53t157 135.5t81.5 170.5q16 80 28 180.5t12 162.5q0 56 -7.5 139.5t-28.5 160.5q-16 54 -48.5 121.5t-89.5 130.5t-144.5 103.5t-213.5 40.5q-179 0 -295.5 -94t-173 -253
t-56.5 -355z" />
    <glyph glyph-name="r" unicode="r" horiz-adv-x="1161" 
d="M1132 1507l-121 -337q-16 9 -56 20.5t-87 11.5q-92 0 -162 -47.5t-110 -123t-41 -160.5v-871h-388v1536h380v-218h22q33 117 136 178t215 61q60 0 118 -14.5t94 -35.5z" />
    <glyph glyph-name="rrthook" unicode="&#x27d;" horiz-adv-x="1240" 
d="M1173 1507l-121 -337q-16 9 -56 20.5t-87 11.5q-92 0 -162.5 -47.5t-110.5 -123t-40 -160.5v-978q0 -95 63.5 -128.5t147.5 -33.5q27 0 51.5 2.5t45.5 5.5v-300q-74 -15 -201 -15q-117 0 -231 38t-189 139t-75 292v1643h380v-218h21q33 117 136 178t216 61
q60 0 118 -14.5t94 -35.5z" />
    <glyph glyph-name="uni024D" unicode="&#x24d;" horiz-adv-x="1258" 
d="M966 839v-239h-276v-600h-388v600h-292v239h292v697h380v-218h22q33 117 135.5 178t215.5 61q60 0 118 -14.5t94 -35.5l-121 -337q-16 9 -56 20.5t-87 11.5q-92 0 -162 -47.5t-110 -123t-41 -160.5v-32h276z" />
    <glyph glyph-name="rturn" unicode="&#x279;" horiz-adv-x="1064" 
d="M-95 29l121 337q16 -9 56 -20.5t87 -11.5q92 0 162 47.5t110 123t41 160.5v871h388v-1536h-380v218h-22q-33 -117 -135.5 -178t-215.5 -61q-60 0 -118 14.5t-94 35.5z" />
    <glyph glyph-name="rturnrthook" unicode="&#x27b;" horiz-adv-x="1249" 
d="M-55 -19l121 337q16 -9 56 -20.5t87 -11.5q92 0 162.5 47.5t110.5 123t40 160.5v871h388v-1179h19v-444q0 -114 73 -154t157 -40q46 0 100 8v-260q-41 -9 -90.5 -14t-113.5 -5q-87 0 -175.5 19t-163 69.5t-119.5 141.5t-45 235v87h-22v218h-21q-33 -117 -136 -178
t-215 -61q-60 0 -118.5 14.5t-94.5 35.5z" />
    <glyph glyph-name="rfishhookrev" unicode="&#x27f;" horiz-adv-x="988" 
d="M829 -573h-377v1632q0 75 -36.5 116t-91.5 57.5t-111 16.5q-24 0 -48.5 -2.5t-48.5 -5.5v268q41 9 90.5 14.5t110.5 5.5q88 0 178 -19.5t166 -69.5t122 -141t46 -235v-1637z" />
    <glyph glyph-name="rfishhook" unicode="&#x27e;" horiz-adv-x="993" 
d="M536 0h-377v1064q0 144 46 235t122 141t166 69.5t178 19.5q61 0 112 -5.5t92 -14.5v-268l-49.5 5.5t-47.5 2.5q-58 0 -113.5 -16.5t-92 -57.5t-36.5 -116v-1059z" />
    <glyph glyph-name="rdescend" unicode="&#x27c;" horiz-adv-x="1064" 
d="M167 -576v2112h380v-218h22q33 117 136 178t215 61q60 0 118 -14.5t94 -35.5l-121 -337q-16 9 -56 20.5t-87 11.5q-92 0 -162 -47.5t-110 -123t-41 -160.5v-1447h-388z" />
    <glyph glyph-name="s" unicode="s" horiz-adv-x="1523" 
d="M1390 1119l-353 -36q-15 76 -83.5 129.5t-180.5 53.5q-98 0 -172.5 -44.5t-74.5 -119.5q0 -65 56 -103.5t142 -57.5l285 -61q177 -39 294.5 -134.5t117.5 -280.5q0 -159 -89.5 -269t-242.5 -167.5t-344 -57.5q-289 0 -451.5 123.5t-207.5 340.5l371 42
q28 -105 110 -161.5t195 -56.5q112 0 186.5 47.5t74.5 114.5q0 79 -56.5 110t-130.5 48l-270 61q-185 44 -305 148.5t-120 288.5q0 223 179 351t469 128q270 0 416.5 -114t184.5 -323z" />
    <glyph glyph-name="srthook" unicode="&#x282;" horiz-adv-x="1533" 
d="M108 476h348v-2l23 3q28 -105 109.5 -161.5t195.5 -56.5q112 0 186.5 47.5t74.5 114.5q0 79 -57 110t-130 48l-270 61q-185 44 -305.5 148.5t-120.5 288.5q0 223 179.5 351t469.5 128q270 0 416.5 -114t184.5 -323l-353 -36q-15 76 -84 129.5t-181 53.5q-98 0 -172 -44.5
t-74 -119.5q0 -65 56 -103.5t141 -57.5l286 -61q177 -39 294.5 -134.5t117.5 -280.5q0 -159 -89.5 -269.5t-242.5 -167.5t-345 -57q-177 0 -310 49v-91q0 -116 45 -152t128 -36q47 0 101 8v-267q-44 -10 -85 -14t-84 -4q-203 0 -328 120t-125 345v547z" />
    <glyph glyph-name="uni023F" unicode="&#x23f;" horiz-adv-x="1430" 
d="M1390 1119l-353 -36q-15 76 -83.5 129.5t-180.5 53.5q-98 0 -172.5 -44.5t-74.5 -119.5q0 -65 56 -103.5t142 -57.5l285 -61q177 -39 294.5 -134.5t117.5 -280.5q0 -159 -89.5 -269t-242.5 -167.5t-344 -57.5q-63 0 -120 6q85 -157 134 -208t112 -51q65 0 122 33t97 70
l130 -226q-67 -59 -159.5 -115t-212.5 -56q-116 0 -201.5 51.5t-151 136t-122.5 184.5l-261 460l28 20q-36 72 -54 159l371 42q28 -105 110 -161.5t195 -56.5q112 0 186.5 47.5t74.5 114.5q0 79 -56.5 110t-130.5 48l-270 61q-185 44 -305 148.5t-120 288.5q0 223 179 351
t469 128q270 0 416.5 -114t184.5 -323z" />
    <glyph glyph-name="germandbls" unicode="&#xdf;" horiz-adv-x="1735" 
d="M544 1467v-1467h-377v1467q0 312 164 470.5t442 158.5q166 0 302 -56.5t217 -169t81 -281.5q0 -89 -20.5 -151.5t-47 -112.5t-47 -99t-20.5 -109q0 -64 41 -111.5t101 -92.5t120 -100t101 -133.5t41 -193.5q0 -141 -66.5 -258t-201 -186.5t-340.5 -69.5q-118 0 -225 24.5
t-165 60.5l101 294q41 -19 112 -43.5t168 -24.5q118 0 180.5 55.5t62.5 142.5q0 81 -42.5 135.5t-105.5 99l-126 93.5t-105.5 118t-42.5 174q0 79 23.5 139t54.5 111.5t54.5 105t23.5 119.5q0 96 -67 146t-162 50q-106 0 -167.5 -70t-61.5 -235z" />
    <glyph glyph-name="t" unicode="t" horiz-adv-x="1033" 
d="M914 1536v-288h-268v-778q0 -107 45.5 -135.5t109.5 -28.5q54 0 99 12l61 -299q-22 -9 -91.5 -24t-176.5 -15q-117 0 -216 51.5t-159 148t-60 231.5v837h-191v288h191v328h388v-328h268z" />
    <glyph glyph-name="tpalatalhook" unicode="&#x1ab;" horiz-adv-x="1035" 
d="M914 1536v-288h-268v-778q0 -107 45.5 -135.5t109.5 -28.5q20 0 40 2l120 25v-440q0 -224 -121.5 -345t-324.5 -121q-44 0 -84.5 3t-83.5 14v265q25 -3 49 -5.5t51 -2.5q84 0 158 38.5t74 153.5v87q-114 3 -209.5 55.5t-153.5 148t-58 227.5v837h-191v288h191v328h388
v-328h268z" />
    <glyph glyph-name="trthook" unicode="&#x288;" horiz-adv-x="1206" 
d="M991 1536v-288h-274v-1383q0 -76 36.5 -117t92 -57t111.5 -16q23 0 48 1.5t50 6.5v-264q-41 -9 -91 -14t-111 -5q-89 0 -179 19t-165 69.5t-121 141.5t-46 235v1383h-210v288h210v319h375v-319h274z" />
    <glyph glyph-name="tcurl" unicode="&#x236;" horiz-adv-x="1314" 
d="M975 1536v-288h-268v-515q92 23 170 23q119 0 211 -51.5t143.5 -138.5t51.5 -193q0 -107 -53.5 -199t-151.5 -149t-232 -57q-140 0 -266 68t-196 196l-231 -207l-195 224l233 209q60 51 128 96v694h-207v288h207v328h388v-328h268zM707 403q0 -71 36.5 -115.5
t105.5 -44.5q47 0 80.5 35.5t33.5 86.5q0 43 -34 78.5t-92 35.5q-66 0 -130 -23v-53z" />
    <glyph glyph-name="tccurl" unicode="&#x2a8;" horiz-adv-x="2273" 
d="M888 1536v-288h-226v-787q0 -97 35 -133.5t96 -36.5q36 0 75.5 16.5t83.5 44.5q-73 166 -73 379v39q0 209 74 388t225.5 288.5t382.5 109.5q183 0 321 -71t216 -201t81 -306h-361q-3 106 -68.5 186t-193.5 80q-120 0 -185.5 -71t-91 -180t-25.5 -223v-39q0 -77 9 -140
q117 88 250 156.5t281 68.5q184 0 284.5 -107.5t100.5 -253.5q0 -125 -72.5 -235t-210.5 -179t-332 -69q-136 0 -244 37t-190 103q-94 -60 -201 -100t-229 -40q-178 0 -295 116t-117 373v787h-216v288h216v325h374v-325h226zM1591 286q86 0 159 37.5t73 107.5
q0 47 -28.5 67.5t-69.5 20.5q-69 0 -147 -55.5t-168 -133.5q73 -44 181 -44z" />
    <glyph glyph-name="tturn" unicode="&#x287;" horiz-adv-x="1041" 
d="M100 224v288h268v778q0 107 -45.5 135.5t-109.5 28.5q-54 0 -99 -12l-61 299q22 9 91.5 24t176.5 15q117 0 216 -51.5t159 -148t60 -231.5v-837h191v-288h-191v-328h-388v328h-268z" />
    <glyph glyph-name="u" unicode="u" horiz-adv-x="1650" 
d="M1094 684v852h389v-1536h-364v181h-16q-63 -85 -172 -143t-254 -58q-125 0 -242 58t-192.5 188t-75.5 345v965h388v-954q0 -137 73.5 -209.5t183.5 -72.5q130 0 206 102.5t76 281.5z" />
    <glyph glyph-name="udieresis" unicode="&#xfc;" horiz-adv-x="1650" 
d="M540 1726q-80 0 -132.5 51.5t-52.5 122.5q0 75 52.5 125.5t132.5 50.5q79 0 130.5 -50.5t51.5 -125.5q0 -71 -51.5 -122.5t-130.5 -51.5zM1110 1726q-79 0 -131.5 51.5t-52.5 122.5q0 75 52.5 125.5t131.5 50.5q80 0 131 -50.5t51 -125.5q0 -71 -51 -122.5t-131 -51.5z
M1094 684v852h389v-1536h-364v181h-16q-63 -85 -172 -143t-254 -58q-125 0 -242 58t-192.5 188t-75.5 345v965h388v-954q0 -137 73.5 -209.5t183.5 -72.5q130 0 206 102.5t76 281.5z" />
    <glyph glyph-name="utilde" unicode="&#x169;" horiz-adv-x="1650" 
d="M1098 2116l226 -16q0 -152 -88.5 -258t-223.5 -106q-88 0 -144.5 30t-107.5 60t-123 30q-49 0 -82.5 -35t-33.5 -98l-230 10q0 99 40.5 182.5t111 134t160.5 50.5q73 0 132.5 -29.5l117 -58.5t125.5 -29q49 0 84.5 35t35.5 98zM1094 684v852h389v-1536h-364v181h-16
q-63 -85 -172 -143t-254 -58q-125 0 -242 58t-192.5 188t-75.5 345v965h388v-954q0 -137 73.5 -209.5t183.5 -72.5q130 0 206 102.5t76 281.5z" />
    <glyph glyph-name="uhorn" unicode="&#x1b0;" horiz-adv-x="1842" 
d="M1094 684v852h389v-226q88 30 109.5 106.5t21.5 201.5h235q0 -217 -79.5 -343.5t-286.5 -159.5v-1115h-364v181h-16q-63 -85 -172 -143t-254 -58q-125 0 -242 58t-192.5 188t-75.5 345v965h388v-954q0 -137 73.5 -209.5t183.5 -72.5q130 0 206 102.5t76 281.5z" />
    <glyph glyph-name="mu" unicode="&#xb5;" horiz-adv-x="1655" 
d="M1114 692v844h374v-1536h-346l-9 111q-127 -139 -321 -139q-73 0 -141.5 27.5t-126.5 89.5v-661h-377v2108h377v-849q0 -209 77.5 -300t199.5 -91q145 0 219 107t74 289z" />
    <glyph glyph-name="ubar" unicode="&#x289;" horiz-adv-x="1966" 
d="M1897 942v-244h-243v-698h-363v181h-16q-64 -85 -172.5 -143t-254.5 -58q-124 0 -241 58t-192.5 188t-75.5 345v127h-270v244h270v594h388v-594h539v594h388v-594h243zM1266 684v14h-539v-116q0 -137 73.5 -209.5t183.5 -72.5q130 0 206 102.5t76 281.5z" />
    <glyph glyph-name="v" unicode="v" horiz-adv-x="1636" 
d="M1567 1536l-565 -1536h-371l-562 1536h403l339 -1042h16l337 1042h403z" />
    <glyph glyph-name="vturn" unicode="&#x28c;" horiz-adv-x="1568" 
d="M-26 0l565 1536h371l562 -1536h-403l-339 1042h-16l-337 -1042h-403z" />
    <glyph glyph-name="w" unicode="w" horiz-adv-x="2231" 
d="M2135 1536l-406 -1536h-327l-276 957h-24l-273 -957h-328l-405 1536h379l209 -1002h19l265 1002h293l264 -995h19l212 995h379z" />
    <glyph glyph-name="wdieresis" unicode="&#x1e85;" horiz-adv-x="2231" 
d="M833 1726q-79 0 -132 51.5t-53 122.5q0 75 53 125.5t132 50.5t130.5 -50.5t51.5 -125.5q0 -71 -51.5 -122.5t-130.5 -51.5zM1403 1726q-79 0 -131.5 51.5t-52.5 122.5q0 75 52.5 125.5t131.5 50.5t130.5 -50.5t51.5 -125.5q0 -71 -51.5 -122.5t-130.5 -51.5zM2135 1536
l-406 -1536h-327l-276 957h-24l-273 -957h-328l-405 1536h379l209 -1002h19l265 1002h293l264 -995h19l212 995h379z" />
    <glyph glyph-name="wturn" unicode="&#x28d;" horiz-adv-x="2231" 
d="M69 0l406 1536h327l276 -957h24l273 957h328l405 -1536h-379l-209 1002h-19l-265 -1002h-293l-264 995h-19l-212 -995h-379z" />
    <glyph glyph-name="x" unicode="x" horiz-adv-x="1553" 
d="M509 1536l267 -500l273 500h403l-434 -768l445 -768h-403l-284 487l-281 -487h-405l442 768l-428 768h405z" />
    <glyph glyph-name="y" unicode="y" horiz-adv-x="1636" 
d="M598 -65l29 77l-558 1524h403l338 -1012h17l337 1012h403l-649 -1765q-33 -89 -97 -174.5t-166 -140.5t-249 -55q-64 0 -116 11t-97 28l88 306q142 -40 203.5 6t113.5 183z" />
    <glyph glyph-name="ydieresis" unicode="&#xff;" horiz-adv-x="1553" 
d="M493 1726q-79 0 -132 51.5t-53 122.5q0 75 53 125.5t132 50.5t130.5 -50.5t51.5 -125.5q0 -71 -51.5 -122.5t-130.5 -51.5zM1063 1726q-79 0 -131.5 51.5t-52.5 122.5q0 75 52.5 125.5t131.5 50.5t130.5 -50.5t51.5 -125.5q0 -71 -51.5 -122.5t-130.5 -51.5zM598 -65
l29 77l-558 1524h403l338 -1012h17l337 1012h403l-649 -1765q-33 -89 -97 -174.5t-166 -140.5t-249 -55q-64 0 -116 11t-97 28l88 306q142 -40 203.5 6t113.5 183z" />
    <glyph glyph-name="yhook" unicode="&#x1b4;" horiz-adv-x="1672" 
d="M584 -60l29 93l-544 1503h405l310 -938l249 787l34 105q43 131 133.5 238.5t246.5 140.5q96 24 174.5 14t150.5 -31l-37 -298q-37 11 -64 18t-63 -1q-69 -12 -111 -68.5t-76 -161.5l-20 -59l-485 -1505q-30 -89 -97 -176t-173 -144t-255 -57q-101 0 -186 25v310
q29 -5 78 -5q123 0 194 48t107 162z" />
    <glyph glyph-name="uni024F" unicode="&#x24f;" horiz-adv-x="1727" 
d="M721 -65l29 77l-303 827h-325v208h248l-179 489h403l163 -489h367l163 489h403l-180 -489h100v-208h-177l-393 -1068q-33 -89 -97 -174.5t-165.5 -140.5t-248.5 -55q-65 0 -117 11t-96 28l87 306q143 -40 204.5 6t113.5 183zM932 524h17l105 315h-227z" />
    <glyph glyph-name="yturn" unicode="&#x28e;" horiz-adv-x="1568" 
d="M1069 0l-338 1012h-17l-337 -1012h-403l649 1765q33 89 97 174.5t166 140.5t249 55q64 0 116 -11t97 -28l-88 -306q-142 40 -203.5 -6t-113.5 -183l-29 -77l558 -1524h-403z" />
    <glyph glyph-name="z" unicode="z" horiz-adv-x="1538" 
d="M1388 315v-315h-1234v241l732 980h-718v315h1203v-237l-731 -984h748z" />
    <glyph glyph-name="zbar" unicode="&#x1b6;" horiz-adv-x="1538" 
d="M1388 315v-315h-1234v241l313 419h-175v239h353l241 322h-718v315h1203v-237l-297 -400h174v-239h-352l-256 -345h748z" />
    <glyph glyph-name="zhook" unicode="&#x225;" horiz-adv-x="1536" 
d="M1371 1299l-732 -984h281q254 0 389.5 -137.5t135.5 -366.5v-175h-324v98q0 63 -14.5 124.5t-57.5 101.5t-129 40h-766v241l734 980h-720v315h1203v-237z" />
    <glyph glyph-name="uni0240" unicode="&#x240;" horiz-adv-x="1535" 
d="M639 315h33q145 0 242 -57t164 -141t119.5 -168.5t106.5 -141.5t126 -57q61 0 119 35t92 66l130 -256q-63 -61 -157.5 -116t-218.5 -55q-125 0 -208 58t-145.5 144l-123.5 172t-140 144t-197 58h-427v241l734 980h-720v315h1203v-237z" />
    <glyph glyph-name="zrthook" unicode="&#x290;" horiz-adv-x="1538" 
d="M1388 315v-450q0 -114 74 -151t157 -37q47 0 101 8v-266q-41 -11 -82 -15t-84 -4q-204 0 -326 120.5t-122 344.5v135h-952v241l732 980h-718v315h1203v-237l-731 -984h748z" />
    <glyph glyph-name="zcurl" unicode="&#x291;" horiz-adv-x="1897" 
d="M1845 478q0 -107 -57 -217.5t-180.5 -185.5t-320.5 -75h-313l-239 -335l-249 157l123 178h-455v241l734 980h-720v315h1203v-237l-732 -984h191q133 183 237 299.5t200.5 172t203.5 55.5q101 0 186.5 -45.5t136.5 -127.5t51 -191zM1436 533q-55 0 -107 -52t-133 -166h111
q121 0 171.5 43t50.5 100q0 35 -28 55t-65 20z" />
    <glyph glyph-name="Thorn" unicode="&#xde;" horiz-adv-x="1809" 
d="M172 2048h395v-386h306q237 0 400.5 -81t248 -220.5t84.5 -316.5t-84.5 -316.5t-248 -220.5t-400.5 -81h-306v-426h-395v2048zM873 1350h-306v-611h306q185 0 270.5 86t85.5 215q0 131 -85.5 220.5t-270.5 89.5z" />
    <glyph glyph-name="Gamma" unicode="&#x393;" horiz-adv-x="1809" 
d="M1554 2048v-332h-912v-1716h-394v2048h1306z" />
    <glyph glyph-name="Delta" unicode="&#x2206;" horiz-adv-x="2239" 
d="M120 0l800 2048h414l789 -2048h-2003zM659 325h926l-460 1258z" />
    <glyph glyph-name="Delta" unicode="&#x394;" horiz-adv-x="2239" 
d="M120 0l800 2048h414l789 -2048h-2003zM659 325h926l-460 1258z" />
    <glyph glyph-name="Theta" unicode="&#x398;" horiz-adv-x="2073" 
d="M1938 1021q0 -332 -118 -566.5t-321 -358.5t-460 -124t-462 124t-323.5 358.5t-118.5 566.5q0 333 118.5 569t323.5 361t462 125t460 -125t321 -361t118 -569zM1543 1021q0 362 -143 530t-361 168q-145 0 -260 -74t-182 -228.5t-67 -395.5t67 -394t182 -225.5t260 -72.5
q218 0 361 165t143 527zM1307 1182v-312h-537v312h537z" />
    <glyph glyph-name="Xi" unicode="&#x39e;" horiz-adv-x="1727" 
d="M219 1692v326h1264v-326h-1264zM346 859v312h1037v-312h-1037zM188 0v323h1351v-323h-1351z" />
    <glyph glyph-name="Pi" unicode="&#x3a0;" horiz-adv-x="2065" 
d="M1843 2048v-2048h-393v1722h-836v-1722h-392v2048h1621z" />
    <glyph glyph-name="Sigma" unicode="&#x3a3;" horiz-adv-x="1809" 
d="M1230 1028v-22l-484 -673h868v-333h-1419v211l608 804l-608 807v212h1385v-335h-833z" />
    <glyph glyph-name="Phi" unicode="&#x3a6;" horiz-adv-x="2239" 
d="M1322 2004v-235q232 -8 408 -105.5t275 -269.5t99 -403q0 -225 -98 -393t-274.5 -264t-409.5 -104v-230h-401v230q-236 7 -413 102t-276 262.5t-99 392.5q0 231 99.5 404.5t277 272t411.5 105.5v235h401zM1708 991q0 203 -103 311.5t-283 118.5v-843q182 10 284 115.5
t102 297.5zM531 987q0 -192 104 -295.5t286 -113.5v843q-181 -10 -285.5 -120.5t-104.5 -313.5z" />
    <glyph glyph-name="Psi" unicode="&#x3a8;" horiz-adv-x="2239" 
d="M1328 2004v-1139q328 59 328 495v644h407v-644q0 -367 -201 -578.5t-534 -246.5v-535h-404v533q-338 30 -541.5 242.5t-203.5 584.5v644h404v-644q0 -217 89.5 -339.5t251.5 -154.5v1138h404z" />
    <glyph glyph-name="Omega" unicode="&#x2126;" horiz-adv-x="1809" 
d="M135 0v329h299q-141 128 -231 319t-90 415v120q0 249 99.5 439.5t277.5 298.5t414 108q235 0 414 -108t279.5 -298.5t100.5 -439.5v-120q0 -225 -90 -416t-230 -318h294v-329h-691v337q120 47 194.5 218t74.5 508v123q0 254 -92.5 383.5t-253.5 129.5q-158 0 -251 -129.5
t-93 -383.5v-123q0 -341 76.5 -511.5t199.5 -214.5v-337h-701z" />
    <glyph glyph-name="Omega" unicode="&#x3a9;" horiz-adv-x="1809" 
d="M135 0v329h299q-141 128 -231 319t-90 415v120q0 249 99.5 439.5t277.5 298.5t414 108q235 0 414 -108t279.5 -298.5t100.5 -439.5v-120q0 -225 -90 -416t-230 -318h294v-329h-691v337q120 47 194.5 218t74.5 508v123q0 254 -92.5 383.5t-253.5 129.5q-158 0 -251 -129.5
t-93 -383.5v-123q0 -341 76.5 -511.5t199.5 -214.5v-337h-701z" />
    <glyph glyph-name="Gamma1" unicode="&#x194;" horiz-adv-x="1983" 
d="M93 2018h448l450 -1083l451 1083h447l-705 -1542l192.5 -430t84.5 -269q0 -131 -63 -214.5t-169.5 -123t-237.5 -39.5t-239.5 39.5t-173.5 123t-65 214.5q0 86 89 269.5t198 433.5zM907 -212q0 -42 19 -71.5t65 -29.5q48 0 66.5 31t18.5 70q0 48 -20 110t-63 160
q-42 -96 -64 -159t-22 -111z" />
    <glyph glyph-name="afii10018" unicode="&#x411;" horiz-adv-x="1809" 
d="M1444 2048v-332h-911v-444h351q234 0 403 -77.5t260 -218.5t91 -331q0 -191 -91 -336t-260 -227t-403 -82h-746v2048h1306zM533 322h351q176 0 269.5 97.5t93.5 229.5q0 127 -93.5 215t-269.5 88h-351v-630z" />
    <glyph glyph-name="afii10050" unicode="&#x490;" horiz-adv-x="1809" 
d="M1551 2537v-821h-918v-1716h-395v2048h922v489h391z" />
    <glyph glyph-name="uni04FA" unicode="&#x4fa;" horiz-adv-x="1809" 
d="M1032 1168v-239h-223v-929h-394v929h-339v239h339v880h1306v-332h-912v-548h223zM898 347h377v-400q0 -259 -135 -403t-377 -144q-53 0 -97.5 4t-95.5 16l20 311q28 -9 63 -13t72 -4q79 0 126 59.5t47 173.5v400z" />
    <glyph glyph-name="afii10021" unicode="&#x414;" horiz-adv-x="2321" 
d="M636 2004h1303v-1678h236l-30 -818h-373v492h-1223v-493h-382l-22 819h153q53 44 111.5 135.5t105.5 263t66 456.5zM986 1181q-20 -316 -80.5 -520t-143.5 -335h773v1348h-516z" />
    <glyph glyph-name="afii10024" unicode="&#x416;" horiz-adv-x="3007" 
d="M2383 0l-432 824h-237v-824h-404v824h-242l-444 -824h-503l628 1074l-597 930h502l449 -812h207v812h404v-812h202l438 812h502l-586 -926l618 -1078h-505z" />
    <glyph glyph-name="Zhedescendercyrillic" unicode="&#x496;" horiz-adv-x="3181" 
d="M2438 0l-432 824h-237v-824h-404v824h-242l-444 -824h-503l628 1074l-597 930h502l449 -812h207v812h404v-812h202l438 812h502l-586 -926l457 -798h268v-773h-377v493h-235z" />
    <glyph glyph-name="afii10025" unicode="&#x417;" horiz-adv-x="1809" 
d="M914 864h-243v316h243q166 0 238.5 74.5t72.5 198.5q0 101 -80 175t-251 74q-133 0 -223 -64.5t-90 -175.5h-405q0 178 99 304.5t262 194.5t357 68q334 0 535 -145t201 -424q0 -138 -82.5 -252t-227.5 -179q165 -57 253 -175.5t88 -293.5q0 -186 -99 -317.5t-272.5 -201
t-395.5 -69.5q-137 0 -269.5 34t-240.5 105t-172 181.5t-64 263.5h406q0 -107 94.5 -182.5t245.5 -75.5q172 0 267.5 77.5t95.5 191.5q0 160 -87.5 228.5t-255.5 68.5z" />
    <glyph glyph-name="Kacyr" unicode="&#x41a;" horiz-adv-x="1975" 
d="M1373 0l-655 886h-146v-886h-395v2048h395v-831h100l741 831h508l-863 -963l807 -1085h-492z" />
    <glyph glyph-name="Kaverticalstrokecyrillic" unicode="&#x49c;" horiz-adv-x="1983" 
d="M653 1543h231v-352h52l373 813h484l-523 -930l573 -1074h-491l-388 819h-80v-314h-231v314h-124v-819h-393v2004h393v-813h124v352z" />
    <glyph glyph-name="Kahookcyrillic" unicode="&#x4c3;" horiz-adv-x="1983" 
d="M598 2004v-808h142l502 808h502l-608 -870q298 -43 474 -241t176 -556q0 -146 -39.5 -290.5t-127 -262.5t-231.5 -189t-353 -71l-1 310q117 0 186.5 48.5t104 123.5t45.5 158.5t11 153.5q2 253 -109.5 377.5t-316.5 124.5h-357v-820h-405v2004h405z" />
    <glyph glyph-name="afii10029" unicode="&#x41b;" horiz-adv-x="2065" 
d="M571 2004h1335v-2004h-405v1674h-542l-34 -681q-18 -373 -90 -590t-211.5 -310t-361.5 -93h-104v326l58 4q112 12 179 89t100 246t43 458z" />
    <glyph glyph-name="uni04C5" unicode="&#x4c5;" horiz-adv-x="2321" 
d="M627 2004h1335v-1750h263v-259q-1 -157 -71 -307t-176 -257l-216 89l91 204.5t45 250.5v25h-341v1674h-542l-34 -681q-18 -373 -90 -590t-211.5 -310t-361.5 -93h-104v326l58 4q112 12 179 89t100 246t43 458z" />
    <glyph glyph-name="afii10147" unicode="&#x472;" horiz-adv-x="2073" 
d="M1938 1021q0 -332 -118 -566.5t-321 -358.5t-460 -124t-462 124t-323.5 358.5t-118.5 566.5q0 333 118.5 569t323.5 361t462 125t460 -125t321 -361t118 -569zM1039 1719q-192 0 -329.5 -130t-170.5 -407q133 28 232.5 27t183 -17.5l167 -34t183 -23.5t233.5 16
q-27 294 -164 431.5t-335 137.5zM1039 329q194 0 330 129.5t166 411.5q-133 -30 -232.5 -29.5t-183 17l-167.5 34.5t-183.5 24t-233.5 -14q25 -299 165 -436t339 -137z" />
    <glyph glyph-name="afii10145" unicode="&#x40f;" horiz-adv-x="2065" 
d="M222 0v2004h405v-1678h812v1678h406v-2004h-593v-496h-403v496h-627z" />
    <glyph glyph-name="afii10037" unicode="&#x423;" horiz-adv-x="1809" 
d="M496 2004l446 -961l369 961h438l-682 -1615q-49 -111 -114 -206t-168 -153t-266 -58q-31 0 -74 1t-69 2l-2 327q16 -2 54 -3t55 -1q119 0 166.5 50.5t78.5 139.5l33 86l-702 1430h437z" />
    <glyph glyph-name="afii10038" unicode="&#x424;" horiz-adv-x="2372" 
d="M965 1823h27v261h390v-261h25q237 0 424.5 -103t295.5 -290t108 -439q0 -245 -108 -428.5t-295.5 -285t-424.5 -101.5h-25v-260h-390v260h-27q-237 0 -424 100.5t-295 283t-108 429.5q0 253 108.5 440t295.5 290.5t423 103.5zM965 1489q-202 0 -324 -127t-122 -373
q0 -234 123.5 -356.5t322.5 -122.5h27v979h-27zM1410 1489h-28v-979h28q200 0 320.5 124t120.5 357q0 245 -120.5 371.5t-320.5 126.5z" />
    <glyph glyph-name="afii10040" unicode="&#x426;" horiz-adv-x="2321" 
d="M216 0v2004h405v-1678h811v1678h407v-1678h267l-26 -810h-378v484h-1486z" />
    <glyph glyph-name="Tetsecyrillic" unicode="&#x4b4;" horiz-adv-x="2577" 
d="M591 0v1689h-497v315h1320v-315h-418v-1363h810v1678h408v-1678h266l-25 -810h-379v484h-1485z" />
    <glyph glyph-name="afii10041" unicode="&#x427;" horiz-adv-x="2065" 
d="M244 2004h404v-621q0 -195 91 -264.5t277 -69.5q81 0 196 10.5t208 30.5v914h404v-2004h-404v765q-93 -20 -206 -31.5t-198 -11.5q-355 0 -563.5 157t-208.5 504v621z" />
    <glyph glyph-name="Chedescendercyrillic" unicode="&#x4b6;" horiz-adv-x="2321" 
d="M241 2004h404v-621q0 -195 91 -264.5t277 -69.5q81 0 196 10.5t208 30.5v914h404v-1724h267v-773h-377v493h-294v765q-93 -20 -206 -31.5t-198 -11.5q-355 0 -563.5 157t-208.5 504v621z" />
    <glyph glyph-name="Cheverticalstrokecyrillic" unicode="&#x4b8;" horiz-adv-x="1891" 
d="M1027 1452v-399q72 4 151.5 13.5t146.5 23.5v914h404v-2004h-404v765q-67 -15 -146 -25t-152 -14v-317h-228v318q-301 24 -475.5 182t-174.5 474v621h405v-621q0 -160 60.5 -233.5t184.5 -92.5v395h228z" />
    <glyph glyph-name="Shhacyrillic" unicode="&#x4ba;" horiz-adv-x="2065" 
d="M647 0h-403v2004h403v-766q92 20 204.5 32t197.5 12q355 0 565 -159t210 -505v-618h-404v618q0 197 -93 267t-278 70q-79 0 -194 -11.5t-208 -31.5v-912z" />
    <glyph glyph-name="afii10060" unicode="&#x40b;" horiz-adv-x="2147" 
d="M2057 0h-403v620q0 196 -92 265.5t-277 69.5q-62 0 -146 -7t-165 -20v-928h-403v1674h-479v330h1532v-330h-650v-419q79 12 162 18.5t149 6.5q353 0 562.5 -157.5t209.5 -502.5v-620z" />
    <glyph glyph-name="afii10042" unicode="&#x428;" horiz-adv-x="2751" 
d="M208 2004h408v-1678h562v1678h404v-1678h557v1678h405v-2004h-2336v2004z" />
    <glyph glyph-name="afii10043" unicode="&#x429;" horiz-adv-x="3007" 
d="M220 2004h408v-1678h562v1678h404v-1678h556v1678h405v-1692h246l-28 -793h-361v481h-2192v2004z" />
    <glyph glyph-name="afii10044" unicode="&#x42a;" horiz-adv-x="2263" 
d="M100 1733v315h910v-776h351q234 0 403 -77.5t260 -218.5t91 -331q0 -191 -91 -336t-260 -227t-403 -82h-746v1733h-515zM1010 322h351q175 0 269 97.5t94 229.5q0 127 -94 215t-269 88h-351v-630z" />
    <glyph glyph-name="afii10045" unicode="&#x42b;" horiz-adv-x="2508" 
d="M1716 645q0 -191 -91 -336t-260 -227t-403 -82h-746v2048h395v-776h351q234 0 403 -77.5t260 -218.5t91 -331zM2274 2048v-2048h-395v2048h395zM611 322h351q176 0 269.5 97.5t93.5 229.5q0 127 -93.5 215t-269.5 88h-351v-630z" />
    <glyph glyph-name="afii10046" unicode="&#x42c;" horiz-adv-x="1812" 
d="M1662 645q0 -191 -91 -336t-260 -227t-403 -82h-746v2048h395v-776h351q234 0 403 -77.5t260 -218.5t91 -331zM557 322h351q176 0 269.5 97.5t93.5 229.5q0 127 -93.5 215t-269.5 88h-351v-630z" />
    <glyph glyph-name="afii10058" unicode="&#x409;" horiz-adv-x="3085" 
d="M520 2018h1336v-700h341q233 0 402 -85.5t260 -234t91 -338.5q0 -191 -91 -340t-260 -234.5t-402 -85.5h-746v1688h-543l-33 -695q-17 -373 -89 -590t-212.5 -310t-362.5 -93h-101v326l54 4q114 12 181 89t99 246t43 458zM1856 326h341q177 0 263.5 102t86.5 233
q0 128 -86.5 229.5t-263.5 101.5h-341v-666z" />
    <glyph glyph-name="afii10059" unicode="&#x40a;" horiz-adv-x="3080" 
d="M600 2018v-860h810v860h402v-719h342q235 0 403.5 -83.5t259 -229.5t90.5 -334t-90.5 -335.5t-259 -232t-403.5 -84.5h-744v832h-810v-832h-405v2018h405zM1812 328h342q177 0 263 98.5t86 229.5q0 126 -86 222.5t-263 96.5h-342v-647z" />
    <glyph glyph-name="afii10047" unicode="&#x42d;" horiz-adv-x="2024" 
d="M198 664h395q14 -183 111.5 -277t295.5 -94q207 0 310.5 141t118.5 405h-653v323h652q-16 272 -127.5 407.5t-305.5 135.5q-208 0 -298.5 -98.5t-106.5 -283.5h-395q20 205 114.5 365t265.5 252t420 92q253 0 438.5 -118.5t287.5 -335t102 -512.5v-135
q0 -294 -99.5 -509.5t-283.5 -332.5t-440 -117q-246 0 -419.5 88.5t-270.5 245t-112 358.5z" />
    <glyph glyph-name="afii10048" unicode="&#x42e;" horiz-adv-x="2810" 
d="M572 2048v-883h306q26 289 149 493t317 311t432 107q256 0 459.5 -125t321.5 -361t118 -569q0 -332 -118 -566.5t-321.5 -358.5t-459.5 -124q-238 0 -431 106t-316 307t-150 487h-307v-872h-395v2048h395zM2280 1021q0 362 -143 530t-361 168q-145 0 -260 -74
t-182 -228.5t-67 -395.5t67 -394t182 -225.5t260 -72.5q218 0 361 165t143 527z" />
    <glyph glyph-name="afii10049" unicode="&#x42f;" horiz-adv-x="1635" 
d="M1187 0v727h-341l-365 -727h-440l433 854q-153 83 -233 215t-80 317q0 304 198 461t538 157h695v-2004h-405zM897 1034h290v640h-290q-172 0 -253.5 -82.5t-81.5 -235.5q0 -166 84.5 -244t250.5 -78z" />
    <glyph glyph-name="Ghemiddlehookcyrillic" unicode="&#x494;" horiz-adv-x="1770" 
d="M1423 2048v-332h-912v-568h307q250 0 436 -86t289 -264t103 -454q0 -148 -39.5 -292.5t-127 -261.5t-229 -187t-345.5 -70l-1 298q115 0 186.5 48.5t110 124.5t52.5 161.5t15 159.5q0 264 -118 386t-332 122h-307v-833h-394v2048h1306z" />
    <glyph glyph-name="Pemiddlehookcyrillic" unicode="&#x4a6;" horiz-adv-x="3089" 
d="M1777 2048v-903h328q249 0 435.5 -86t289.5 -264.5t103 -453.5q0 -149 -39.5 -293t-127 -261t-229 -187t-345.5 -70l-1 298q115 0 186.5 48.5t110 124.5t52.5 161.5t15 159.5q0 264 -117.5 386t-332.5 122h-328v-830h-393v1722h-836v-1722h-392v2048h1621z" />
    <glyph glyph-name="afii10053" unicode="&#x404;" horiz-adv-x="1879" 
d="M1353 664h403q-14 -202 -111 -358.5t-271 -245t-420 -88.5q-256 0 -441 117t-285 332.5t-100 509.5v135q0 296 102.5 512.5t290 335t440.5 118.5q248 0 418.5 -92t264.5 -252t112 -365h-400q-16 181 -103.5 280t-291.5 99q-394 0 -425 -534h625v-326h-626
q13 -266 112 -406.5t307 -140.5q198 0 290 94.5t109 274.5z" />
    <glyph glyph-name="Haabkhasiancyrillic" unicode="&#x4a8;" horiz-adv-x="2321" 
d="M2155 294v-315q-156 0 -297 24.5t-264 70.5q-103 -49 -222.5 -75.5t-252.5 -26.5q-285 0 -500 124t-334.5 336t-119.5 477v288q0 235 89.5 424.5t250.5 300t374 110.5v-341q-136 0 -211.5 -141t-75.5 -352v-289q0 -173 63 -308t181 -212.5t283 -77.5q44 0 87 5
q-136 133 -209.5 308t-73.5 382v269q0 214 73 385t205.5 271t309.5 100q188 0 330 -105t221.5 -290.5t79.5 -424.5v-237q0 -191 -60 -359t-171 -298q115 -23 244 -23zM1305 1005q0 -161 62 -296.5t182 -231.5q187 186 187 497v282q0 244 -58.5 339.5t-166.5 95.5
q-97 0 -151.5 -96t-54.5 -316v-274z" />
    <glyph glyph-name="Cheabkhasiancyrillic" unicode="&#x4bc;" horiz-adv-x="2321" 
d="M143 1488h273q0 -111 42 -187.5t128 -106.5q1 244 110 433t293 296t412 105q255 0 428 -116t261.5 -327.5t88.5 -498.5v-216h-1188v-34q0 -142 48.5 -259t159 -187t297.5 -70q175 0 300.5 31t202.5 58l66 -331q-43 -24 -189.5 -67t-379.5 -43q-300 0 -502.5 111t-305 307
t-102.5 450v65q-214 34 -328.5 188.5t-114.5 398.5zM1401 1676q-135 0 -226 -66t-137.5 -176t-46.5 -241h783v44q0 123 -36 222.5t-118 158t-219 58.5z" />
    <glyph glyph-name="Schwacyrillic" unicode="&#x4d8;" horiz-adv-x="2065" 
d="M925 2032q319 0 534 -120t324 -331t109 -484v-198q0 -273 -114 -483t-308 -328t-435 -116q-282 0 -473.5 115t-289.5 326t-98 498v221h1312q-5 151 -61 274.5t-177.5 196.5t-322.5 73q-185 0 -317 -29t-212 -56l-68 331q44 22 198 66t399 44zM1035 324q199 0 312.5 137.5
t134.5 342.5h-904v-41q0 -123 44 -222.5t144 -158t269 -58.5z" />
    <glyph glyph-name="Dzeabkhasiancyrillic" unicode="&#x4e0;" horiz-adv-x="1727" 
d="M235 2004h1302l3 -270l-495 -539q256 -44 394.5 -206t138.5 -429q0 -186 -94 -317.5t-259 -201t-378 -69.5q-129 0 -253 34t-225 105t-160.5 181.5t-59.5 263.5h404q0 -107 80 -182.5t214 -75.5q155 0 242.5 77.5t87.5 191.5q0 199 -99 286t-286 87h-186v255l470 479
h-841v330z" />
    <glyph glyph-name="afii10148" unicode="&#x474;" horiz-adv-x="1983" 
d="M1021 539l288 1010q73 232 189 355.5t316 123.5l54 -3l-3 -337h-39q-60 0 -101.5 -45t-63.5 -116l-458 -1527h-418l-670 2004h429l421 -1460l29 -131z" />
    <glyph glyph-name="afii10051" unicode="&#x402;" horiz-adv-x="2321" 
d="M1729 2004v-330h-652v-486q83 18 170 30.5t168 12.5q221 0 387 -68t259 -206.5t93 -348.5q0 -118 -39.5 -230.5t-127.5 -203t-233.5 -144.5t-356.5 -54l-2 307q157 0 233 49t99 120t25 136q0 143 -92.5 228.5t-263.5 85.5q-92 0 -168.5 -8.5t-150.5 -24.5v-869h-405v1674
h-504v330h1561z" />
    <glyph glyph-name="eth" unicode="&#xf0;" horiz-adv-x="1567" 
d="M783 -32q-206 0 -357 95t-233 261t-82 380q0 210 73 365.5t190 247t249 109.5q113 13 214.5 -25.5t158.5 -114.5h20q-50 96 -111 182.5t-146 169.5l-341 -176l-106 203l255 131q-94 67 -212 133l172 247q85 -44 171 -100.5t168 -125.5l277 143l106 -202l-208 -108
q178 -194 296 -453.5t118 -577.5q0 -248 -84 -423.5t-235 -268t-353 -92.5zM797 278q149 0 232.5 109t83.5 315q0 201 -81.5 317t-234.5 116q-148 0 -231 -110t-83 -318q0 -203 80 -316t234 -113z" />
    <glyph glyph-name="thorn" unicode="&#xfe;" horiz-adv-x="1672" 
d="M167 2048h388v-702h18q39 79 130.5 144.5t245.5 65.5q167 0 306 -89t222.5 -265t83.5 -435q0 -257 -81.5 -434t-219.5 -268.5t-310 -91.5q-153 0 -245.5 64.5t-131.5 144.5h-18v-758h-388v2624zM1192 768q0 214 -86.5 343.5t-258.5 129.5q-177 0 -252.5 -135t-75.5 -338
q0 -134 32.5 -243t104.5 -172.5t191 -63.5q171 0 258 132t87 347z" />
    <glyph glyph-name="alpha" unicode="&#x3b1;" horiz-adv-x="1643" 
d="M111 718v28q0 234 67 414t196.5 281.5t319.5 101.5q125 0 216.5 -58.5t154.5 -162.5l23 199h336v-1056q0 -107 26.5 -146.5t72.5 -39.5q23 0 30 5l35 -278q-45 -22 -85.5 -28t-87.5 -6q-247 0 -329 247q-64 -115 -161 -181t-234 -66q-187 0 -316.5 96t-196.5 264t-67 386
zM490 746v-28q0 -184 70.5 -304.5t228.5 -120.5q100 0 163 45.5t96 120.5l2 576q-33 86 -95 138t-162 52q-106 0 -173 -64.5t-98.5 -173.5t-31.5 -241z" />
    <glyph glyph-name="beta" unicode="&#x3b2;" horiz-adv-x="1669" 
d="M872 915h-138v290h93q98 0 157.5 41t86 102.5t26.5 124.5q0 114 -73 187.5t-193 73.5q-121 0 -202 -77.5t-81 -216.5v-813q0 -131 85 -224.5t234 -93.5q145 0 230.5 90t85.5 216q0 133 -89.5 216.5t-221.5 83.5zM831 2076q176 0 322 -69.5t233 -193t87 -285.5
q0 -117 -49.5 -232.5t-144.5 -199.5q138 -81 208.5 -217t70.5 -294q0 -178 -81.5 -315t-221 -215t-311.5 -78q-99 0 -198.5 31.5t-183.5 114.5l-14 -5v-694h-381v2037q0 187 89 325t239.5 214t335.5 76z" />
    <glyph glyph-name="gamma" unicode="&#x3b3;" horiz-adv-x="1553" 
d="M491 1521l292 -1051l282 1051h405l-499 -1497v-596h-388v608l-499 1485h407z" />
    <glyph glyph-name="delta" unicode="&#x3b4;" horiz-adv-x="1727" 
d="M329 1721q0 209 150 325.5t412 116.5q108 0 185 -17t176 -47v-301q-53 18 -142 42t-185 24q-103 0 -163 -36.5t-60 -98.5q0 -41 40.5 -91.5t184.5 -100.5q317 -110 478.5 -304.5t161.5 -485.5v-28q0 -211 -83 -380.5t-239.5 -268t-377.5 -98.5q-224 0 -382 96t-241 261
t-83 371v28q0 156 59.5 285t158 215.5t214.5 116.5l-3 8q-116 59 -188.5 150.5t-72.5 217.5zM549 763v-25q0 -123 33.5 -226.5t104 -165.5t180.5 -62q109 0 177.5 62t101.5 165.5t33 226.5v25q0 96 -38 190.5t-107.5 163.5t-166.5 89q-109 0 -179 -61.5t-104.5 -162.5
t-34.5 -219z" />
    <glyph glyph-name="epsilon" unicode="&#x3b5;" horiz-adv-x="1727" 
d="M864 892h258v-262h-258q-130 0 -205.5 -41t-75.5 -139q0 -70 70.5 -126t207.5 -56q138 0 211 51t73 122h386q0 -163 -96 -266.5t-244.5 -153t-308.5 -49.5q-195 0 -350.5 53.5t-245.5 154t-90 240.5q0 128 73.5 215.5t209.5 131.5q-120 48 -189 130.5t-69 182.5
q0 142 84 239t233 147t344 50q171 0 313.5 -55t228.5 -157t86 -243h-389q0 75 -74.5 117t-183.5 42q-132 0 -192 -53t-60 -114q0 -73 63 -117t190 -44z" />
    <glyph glyph-name="zeta" unicode="&#x3b6;" horiz-adv-x="1553" 
d="M164 2004h1225v-225l-493 -587q-92 -106 -155 -198t-95.5 -190t-32.5 -222q0 -127 56.5 -181.5t162.5 -84.5l116 -33q117 -34 207 -73t140.5 -104t49.5 -178q-1 -79 -49 -167.5t-120 -167.5t-144 -129l-199 154q66 67 96.5 127t29.5 103q1 47 -34 79t-125 54l-103 31
q-246 65 -358.5 186.5t-112.5 326.5q0 224 96 417.5t279 410.5l288 339h-725v312z" />
    <glyph glyph-name="eta" unicode="&#x3b7;" horiz-adv-x="1644" 
d="M553 845v-845h-389v1536h364v-195h16q62 95 171 155t255 60q134 0 250.5 -59t188 -189t71.5 -343v-1541h-388v1525q0 137 -73.5 212t-183.5 75q-131 0 -206.5 -106t-75.5 -285z" />
    <glyph glyph-name="theta" unicode="&#x3b8;" horiz-adv-x="1727" 
d="M1537 1184v-331q0 -453 -184.5 -667t-485.5 -214q-201 0 -354 94.5t-238.5 289.5t-85.5 497v331q0 300 85 494.5t237 289t352 94.5q301 0 487.5 -214.5t186.5 -663.5zM567 1241v-73h592v73q0 264 -79.5 383.5t-216.5 119.5q-135 0 -215.5 -119.5t-80.5 -383.5zM1159 800
v66h-592v-66q0 -270 82.5 -390t217.5 -120q134 0 213 120t79 390z" />
    <glyph glyph-name="iota" unicode="&#x3b9;" horiz-adv-x="957" 
d="M186 1488h378l-3 -1026q0 -96 42 -127t118 -31q36 0 65 4t51 8v-297q-49 -15 -107 -25.5t-131 -10.5q-191 0 -302 101t-111 337v1067z" />
    <glyph glyph-name="lambda" unicode="&#x3bb;" horiz-adv-x="1809" 
d="M525 2123q151 0 239.5 -61.5t131.5 -174.5l574 -1449q26 -58 58 -101t87 -43h45l2 -310q-50 -11 -146 -11q-166 0 -258.5 77.5t-147.5 228.5l-236 643l-307 -922h-421l527 1452l-100 234q-28 68 -70.5 95t-106.5 27q-16 0 -36 -0.5t-42 -3.5l-8 292q40 13 103 20t112 7z
" />
    <glyph glyph-name="xi" unicode="&#x3be;" horiz-adv-x="1553" 
d="M1330 1962l-59 -303q-103 28 -166 40t-145 12q-159 0 -233 -55.5t-74 -143.5q0 -90 74.5 -150t247.5 -60h206v-323h-196q-218 0 -332.5 -87.5t-114.5 -260.5q0 -146 99 -219t235 -106l137 -33q183 -44 290.5 -116.5t105.5 -236.5q-1 -80 -49 -167.5t-120 -165.5
t-143 -128l-203 150q129 136 129 234q0 43 -36.5 76t-119.5 58l-87 27q-148 44 -264.5 88t-198 107.5t-124 163t-42.5 253.5q0 196 109 328t306 196q-140 51 -219.5 143.5t-79.5 223.5q0 245 179 385t480 140q133 0 225 -18t183 -52z" />
    <glyph glyph-name="pi" unicode="&#x3c0;" horiz-adv-x="1983" 
d="M1796 1536v-296h-239v-778q0 -96 40.5 -127t117.5 -31q35 0 65 4t52 8v-296q-48 -15 -107.5 -26t-131.5 -11q-190 0 -302 101t-112 337v819h-408v-1240h-378v1240h-239v296h1642z" />
    <glyph glyph-name="rho" unicode="&#x3c1;" horiz-adv-x="1608" 
d="M162 -572v1379q0 357 182 546.5t487 189.5q237 0 384 -107.5t214.5 -288.5t67.5 -401v-28q0 -223 -71.5 -391t-204.5 -261.5t-318 -93.5q-125 0 -214 43.5t-151 122.5l1 -710h-377zM537 776v-74q2 -93 26.5 -189t86 -161t175.5 -65q158 0 225 124.5t67 306.5v28
q0 130 -30 237t-95.5 170.5t-171.5 63.5q-100 0 -162.5 -60.5t-91.5 -160.5t-29 -220z" />
    <glyph glyph-name="uni03FC" unicode="&#x3fc;" horiz-adv-x="1783" 
d="M337 -572v187h-274v239h274v953q0 357 182 546.5t487 189.5q238 0 384.5 -107.5t214 -288.5t67.5 -401v-28q0 -223 -71.5 -391t-204.5 -261.5t-318 -93.5q-125 0 -214 43.5t-151 122.5v-284h306v-239h-305v-187h-377zM712 776v-74q2 -93 26.5 -189t86 -161t175.5 -65
q158 0 225 124.5t67 306.5v28q0 130 -30 237t-95 170.5t-172 63.5q-101 0 -163 -60.5t-91 -160.5t-29 -220z" />
    <glyph glyph-name="sigma1" unicode="&#x3c2;" horiz-adv-x="1551" 
d="M815 1516q271 0 440 -152.5t169 -425.5h-367q0 109 -58.5 187.5t-183.5 78.5q-112 0 -179 -62.5t-97 -163t-30 -214.5v-40q0 -184 94 -276t275 -144q130 -38 222 -75t141.5 -100.5t53.5 -180.5q-1 -79 -47.5 -167.5t-117.5 -167.5t-143 -129l-204 154q129 135 129 234
q0 54 -38 85t-114 48q-314 83 -472 250t-158 469v40q0 209 78.5 379.5t231 271.5t375.5 101z" />
    <glyph glyph-name="sigma" unicode="&#x3c3;" horiz-adv-x="1809" 
d="M161 728v32q0 208 81.5 372.5t237 260t378.5 95.5h789v-312h-352q106 -84 175.5 -207.5t69.5 -268.5v-28q0 -194 -79 -352.5t-230.5 -253t-368.5 -94.5q-225 0 -381.5 99t-238 270t-81.5 387zM552 760v-32q0 -122 29.5 -223t97.5 -161t183 -60q106 0 169 60t90.5 161
t27.5 223v32q0 112 -28 206.5t-91.5 152t-171.5 57.5q-112 0 -179 -57.5t-97 -152t-30 -206.5z" />
    <glyph glyph-name="tau" unicode="&#x3c4;" horiz-adv-x="1491" 
d="M1416 1503v-312h-498v-743q0 -99 37 -129.5t96 -30.5q43 0 72 8.5t60 16.5l45 -291q-68 -31 -126.5 -40.5t-131.5 -9.5q-205 0 -317.5 116.5t-112.5 363.5v739h-462v312h1338z" />
    <glyph glyph-name="upsilon" unicode="&#x3c5;" horiz-adv-x="1576" 
d="M178 1488h377v-915q0 -163 59.5 -226.5t135.5 -63.5q100 0 172.5 70.5t112.5 183.5t40 243q-3 179 -44 358t-102 350h362q63 -126 110 -308t47 -400q0 -224 -70.5 -407t-222 -292t-394.5 -109q-263 0 -423 146t-160 459v911z" />
    <glyph glyph-name="phi" unicode="&#x3c6;" horiz-adv-x="2243" 
d="M930 -651v634q-286 34 -454.5 157t-242 303.5t-73.5 384.5q0 223 88 408t225 293l260 -207q-94 -98 -143.5 -227t-51.5 -267q0 -194 86.5 -336.5t305.5 -188.5v828q0 184 117.5 291t292.5 107q187 0 326 -64.5t231.5 -173.5t138.5 -242.5t46 -271.5q0 -187 -74 -357.5
t-243.5 -289t-456.5 -149.5v-632h-378zM1308 1142v-843q221 42 310 175t89 303q-4 196 -88.5 319t-235.5 123q-51 0 -63 -25t-12 -52z" />
    <glyph glyph-name="psi" unicode="&#x3c8;" horiz-adv-x="2239" 
d="M171 1488h390v-679q0 -233 98 -350t251 -154v1183h389v-1185q211 47 296.5 188t85.5 327q-4 172 -46.5 341t-106.5 329h364q70 -120 123 -288.5t53 -381.5q0 -202 -73 -381t-241.5 -301.5t-454.5 -153.5v-638h-389v640q-339 43 -539 242t-200 586v676z" />
    <glyph glyph-name="omega" unicode="&#x3c9;" horiz-adv-x="2495" 
d="M412 1488h372q-81 -171 -131.5 -348t-55.5 -360q0 -128 20.5 -240.5t68.5 -182.5t132 -70q94 0 159.5 86.5t65.5 301.5v480h410v-480q0 -215 65.5 -301.5t160.5 -86.5q83 0 131 70t68.5 182.5t20.5 240.5q-6 183 -56.5 360t-132.5 348h375q81 -126 143 -304.5t62 -403.5
q0 -224 -56 -407.5t-187 -292t-356 -108.5q-308 0 -444 294q-135 -294 -444 -294q-223 0 -353 108.5t-185.5 292t-55.5 407.5q0 225 61 403.5t142 304.5z" />
    <glyph glyph-name="gamma1" unicode="&#x263;" horiz-adv-x="1777" 
d="M888 -600q-131 0 -239.5 39t-173 118t-64.5 201q0 111 94 290l187 358l-577 1097h399l373 -724l379 724h398l-576 -1112l172 -334q47 -94 70.5 -171.5t23.5 -127.5q0 -182 -135 -270t-331 -88zM803 -215q0 -42 19.5 -72.5t65.5 -30.5q48 0 66 31t18 72q0 44 -19.5 98
t-58.5 134q-43 -80 -67 -134t-24 -98z" />
    <glyph glyph-name="becyrillic" unicode="&#x431;" horiz-adv-x="1777" 
d="M969 1404q201 0 340.5 -90t212 -246t72.5 -355v-29q0 -203 -80.5 -364.5t-236.5 -254.5t-381 -93q-224 0 -379.5 100t-236.5 273t-81 393v29v5v48q0 360 83 595t233 365t353 173q150 32 216.5 69.5t66.5 118.5h314q0 -147 -52.5 -240t-168 -149t-306.5 -94
q-162 -34 -265 -135.5t-145 -293.5q185 175 441 175zM896 1092q-169 0 -246.5 -112.5t-77.5 -266.5v-29q0 -166 76 -283t248 -117q169 0 246.5 117t77.5 283v29q0 154 -76.5 266.5t-247.5 112.5z" />
    <glyph glyph-name="vecyrillic" unicode="&#x432;" horiz-adv-x="1727" 
d="M919 0h-714v1488h618q289 0 457.5 -101.5t168.5 -311.5q0 -102 -67 -184.5t-195 -126.5q172 -34 255 -127t83 -213q0 -210 -158.5 -317t-447.5 -107zM592 1177v-294h240q120 0 174.5 36t54.5 104q0 83 -59.5 118.5t-178.5 35.5h-231zM1135 462q0 71 -49 115t-167 44h-327
v-310h327q216 0 216 151z" />
    <glyph glyph-name="gecyrillic" unicode="&#x433;" horiz-adv-x="1298" 
d="M1172 1488v-312h-633v-1176h-377v1488h1010z" />
    <glyph glyph-name="gheupturncyrillic" unicode="&#x491;" horiz-adv-x="1467" 
d="M1284 1921v-745h-685v-1176h-378v1488h686v433h377z" />
    <glyph glyph-name="uni04FB" unicode="&#x4fb;" horiz-adv-x="1553" 
d="M1101 924v-239h-315v-685h-377v685h-264v239h264v564h1010v-312h-633v-252h315zM895 336h377v-400q0 -260 -135 -403.5t-377 -143.5q-52 0 -97 4t-96 16l20 311q29 -9 63.5 -13t71.5 -4q79 0 126 59.5t47 173.5v400z" />
    <glyph glyph-name="decyrillic" unicode="&#x434;" horiz-adv-x="1983" 
d="M153 315h128q91 98 141 189.5t70.5 206t24.5 280.5l13 497h1087v-1173h214v-763h-390v448h-890v-448h-398v763zM907 991q-6 -227 -50.5 -393.5t-117.5 -282.5h491v852h-319z" />
    <glyph glyph-name="zhecyrillic" unicode="&#x436;" horiz-adv-x="2495" 
d="M1923 0l-302 558h-181v-558h-388v558h-177l-303 -558h-469l472 778l-465 710h480l315 -559h147v559h388v-559h149l315 559h482l-461 -703l475 -785h-477z" />
    <glyph glyph-name="zhedescendercyrillic" unicode="&#x497;" horiz-adv-x="2669" 
d="M1951 0l-302 558h-181v-558h-388v558h-177l-303 -558h-469l472 778l-465 710h480l315 -559h147v559h388v-559h149l315 559h482l-461 -703l306 -505h301v-773h-377v493h-232z" />
    <glyph glyph-name="zecyrillic" unicode="&#x437;" horiz-adv-x="1553" 
d="M787 634h-219v254h219q111 0 157.5 46t46.5 119q0 61 -42.5 114t-161.5 53q-100 0 -163.5 -42t-63.5 -117h-388q0 141 80.5 243t216 157t299.5 55q278 0 444 -111.5t166 -324.5q0 -99 -60.5 -181.5t-169.5 -131.5q258 -88 258 -347q0 -140 -81.5 -240.5t-225.5 -154
t-331 -53.5q-153 0 -295.5 49.5t-233.5 153t-91 266.5h388q0 -71 63 -122.5t188 -51.5q122 0 175 56.5t53 126.5q0 98 -56.5 141t-171.5 43z" />
    <glyph glyph-name="iicyrillic" unicode="&#x438;" horiz-adv-x="1553" 
d="M524 561l508 927h389v-1488h-389v931l-508 -931h-390v1488h390v-927z" />
    <glyph glyph-name="uni048B" unicode="&#x48b;" horiz-adv-x="1983" 
d="M1035 2088h279q0 -178 -127 -292t-346 -114q-215 0 -342 114t-127 292h277q0 -72 43.5 -127.5t148.5 -55.5t149.5 55.5t44.5 127.5zM527 561l508 927h389v-1488h-389v931l-508 -931h-390v1488h390v-927zM1820 254v-259q-1 -157 -70.5 -307t-176.5 -257l-216 89
l91.5 204.5t44.5 250.5v279h327z" />
    <glyph glyph-name="kacyrillic" unicode="&#x43a;" horiz-adv-x="1727" 
d="M1077 0l-336 555h-160v-555h-388v1488h388v-564h142l336 564h492l-495 -709l539 -779h-518z" />
    <glyph glyph-name="kahookcyrillic" unicode="&#x4c4;" horiz-adv-x="1809" 
d="M616 1488v-564h118l360 564h489l-474 -658q211 -62 335.5 -213.5t124.5 -398.5q3 -109 -49.5 -233t-166 -231.5t-293.5 -165.5l-161 261q138 59 210 147t74 222q-1 175 -111 256t-299 81h-157v-555h-390v1488h390z" />
    <glyph glyph-name="kadescendercyrillic" unicode="&#x49b;" horiz-adv-x="1983" 
d="M1094 0l-336 555h-160v-555h-388v1488h388v-564h142l336 564h492l-495 -709l345 -499h367v-773h-377v493h-314z" />
    <glyph glyph-name="kaverticalstrokecyrillic" unicode="&#x49d;" horiz-adv-x="1809" 
d="M650 1187h210v-263h60l225 564h490l-408 -707l433 -781h-499l-236 555h-65v-235h-210v235h-109v-555h-390v1488h390v-564h109v263z" />
    <glyph glyph-name="kabashkircyrillic" unicode="&#x4a1;" horiz-adv-x="2065" 
d="M1485 0l-336 555h-161v-555h-387v1173h-544v315h931v-564h143l335 564h493l-495 -709l539 -779h-518z" />
    <glyph glyph-name="elcyrillic" unicode="&#x43b;" horiz-adv-x="1553" 
d="M368 1488h1117v-1488h-390v1176h-360l-25 -438q-22 -405 -150 -571.5t-367 -166.5h-118l-3 319l50 4q114 11 161 133.5t60 399.5z" />
    <glyph glyph-name="uni04C6" unicode="&#x4c6;" horiz-adv-x="1983" 
d="M437 1488h1117v-1488h-390v1176h-360l-25 -438q-22 -405 -150 -571.5t-367 -166.5h-118l-3 319l50 4q114 11 161 133.5t60 399.5zM1889 254v-259q-1 -157 -71 -307t-176 -257l-216 89l91 204.5t45 250.5v279h327z" />
    <glyph glyph-name="uni052F" unicode="&#x52f;" horiz-adv-x="1983" 
d="M433 1488h1117v-1208h300v-773h-390v493h-300v1176h-359l-25 -438q-21 -405 -149 -571.5t-368 -166.5h-119l-3 319l51 4q113 11 160.5 133.5t59.5 399.5z" />
    <glyph glyph-name="emcyrillic" unicode="&#x43c;" horiz-adv-x="2065" 
d="M1028 463l398 1025h486v-1488h-388v921l-364 -921h-262l-355 909v-909h-389v1488h483z" />
    <glyph glyph-name="uni04CE" unicode="&#x4ce;" horiz-adv-x="2495" 
d="M1054 463l398 1025h486v-1488h-388v921l-364 -921h-262l-355 909v-909h-389v1488h483zM2342 254v-259q-1 -157 -70.5 -307t-176.5 -257l-216 89l91.5 204.5t44.5 250.5v279h327z" />
    <glyph glyph-name="encyrillic" unicode="&#x43d;" horiz-adv-x="1553" 
d="M524 1488v-599h504v599h390v-1488h-390v576h-504v-576h-390v1488h390z" />
    <glyph glyph-name="endescendercyrillic" unicode="&#x4a3;" horiz-adv-x="1983" 
d="M568 1488v-599h504v599h390v-1208h353v-773h-377v493h-366v576h-504v-576h-390v1488h390z" />
    <glyph glyph-name="enghecyrillic" unicode="&#x4a5;" horiz-adv-x="2065" 
d="M525 1488v-599h504v599h896v-312h-506v-1176h-390v576h-504v-576h-390v1488h390z" />
    <glyph glyph-name="enhookcyrillic" unicode="&#x4c8;" horiz-adv-x="1553" 
d="M134 1488h390v-599h504v599h390v-1541q0 -266 -137.5 -406.5t-378.5 -140.5q-52 0 -98 4t-98 16l20 308q31 -9 66.5 -12.5t71.5 -3.5q164 0 164 235v629h-504v-576h-390v1488z" />
    <glyph glyph-name="uni04CA" unicode="&#x4ca;" horiz-adv-x="1983" 
d="M554 1488v-599h504v599h390v-1488h-390v576h-504v-576h-390v1488h390zM1844 254v-259q-1 -157 -70.5 -307t-176.5 -257l-216 89l91.5 204.5t44.5 250.5v279h327z" />
    <glyph glyph-name="pecyrillic" unicode="&#x43f;" horiz-adv-x="1553" 
d="M1421 1488v-1488h-389v1176h-510v-1176h-388v1488h1287z" />
    <glyph glyph-name="tecyrillic" unicode="&#x442;" horiz-adv-x="1553" 
d="M1447 1488v-311h-478v-1177h-390v1177h-470v311h1338z" />
    <glyph glyph-name="efcyrillic" unicode="&#x444;" horiz-adv-x="2239" 
d="M188 704v28q0 230 63 407t185 277t301 100q103 0 185 -38v634h387v-637q85 41 192 41q180 0 302.5 -100t185 -277t62.5 -407v-28q0 -214 -62.5 -379t-184.5 -259t-301 -94q-108 0 -194 39v-583h-387v581q-83 -37 -186 -37q-178 0 -300 94t-185 259t-63 379zM1661 704v28
q0 129 -26 236t-83.5 171.5t-153.5 64.5q-49 0 -89 -11v-897q41 -9 91 -9q146 0 203.5 120t57.5 297zM578 732v-28q0 -177 55.5 -297t201.5 -120q48 0 87 9v898q-40 10 -87 10q-95 0 -151 -64.5t-81 -171.5t-25 -236z" />
    <glyph glyph-name="uni04FD" unicode="&#x4fd;" horiz-adv-x="1737" 
d="M1312 347h377v-400q0 -259 -135 -403t-377 -144q-53 0 -97.5 4t-95.5 16l20 311q28 -9 63 -13t72 -4q79 0 126 59.5t47 173.5v53h-311l-284 487l-281 -487h-405l442 768l-428 768h405l267 -500l273 500h403l-434 -768l353 -609v188z" />
    <glyph glyph-name="hadescendercyrillic" unicode="&#x4b3;" horiz-adv-x="1727" 
d="M1598 280v-773h-377v493h-86l-284 487l-281 -487h-405l442 768l-428 768h405l267 -500l273 500h403l-434 -768l283 -488h222z" />
    <glyph glyph-name="tsecyrillic" unicode="&#x446;" horiz-adv-x="1809" 
d="M151 0v1488h390v-1173h508v1173h389v-1176h219l-25 -752h-361v440h-1120z" />
    <glyph glyph-name="dzhecyrillic" unicode="&#x45f;" horiz-adv-x="1553" 
d="M134 1488h388v-1173h510v1173h389v-1488h-450v-495h-387v495h-450v1488z" />
    <glyph glyph-name="checyrillic" unicode="&#x447;" horiz-adv-x="1553" 
d="M1417 1488v-1488h-389v473q-116 -24 -216 -24q-314 0 -494 138t-180 434v468h388v-468q0 -149 68 -202.5t218 -53.5q108 0 216 23v700h389z" />
    <glyph glyph-name="chedescendercyrillic" unicode="&#x4b7;" horiz-adv-x="1983" 
d="M1795 280v-773h-377v493h-324v473q-116 -24 -216 -24q-314 0 -494 138t-180 434v468h388v-468q0 -149 68 -202.5t218 -53.5q108 0 216 23v700h389v-1208h312z" />
    <glyph glyph-name="cheverticalstrokecyrillic" unicode="&#x4b9;" horiz-adv-x="1553" 
d="M898 1136v-367q65 5 131 19v700h389v-1488h-389v473q-67 -14 -131 -20v-202h-231v206q-249 29 -388.5 166.5t-139.5 397.5v468h388v-468q0 -105 33.5 -161.5t106.5 -77.5v354h231z" />
    <glyph glyph-name="shacyrillic" unicode="&#x448;" horiz-adv-x="2321" 
d="M160 1488h391v-1173h416v1173h390v-1173h413v1173h390v-1488h-2000v1488z" />
    <glyph glyph-name="shchacyrillic" unicode="&#x449;" horiz-adv-x="2751" 
d="M219 1488h390v-1173h416v1173h391v-1173h412v1173h391v-1176h302l-28 -752h-361v440h-1913v1488z" />
    <glyph glyph-name="softsigncyrillic" unicode="&#x44c;" horiz-adv-x="1727" 
d="M1520 523q0 -151 -75 -269.5t-217 -186t-342 -67.5h-680v1488h390v-440h290q300 0 467 -146t167 -379zM596 312h290q134 0 190.5 62t56.5 145q0 88 -56.5 152.5t-190.5 64.5h-290v-424z" />
    <glyph glyph-name="hardsigncyrillic" unicode="&#x44a;" horiz-adv-x="1983" 
d="M124 1173v315h824v-440h290q300 0 467 -146t167 -379q0 -151 -75 -269.5t-217 -186t-342 -67.5h-680v1173h-434zM948 312h290q134 0 190.5 62t56.5 145q0 88 -56.5 152.5t-190.5 64.5h-290v-424z" />
    <glyph glyph-name="yericyrillic" unicode="&#x44b;" horiz-adv-x="2321" 
d="M2102 1536v-1536h-388v1536h388zM1508 523q0 -151 -75 -269.5t-217 -186t-342 -67.5h-680v1488h390v-440h290q300 0 467 -146t167 -379zM584 312h290q134 0 190.5 62t56.5 145q0 88 -56.5 152.5t-190.5 64.5h-290v-424z" />
    <glyph glyph-name="uni048D" unicode="&#x48d;" horiz-adv-x="1727" 
d="M1065 2004v-250h-358v-669h289q301 0 468 -151.5t167 -387.5q0 -239 -167 -392.5t-468 -153.5h-680v1754h-220v250h220v222h391v-222h358zM707 312h289q134 0 190.5 69t56.5 161q0 91 -56.5 160.5t-190.5 69.5h-289v-460z" />
    <glyph glyph-name="yatcyrillic" unicode="&#x463;" horiz-adv-x="1727" 
d="M1065 1738v-250h-358v-403h289q301 0 468 -151.5t167 -387.5q0 -239 -167 -392.5t-468 -153.5h-680v1488h-220v250h220v409h391v-409h358zM707 312h289q134 0 190.5 69t56.5 161q0 91 -56.5 160.5t-190.5 69.5h-289v-460z" />
    <glyph glyph-name="ljecyrillic" unicode="&#x459;" horiz-adv-x="2577" 
d="M428 1488h1100v-476h286q303 0 469 -141t166 -362q0 -223 -166 -366t-469 -143h-676v1176h-345l-23 -438q-22 -405 -150 -571.5t-370 -166.5h-117l-5 319l53 4q113 11 159.5 133.5t59.5 399.5zM1528 311h286q134 0 191 60.5t57 138.5q0 76 -57 133t-191 57h-286v-389z
" />
    <glyph glyph-name="njecyrillic" unicode="&#x45a;" horiz-adv-x="2577" 
d="M575 1488v-572h505v572h389v-477h287q303 0 470.5 -140.5t167.5 -361.5q0 -223 -167.5 -366t-470.5 -143h-676v603h-505v-603h-389v1488h389zM1469 311h287q134 0 191 60.5t57 138.5q0 76 -57 133t-191 57h-287v-389z" />
    <glyph glyph-name="ereversedcyrillic" unicode="&#x44d;" horiz-adv-x="1553" 
d="M738 1204q-108 0 -175 -63t-67 -163h-366q0 154 81.5 276t219.5 192t307 70q224 0 376.5 -101t231 -271.5t78.5 -379.5v-40q0 -210 -78.5 -380.5t-231 -271t-376.5 -100.5q-179 0 -316 71t-214.5 201t-77.5 306h366q0 -109 63.5 -186t178.5 -77q144 0 210 101t80 241
h-408v242h408q-15 138 -80.5 235.5t-209.5 97.5z" />
    <glyph glyph-name="iucyrillic" unicode="&#x44e;" horiz-adv-x="2264" 
d="M1429 -29q-290 0 -475 173t-228 456h-253v-600h-388v1536h388v-620h251q40 290 226 465t479 175q221 0 381 -100t247 -278t87 -413q0 -233 -87 -412.5t-247 -280.5t-381 -101zM1429 289q182 0 262.5 136t80.5 340q0 205 -80.5 340.5t-262.5 135.5q-181 0 -262 -135.5
t-81 -340.5q0 -204 81 -340t262 -136z" />
    <glyph glyph-name="iacyrillic" unicode="&#x44f;" horiz-adv-x="1553" 
d="M791 1488h654v-1488h-390v519h-261l-290 -519h-393l327 586q-133 60 -206 167t-73 241q0 143 76 254.5t217.5 175.5t338.5 64zM782 793h273v384h-264q-125 0 -183.5 -62.5t-58.5 -131.5q0 -68 56 -129t177 -61z" />
    <glyph glyph-name="ghemiddlehookcyrillic" unicode="&#x495;" horiz-adv-x="1553" 
d="M1169 1488v-312h-633v-262h100q226 0 399 -74t271 -223t98 -373q2 -108 -50 -234t-165.5 -235t-294.5 -167l-161 261q138 59 210.5 149t74.5 226q-2 177 -104.5 264.5t-277.5 87.5h-100v-596h-377v1488h1010z" />
    <glyph glyph-name="pemiddlehookcyrillic" unicode="&#x4a7;" horiz-adv-x="2577" 
d="M1446 1488v-563h171q233 0 413 -74.5t282 -223.5t102 -372q2 -110 -51 -236t-167 -235.5t-295 -167.5l-159 261q139 60 210.5 150.5t73.5 227.5q-1 175 -111.5 262t-297.5 87h-171v-604h-389v1176h-511v-1176h-387v1488h1287z" />
    <glyph glyph-name="ecyrillic" unicode="&#x454;" horiz-adv-x="1566" 
d="M894 882v-245h-434q23 -160 106 -254t228 -94q116 0 188.5 61.5t101.5 165.5l363 -52q-46 -220 -219.5 -356.5t-433.5 -136.5q-222 0 -382.5 102t-246.5 281.5t-86 413.5q0 232 87 409.5t247 278t380 100.5q262 0 438.5 -139t218.5 -371l-361 -54q-27 109 -97 179
t-198 70q-148 0 -232 -97t-104 -262h436z" />
    <glyph glyph-name="haabkhasiancyrillic" unicode="&#x4a9;" horiz-adv-x="1983" 
d="M1801 193v-228q-140 0 -259.5 19t-218.5 55q-165 -67 -364 -67q-231 0 -405 100.5t-271 273t-97 388.5v130q0 186 73 333.5t203 233t303 85.5v-323q-80 -11 -125 -99t-45 -230v-130q0 -186 95.5 -309.5t261.5 -126.5q-139 184 -139 437v208q0 163 58 292.5t163 205.5
t246 76q147 0 256.5 -84t170 -227.5t60.5 -323.5v-198q0 -138 -48 -258t-136 -213q102 -20 218 -20zM1106 717q0 -194 132 -329q142 113 142 315v202q0 121 -37.5 203.5t-100.5 82.5q-64 0 -100 -74.5t-36 -185.5v-214z" />
    <glyph glyph-name="tetsecyrillic" unicode="&#x4b5;" horiz-adv-x="2065" 
d="M413 0v1173h-288v315h973v-315h-294v-858h507v1173h389v-1176h220l-26 -752h-361v440h-1120z" />
    <glyph glyph-name="cheabkhasiancyrillic" unicode="&#x4bd;" horiz-adv-x="1809" 
d="M1147 -29q-321 0 -515.5 180t-223.5 495q-190 41 -291.5 181.5t-101.5 357.5h245q0 -100 38.5 -171t116.5 -105q41 288 226.5 467.5t489.5 179.5q195 0 350.5 -82t246 -246t90.5 -410v-163h-1040q19 -171 109.5 -268.5t256.5 -97.5q139 0 209.5 63.5t101.5 149.5l347 -94
q-28 -106 -106 -206t-214 -165.5t-335 -65.5zM1128 1241q-134 0 -221 -84t-118 -235h661q0 136 -84.5 227.5t-237.5 91.5z" />
    <glyph glyph-name="dzeabkhasiancyrillic" unicode="&#x4e1;" horiz-adv-x="1727" 
d="M227 1488h1302v-255l-495 -555q258 -42 399 -204.5t141 -429.5q0 -186 -94 -317.5t-258 -201t-375 -69.5q-127 0 -250.5 34t-224 105t-160 181.5t-59.5 263.5h390q0 -112 82.5 -192t221.5 -80q160 0 249 82t89 201q0 203 -100.5 289t-290.5 86h-189v252l466 498h-844v312
z" />
    <glyph glyph-name="izhitsacyrillic" unicode="&#x475;" horiz-adv-x="1553" 
d="M752 560l134 503q66 221 178 337t285 116q39 0 75 -4.5t68 -20.5l-34 -309q-4 2 -27 4.5t-40 2.5q-51 0 -92.5 -42.5t-58.5 -99.5l-327 -1047h-369l-483 1488h408l230 -928l27 -143z" />
    <glyph glyph-name="dollar" unicode="$" horiz-adv-x="1820" 
d="M811 -256l3 227q-193 13 -352.5 89t-256 216t-99.5 344h386q8 -140 97 -219t229 -95l7 587l-92 27q-250 75 -409.5 217.5t-159.5 363.5q0 163 87.5 288t240.5 199.5t348 85.5l3 230h190l-3 -235q268 -33 433 -194.5t170 -408.5h-376q-21 213 -231 263l-7 -539l22 -7
q289 -95 445 -234.5t156 -377.5q0 -254 -173 -412t-465 -185l-3 -230h-190zM549 1501q0 -88 75 -144t206 -104l6 485q-130 -14 -208.5 -78t-78.5 -159zM1260 568q0 84 -57 145t-188 115l-7 -515q122 25 187 95.5t65 159.5z" />
    <glyph glyph-name="cent" unicode="&#xa2;" horiz-adv-x="1583" 
d="M1481 1046l-361 -54q-27 109 -97 179t-198 70q-172 0 -257.5 -129.5t-85.5 -343.5q0 -216 85 -347.5t258 -131.5q116 0 188.5 61.5t101.5 165.5l363 -52q-40 -190 -176.5 -319.5t-343.5 -163.5v-317h-258v316q-185 28 -317 135t-202.5 274.5t-70.5 378.5q0 209 71 374.5
t203.5 271t315.5 133.5v265h258v-266q209 -34 348 -166t175 -334z" />
    <glyph glyph-name="yen" unicode="&#xa5;" horiz-adv-x="1558" 
d="M1371 654v-234h-402v-420h-392v420h-426v234h426v162h-426v234h338l-452 998h410l332 -820l332 820h409l-454 -998h305v-234h-402v-162h402z" />
    <glyph glyph-name="sterling" unicode="&#xa3;" horiz-adv-x="1809" 
d="M1222 812h-431l8 -206q8 -171 -81 -274h895v-332h-1432v332h121q47 6 70 47t30.5 97t5.5 111l-7 225h-225v318h215l-11 331q-6 197 74.5 334.5t223 209t321.5 71.5q202 0 345.5 -78.5t215.5 -213t60 -302.5l-371 20q7 134 -67 192.5t-174 58.5q-99 0 -170 -71t-71 -221
l12 -331h443v-318z" />
    <glyph glyph-name="florin" unicode="&#x192;" horiz-adv-x="1240" 
d="M1064 1488v-283h-288v-1277q0 -258 -130.5 -393t-365.5 -135q-50 0 -96 4t-98 16l20 308q21 -7 62.5 -11.5t65.5 -4.5q87 0 124 56t37 160v1277h-226v283h226v130q0 256 142.5 389t386.5 133q58 0 118.5 -9t111.5 -22l-41 -300q-29 6 -59 9.5t-72 3.5q-206 0 -206 -204
v-130h288z" />
    <glyph glyph-name="uni20BA" unicode="&#x20ba;" horiz-adv-x="1742" 
d="M1203 945h398q0 -312 -108.5 -529.5t-300.5 -330.5t-444 -113q-116 0 -215 6t-170 17v904l-224 -76v286l224 76v171l-224 -76v286l224 76v406h392v-272l324 111v-289l-324 -110v-171l324 110v-286l-324 -110v-729q206 3 327 157t121 486z" />
    <glyph glyph-name="uni20BD" unicode="&#x20bd;" horiz-adv-x="2047" 
d="M1237 616v-324h-439v-292h-392v292h-288v324h288v143h-288v323h288v966h768q235 0 400 -85.5t252 -233t87 -333.5q0 -192 -88.5 -335t-254.5 -222.5t-396 -79.5h-376v-143h439zM798 1722v-640h365q191 0 272 88t81 224q0 140 -84.5 234t-257.5 94h-376z" />
    <glyph glyph-name="Euro" unicode="&#x20ac;" horiz-adv-x="1867" 
d="M1285 924l-103 -219h-427q50 -193 163 -284.5t269 -91.5q130 0 224.5 48.5t153.5 94.5l149 -316q-105 -91 -240.5 -137.5t-286.5 -46.5q-314 0 -536.5 192t-294.5 541h-281l77 219h176q-3 48 -3 97q0 52 3 103h-253l77 216h204q73 350 295.5 543t535.5 193q155 0 290 -49
t243 -141l-147 -317q-64 50 -160.5 100t-225.5 50q-156 0 -268.5 -93t-162.5 -286h715l-98 -216h-650q-3 -50 -3 -103q0 -50 3 -97h562z" />
    <glyph glyph-name="uni20B9" unicode="&#x20b9;" horiz-adv-x="1553" 
d="M795 0l-672 831l-1 233h334q135 0 218 56.5t112 154.5h-695l71 270h615q-33 82 -111 129t-210 47h-365l79 327h1296l-74 -273l-292 1q66 -100 87 -231h276l-71 -270h-207q-33 -195 -166 -322t-392 -172l605 -762v-19h-437z" />
    <glyph glyph-name="tenge" unicode="&#x20b8;" horiz-adv-x="1819" 
d="M1721 2048v-326h-1620v326h1620zM1721 1561v-326h-620v-1235h-392v1235h-608v326h1620z" />
    <glyph glyph-name="peseta" unicode="&#x20a7;" horiz-adv-x="3424" 
d="M728 740h-156v-740h-395v2048h551q318 0 495.5 -143.5t214.5 -368.5h146v328h388v-328h268v-197q77 103 215.5 160t319.5 57q256 0 396 -114t175 -323l-353 -36q-13 76 -75.5 125t-158.5 49q-89 0 -154 -41.5t-65 -113.5q0 -65 48 -103t126 -57l272 -61q165 -39 277 -135
t112 -281q0 -159 -84.5 -269.5t-230.5 -167.5t-328 -57q-155 0 -271.5 41t-196.5 117l23 -110q-22 -9 -91.5 -24t-176.5 -15q-117 0 -216 51.5t-159 148t-60 231.5v837h-152q-46 -223 -222 -365.5t-482 -142.5zM572 1716v-647h156q120 0 189.5 52t99 130.5t29.5 157.5
q0 77 -29.5 147.5t-99 115t-189.5 44.5h-156zM2478 477q26 -105 99 -158.5t173 -53.5q101 0 166 44.5t65 111.5q0 79 -48.5 110t-115.5 48l-256 61q-172 44 -288 149t-116 288q0 92 32 171h-217v-778q0 -107 45.5 -135.5t109.5 -28.5h20q-24 60 -37 129z" />
    <glyph glyph-name="peso" unicode="&#x20b1;" horiz-adv-x="2241" 
d="M1145 683h-366v-683h-392v1093h-231v220h231v86h-231v220h231v429h757q274 0 452 -119.5t249 -309.5h262v-220h-219q1 -18 1 -37q0 -25 -1 -49h219v-220h-268q-73 -183 -249 -296.5t-445 -113.5zM779 1722v-103h629q-42 47 -107 75t-157 28h-365zM1493 1359q0 20 -1 40
h-713v-86h712q2 22 2 46zM1145 1006q85 0 146.5 23.5t103.5 63.5h-616v-87h366z" />
    <glyph glyph-name="kip" unicode="&#x20ad;" horiz-adv-x="2177" 
d="M1612 0l-603 823l-245 -270v-553h-395v935h-292v334h292v779h395v-779h143l703 779h517l-719 -779h569v-334h-589l698 -935h-474z" />
    <glyph glyph-name="won" unicode="&#x20a9;" horiz-adv-x="2824" 
d="M459 2048l150 -593h466l154 593h367l153 -593h467l149 593h367l-154 -593h143v-220h-201l-48 -186h249v-220h-306l-216 -829h-403l-223 829h-322l-223 -829h-403l-215 829h-307v220h250l-49 186h-201v220h144l-154 593h366zM711 1049h258l49 186h-354zM1311 1049h202
l-50 186h-102zM1855 1049h259l47 186h-355zM830 579h17l65 250h-145zM1977 576h18l64 253h-147z" />
    <glyph glyph-name="lira" unicode="&#x20a4;" horiz-adv-x="1809" 
d="M1192 859v-215h-395l2 -46q3 -82 -13.5 -150t-60.5 -122h907v-326h-1453v326h124q66 16 84.5 93.5t15.5 159.5l-2 65h-225v215h219l-5 156h-214v215h208l-7 245q-6 190 73 324.5t222 205.5t329 71q297 0 459 -157.5t162 -413.5h-374q0 137 -78 190.5t-175 53.5
q-92 0 -161.5 -68.5t-69.5 -205.5l10 -245h418v-215h-410l7 -156h403z" />
    <glyph glyph-name="austral" unicode="&#x20b3;" horiz-adv-x="2084" 
d="M501 0h-424l162 439h-115v315h231l72 195h-303v313h418l290 786h419l290 -786h418v-313h-303l72 -195h231v-315h-115l162 -439h-423l-149 436h-784zM1030 1550l-98 -288h220l-98 288h-24zM760 760h564l-65 189h-434z" />
    <glyph glyph-name="hryvnia" unicode="&#x20b4;" horiz-adv-x="1981" 
d="M1004 1750q-126 0 -186 -54.5t-65 -150.5h-401q14 247 170.5 389t475.5 142q305 0 470.5 -127.5t165.5 -343.5q0 -60 -20.5 -114.5t-54.5 -101.5h205v-275h-1544v275h939q39 41 61 88t22 103q0 77 -60.5 123.5t-177.5 46.5zM996 -28q-332 0 -501.5 130.5t-169.5 360.5
q0 60 21.5 118t57.5 106h-184v269h1544v-269h-957q-84 -84 -84 -197q0 -92 72.5 -142t200.5 -50q125 0 203 50t84 173h404q-14 -287 -184.5 -418t-506.5 -131z" />
    <glyph glyph-name="naira" unicode="&#x20a6;" horiz-adv-x="2342" 
d="M2265 912v-220h-275v-692h-387l-424 692h-432v-692h-395v692h-275v220h275v222h-275v220h275v694h389l424 -694h432v694h393v-694h275v-220h-275v-222h275zM747 1370v-16h27l-10 16h-17zM747 912h297l-135 222h-162v-222zM1434 912h163v222h-298zM1579 675h18v17h-28z
" />
    <glyph glyph-name="guarani" unicode="&#x20b2;" horiz-adv-x="2029" 
d="M1886 1070v-301q0 -218 -93.5 -386t-255 -272t-364.5 -131v-236h-271v238q-224 31 -397 163t-271.5 353.5t-98.5 522.5q0 305 98.5 528.5t272 355.5t396.5 162v237h271v-238q248 -37 434 -200.5t269 -438.5l-399 -43q-41 129 -121 207t-183 108v-629h713zM530 1021
q0 -301 104 -465t268 -209v1356q-163 -44 -267.5 -210.5t-104.5 -471.5zM1502 769h-329v-425q145 36 237 147.5t92 277.5z" />
    <glyph glyph-name="coloncurrency" unicode="&#x20a1;" horiz-adv-x="2004" 
d="M1881 1405l-384 -43l-10 35l-311 -1051q114 30 197.5 113.5t118.5 218.5l387 -43q-74 -310 -295 -482.5t-518 -180.5l-68 -228h-291l77 262q-65 18 -125 45l-91 -307h-289l140 475q-133 135 -209 338t-76 464q0 315 107 544.5t294.5 360t429.5 147.5l68 231h292l-74 -251
q65 -15 126 -39l86 290h292l-131 -444q92 -84 158 -198.5t99 -256.5zM765 409q55 -38 121 -58l388 1312q-58 31 -125 45zM529 1021q0 -171 37 -304l284 967q-145 -59 -233 -222.5t-88 -440.5z" />
    <glyph glyph-name="cedi" unicode="&#x20b5;" horiz-adv-x="2004" 
d="M1882 1405l-384 -43q-36 141 -122.5 226.5t-204.5 114.5v-1358q116 29 201.5 112.5t120.5 220.5l387 -43q-67 -282 -257.5 -451t-451.5 -203v-237h-313v245q-213 40 -376 174t-255 351t-92 507q0 291 92 509.5t255 353.5t376 175v245h313v-237q261 -35 452.5 -205.5
t258.5 -456.5zM530 1021q0 -279 90 -441.5t238 -218.5v1326q-148 -58 -238 -222t-90 -444z" />
    <glyph glyph-name="cruzeiro" unicode="&#x20a2;" horiz-adv-x="2013" 
d="M1741 1164l-121 -316q-16 9 -53 19.5t-82 10.5q-92 0 -158 -47.5t-101.5 -123t-36.5 -160.5v-197q110 32 190 114t114 214l387 -43q-50 -211 -171 -359.5t-293 -226t-377 -77.5q-261 0 -465 125t-321.5 360t-117.5 564q0 331 117.5 567t321.5 362t465 126
q205 0 378 -78.5t294 -228.5t171 -364l-384 -43q-45 178 -170.5 267.5t-288.5 89.5q-221 0 -365 -169.5t-144 -528.5q0 -273 86 -434t228 -221v824h345v-218h13q33 117 127.5 178t207.5 61q60 0 115 -14t89 -33z" />
    <glyph glyph-name="tugrik" unicode="&#x20ae;" horiz-adv-x="1773" 
d="M1358 1008v-273l-276 -94v-641h-392v508l-274 -93v275l274 92v185l-274 -92v273l274 93v475h-614v332h1620v-332h-614v-342l276 94v-276l-276 -93v-184z" />
    <glyph glyph-name="uni20AF" unicode="&#x20af;" horiz-adv-x="3775" 
d="M1095 484q0 -22 -1 -42q74 -64 156 -109.5t189 -45.5q155 0 240 85.5t119 238.5t34 357v96q0 208 -57.5 365.5t-182 246t-325.5 88.5q-85 0 -172 -6v-1274zM2308 -572v1379q0 357 182 546.5t486 189.5q238 0 384.5 -107.5t214 -288.5t67.5 -401v-28q0 -223 -71 -391
t-204 -261.5t-319 -93.5q-124 0 -213 43.5t-152 123.5l2 -711h-377zM2682 776v-77q2 -93 27 -188t87 -159.5t175 -64.5q158 0 224.5 124.5t66.5 306.5v28q0 130 -29.5 237t-95 170.5t-171.5 63.5q-101 0 -163.5 -60.5t-91.5 -160.5t-29 -220zM443 345q0 -56 37.5 -85.5
t90.5 -29.5q71 0 102.5 43t31.5 112v17q-33 26 -66 40.5t-69 14.5q-53 -1 -90 -29.5t-37 -82.5zM1095 2304v-235q99 7 194 7q300 0 508 -134.5t316 -364.5t108 -517v-92q0 -484 -205 -740t-577 -256q-148 0 -256.5 46.5t-191.5 112.5q-60 -73 -161 -116t-255 -43
q-235 0 -358.5 106t-123.5 278q0 176 118.5 275.5t330.5 99.5q86 0 163 -23v994q-87 -17 -180.5 -39l-196.5 -48v316q95 25 189.5 46.5t187.5 39.5v287h390z" />
    <glyph glyph-name="mill" unicode="&#x20a5;" horiz-adv-x="2358" 
d="M1403 956v-956h-379v243l-166 -415h-289l455 1133v13q0 140 -65 201t-166 61q-96 0 -168 -70t-72 -215v-951h-389v1536h380v-195h14q56 87 156.5 151t243.5 64q161 0 270 -87l117 291h285l-110 -275q56 32 125 51.5t147 19.5q130 0 235.5 -57.5t168.5 -185.5t63 -339
v-974h-389v977q0 147 -70 203t-156 56q-113 0 -177 -71.5t-64 -208.5z" />
    <glyph glyph-name="afii57636" unicode="&#x20aa;" horiz-adv-x="2483" 
d="M191 1536h1004q271 0 397.5 -132.5t126.5 -374.5v-519h-382v519q0 103 -42 149t-143 46h-580v-1224h-381v1536zM764 0v1026h381v-714h580q101 0 143.5 46t42.5 149v1010h381v-1010q0 -242 -126.5 -374.5t-396.5 -132.5h-1005z" />
    <glyph glyph-name="manat" unicode="&#x20bc;" horiz-adv-x="2065" 
d="M1897 0h-380v236q0 242 -79 398.5t-214 219.5v-854h-381v854q-135 -62 -215.5 -218.5t-80.5 -399.5v-236h-377v233q0 263 85.5 464t237 328t350.5 169v342h381v-342q200 -42 351.5 -169t236.5 -328t85 -464v-233z" />
    <glyph glyph-name="rupee" unicode="&#x20a8;" horiz-adv-x="3240" 
d="M1336 0l-380 766h-343v-766h-395v2048h755q364 0 542.5 -175t178.5 -461q0 -213 -94.5 -353t-249.5 -217l424 -842h-438zM613 1716v-619h351q170 0 254.5 80t84.5 227q0 136 -78.5 224t-251.5 88h-360zM3031 1119l-353 -36q-15 76 -83.5 129.5t-180.5 53.5
q-98 0 -172.5 -44.5t-74.5 -119.5q0 -65 56.5 -103.5t141.5 -57.5l285 -61q177 -39 294.5 -134.5t117.5 -280.5q0 -159 -89.5 -269t-242.5 -167.5t-344 -57.5q-289 0 -451.5 123.5t-207.5 340.5l371 42q28 -105 110 -161.5t195 -56.5t187 47.5t74 114.5q0 79 -57 110
t-130 48l-270 61q-185 44 -305 148.5t-120 288.5q0 223 179 351t469 128q270 0 417 -114t184 -323z" />
    <glyph glyph-name="lari" unicode="&#x20be;" horiz-adv-x="2065" 
d="M189 0v315h225l5 16q-116 117 -175.5 281t-59.5 359q0 319 148.5 536t397.5 299v242h226v-198q37 3 76 3q41 0 80 -3v198h228v-244q248 -86 395 -309.5t147 -554.5h-373q0 183 -44 305t-125 191v-496h-228v589q-38 5 -80 5q-40 0 -76 -4v-590h-226v501
q-81 -66 -125 -185.5t-44 -301.5q0 -292 127 -465.5t412 -173.5h773v-315h-1684z" />
    <glyph glyph-name="zero" unicode="0" horiz-adv-x="1702" 
d="M1565 1184v-294q0 -453 -196.5 -685.5t-515.5 -232.5q-322 0 -519 232.5t-197 685.5v294q0 290 90 489t251 301t374 102q212 0 373 -102t250.5 -301t89.5 -489zM1178 835v403q0 250 -87 381t-239 131t-240 -131t-88 -381v-403q0 -265 88.5 -399.5t240.5 -134.5
q150 0 237.5 134.5t87.5 399.5z" />
    <glyph glyph-name="zero.slash" horiz-adv-x="1691" 
d="M1565 1184v-294q0 -453 -196.5 -685.5t-515.5 -232.5q-322 0 -519 232.5t-197 685.5v294q0 290 90 489t251 301t374 102q212 0 373 -102t250.5 -301t89.5 -489zM524 835q0 -87 10 -161l498 1012q-74 64 -180 64q-152 0 -240 -131t-88 -381v-403zM1178 835v403
q0 76 -8 142l-501 -1012q76 -67 184 -67q150 0 237.5 134.5t87.5 399.5z" />
    <glyph glyph-name="one" unicode="1" horiz-adv-x="1361" 
d="M955 2048v-2048h-361v1536h-16q-32 -55 -138 -95.5t-272 -40.5v317q135 0 220 47.5t131 111t65 114.5t22 58h349z" />
    <glyph glyph-name="one.1" horiz-adv-x="1331" 
d="M925 2048v-2048h-361v1668h-12l-306 -177l-153 268l493 289h339z" />
    <glyph glyph-name="one.tnum" horiz-adv-x="1778" 
d="M354 0v332h443v1204h-16q-31 -55 -137 -95.5t-273 -40.5v317q135 0 220 47.5t131 111t64.5 114.5t21.5 58h350v-1716h404v-332h-1208z" />
    <glyph glyph-name="one.tnum.1" horiz-adv-x="1778" 
d="M354 0v332h432v1336h-12l-306 -177l-153 268l493 289h339v-1716h415v-332h-1208z" />
    <glyph glyph-name="two" unicode="2" horiz-adv-x="1691" 
d="M1540 332v-332h-1397v286l682 688q155 160 220 274t65 216q0 120 -77 209.5t-212 89.5q-148 0 -219 -109t-71 -260h-380q0 181 78.5 336.5t229.5 250.5t370 95q192 0 340.5 -76.5t232.5 -211.5t84 -311q0 -202 -121 -385t-317 -386l-354 -362v-12h846z" />
    <glyph glyph-name="two.tnum" horiz-adv-x="1778" 
d="M1584 332v-332h-1397v286l682 688q155 160 220 274t65 216q0 120 -77 209.5t-212 89.5q-148 0 -219 -109t-71 -260h-380q0 181 78.5 336.5t229.5 250.5t370 95q192 0 340.5 -76.5t232.5 -211.5t84 -311q0 -202 -121 -385t-317 -386l-354 -362v-12h846z" />
    <glyph glyph-name="twostroke" unicode="&#x1bb;" horiz-adv-x="1691" 
d="M1540 332v-332h-1397v286l610 615h-168v239h387q73 95 105.5 173t32.5 151q0 120 -77 209.5t-212 89.5q-148 0 -219 -109t-71 -260h-380q0 181 78.5 336.5t229.5 250.5t370 95q192 0 340.5 -76.5t232.5 -211.5t84 -311q0 -88 -24.5 -171.5t-68.5 -165.5h148v-239h-316
q-40 -48 -84.5 -96.5l-92.5 -98.5l-354 -362v-12h846z" />
    <glyph glyph-name="three" unicode="3" horiz-adv-x="1691" 
d="M631 861v335h187q153 0 231.5 88t78.5 214q0 116 -75 193t-214 77q-116 0 -198 -64t-82 -171h-377q0 163 84.5 285.5t231 190t331.5 67.5q200 0 352.5 -65.5t238 -192.5t85.5 -313q0 -132 -81 -262t-235 -204q178 -59 265 -185.5t87 -292.5q0 -187 -94.5 -318.5
t-256.5 -201t-363 -69.5q-171 0 -324.5 61t-250 187.5t-96.5 321.5h384q0 -114 83 -185.5t213 -71.5q145 0 234 76.5t89 205.5q0 163 -93 228.5t-248 65.5h-187z" />
    <glyph glyph-name="four" unicode="4" horiz-adv-x="1732" 
d="M1644 726v-331h-296v-395h-351v395h-896v259l851 1394h396v-1322h296zM513 726h484v834l-45 -87z" />
    <glyph glyph-name="four.1" horiz-adv-x="1778" 
d="M1636 726v-331h-288v-395h-351v395h-896v259l723 1394h366l-677 -1322h484v554h351v-554h288z" />
    <glyph glyph-name="four.tnum.1" horiz-adv-x="1778" 
d="M1636 726v-331h-288v-395h-351v395h-896v259l723 1394h366l-677 -1322h484v554h351v-554h288z" />
    <glyph glyph-name="five" unicode="5" horiz-adv-x="1691" 
d="M513 926l-314 77l120 1045h1131v-337h-815l-59 -501h9q37 40 120 78.5t200 38.5q180 0 319.5 -83.5t219 -233.5t79.5 -348q0 -185 -76.5 -342t-229.5 -252.5t-384 -95.5q-201 0 -349.5 78t-232 218t-89.5 326h379q16 -127 83 -218t211 -91q154 0 233.5 111.5t79.5 266.5
q0 183 -91.5 279t-248.5 96q-115 0 -183.5 -34.5t-111.5 -77.5z" />
    <glyph glyph-name="Tonefive" unicode="&#x1bc;" horiz-adv-x="1778" 
d="M633 926l-315 77l80 695h-282v320h319l3 30h1132v-337h-815l-60 -501h9q37 40 120.5 78.5t200.5 38.5q179 0 319 -83.5t219.5 -233.5t79.5 -348q0 -185 -76.5 -342t-230 -252.5t-384.5 -95.5q-200 0 -348.5 78t-232 218t-89.5 326h379q16 -127 83 -218t211 -91
q154 0 233.5 111.5t79.5 266.5q0 183 -92 279t-249 96q-114 0 -182.5 -34.5t-111.5 -77.5z" />
    <glyph glyph-name="six" unicode="6" horiz-adv-x="1683" 
d="M1117 1514q-28 102 -93 174.5t-192 72.5q-99 0 -174 -56t-120 -187.5t-54 -357.5q69 79 170.5 125.5t231.5 46.5q192 0 331 -94.5t214.5 -249t75.5 -334.5q0 -190 -83.5 -344.5t-235.5 -246t-359 -91.5q-323 0 -515.5 240t-192.5 692v76q0 335 64.5 583t218 384
t421.5 136q282 0 445.5 -152.5t215.5 -416.5h-369zM488 693q0 -208 99 -307.5t233 -99.5q140 0 225 99.5t85 268.5q0 157 -79.5 261t-236.5 104q-149 0 -237.5 -91.5t-88.5 -223.5v0v-11z" />
    <glyph glyph-name="six.1" horiz-adv-x="1691" 
d="M890 2048h416l-494 -736q74 20 156 20q186 0 311 -91t188.5 -244t63.5 -339q0 -194 -82.5 -349t-233.5 -246t-356 -91q-217 0 -371 102t-236 268t-82 356q0 158 54 290.5t155 284.5zM536 693q0 -201 89.5 -304t232.5 -103q134 0 217.5 103t83.5 267q0 157 -78.5 260
t-229.5 103q-153 0 -234 -94t-81 -221l-2 1z" />
    <glyph glyph-name="six.tnum.1" horiz-adv-x="1778" 
d="M927 2048h416l-494 -736q74 20 156 20q186 0 311.5 -91t188.5 -244t63 -339q0 -194 -82.5 -349t-233.5 -246t-356 -91q-216 0 -370.5 102t-236.5 268t-82 356q0 158 54 290.5t155 284.5zM573 693q0 -201 89.5 -304t232.5 -103q134 0 217.5 103t83.5 267q0 157 -78.5 260
t-229.5 103q-153 0 -234 -94t-81 -221l-2 1z" />
    <glyph glyph-name="seven" unicode="7" horiz-adv-x="1650" 
d="M1508 2048v-251l-758 -1797h-406l748 1713h-951v335h1367z" />
    <glyph glyph-name="seven.tnum" horiz-adv-x="1778" 
d="M1572 2048v-251l-758 -1797h-406l748 1713h-951v335h1367z" />
    <glyph glyph-name="eight" unicode="8" horiz-adv-x="1675" 
d="M1515 569q0 -192 -88.5 -325.5t-240.5 -202.5t-345 -69t-347 69t-244.5 202t-90.5 326q0 174 84.5 300.5t226.5 196.5q-123 67 -194 181t-71 267q0 184 82 309t225.5 189t326.5 64q185 0 328 -64t224.5 -189t81.5 -309q0 -153 -71.5 -267.5t-194.5 -181.5
q142 -70 225 -196.5t83 -299.5zM1096 1495q0 121 -72 192t-188 71q-112 0 -183.5 -69t-71.5 -193t72.5 -200.5t187.5 -76.5t185 76.5t70 199.5zM1135 594q0 140 -85.5 227t-213.5 87q-126 0 -212 -87t-86 -226q0 -137 86.5 -221.5t216.5 -84.5q131 0 212.5 84.5t81.5 220.5z
" />
    <glyph glyph-name="nine" unicode="9" horiz-adv-x="1683" 
d="M539 534q28 -102 93 -174.5t192 -72.5q99 0 174 56t120 187.5t54 357.5q-69 -79 -170.5 -125.5t-231.5 -46.5q-192 0 -331 94.5t-214.5 249t-75.5 334.5q0 190 83.5 344.5t235.5 246t359 91.5q323 0 515.5 -240t192.5 -692v-76q0 -335 -64.5 -583t-218 -384t-421.5 -136
q-282 0 -445.5 152.5t-215.5 416.5h369zM526 1394q0 -157 79.5 -261t236.5 -104q149 0 237.5 91.5t88.5 223.5v0v11q0 208 -99 307.5t-233 99.5q-140 0 -225 -99.5t-85 -268.5z" />
    <glyph glyph-name="nine.1" horiz-adv-x="1778" 
d="M809 0h-416l494 736q-74 -20 -156 -20q-186 0 -311.5 91t-188.5 244t-63 339q0 194 82.5 349t233.5 246t356 91q216 0 370.5 -102t236.5 -268t82 -356q0 -158 -54 -290.5t-155 -284.5zM540 1392q0 -157 78.5 -260t229.5 -103q153 0 234 94t81 221l2 -1l-2 12
q0 201 -89.5 304t-232.5 103q-134 0 -217.5 -103t-83.5 -267z" />
    <glyph glyph-name="nine.tnum.1" horiz-adv-x="1778" 
d="M818 0h-416l494 736q-74 -20 -156 -20q-186 0 -311 91t-188.5 244t-63.5 339q0 194 82.5 349t233.5 246t356 91q217 0 371 -102t236 -268t82 -356q0 -158 -54 -290.5t-155 -284.5zM549 1392q0 -157 78.5 -260t229.5 -103q153 0 234 94t81 221l2 -1l-2 12q0 201 -89.5 304
t-232.5 103q-134 0 -217.5 -103t-83.5 -267z" />
    <glyph glyph-name="ampersand" unicode="&#x26;" horiz-adv-x="1983" 
d="M1428 0l-109 128q-222 -156 -518 -156q-202 0 -348 74t-225 204t-79 299q0 180 102.5 300t267.5 237q-90 122 -144 231t-54 224q0 241 147 386.5t395 145.5q156 0 269.5 -64.5t175.5 -171.5t62 -235q0 -143 -74 -255t-192 -198l-131 -96l358 -426q39 76 60.5 164.5
t21.5 188.5h326q0 -182 -41.5 -340t-136.5 -286l298 -354h-431zM659 1546q0 -65 37.5 -132t96.5 -142l107 73q87 57 119 112.5t32 119.5t-51 122.5t-140 58.5q-95 0 -148 -62t-53 -150zM528 568q0 -119 81.5 -200.5t210.5 -81.5q152 0 289 90l-406 479l-37 -27
q-83 -70 -110.5 -136t-27.5 -124z" />
    <glyph glyph-name="exclam" unicode="!" horiz-adv-x="795" 
d="M604 2048l-44 -1431h-319l-45 1431h408zM397 -27q-101 0 -164 63t-63 157q0 93 63 156.5t164 63.5t166 -63.5t65 -156.5q0 -94 -65 -157t-166 -63z" />
    <glyph glyph-name="exclamdown" unicode="&#xa1;" horiz-adv-x="795" 
d="M397 1558q101 0 166 -63t65 -157q0 -93 -65 -156.5t-166 -63.5t-164 63.5t-63 156.5q0 94 63 157t164 63zM604 -517h-408l45 1431h319z" />
    <glyph glyph-name="question" unicode="?" horiz-adv-x="1553" 
d="M929 617h-335q0 183 44 299t109 191t130.5 133t109.5 121.5t44 159.5q0 120 -60.5 182t-170.5 62q-91 0 -163.5 -60.5t-73.5 -198.5h-383q2 194 84.5 320.5t222.5 188t313 61.5q286 0 448 -144.5t162 -400.5q0 -137 -48 -229.5t-118.5 -163l-142 -140.5t-121 -159.5
t-51.5 -221.5zM765 -21q-101 0 -165.5 63t-64.5 156t64.5 157t165.5 64q99 0 163.5 -64t64.5 -157t-64.5 -156t-163.5 -63z" />
    <glyph glyph-name="questiondown" unicode="&#xbf;" horiz-adv-x="1553" 
d="M798 1539q101 0 165.5 -63t64.5 -156t-64.5 -157t-165.5 -64q-99 0 -163.5 64t-64.5 157t64.5 156t163.5 63zM634 901h335q0 -183 -44 -299t-109.5 -191t-130.5 -133t-109 -121.5t-44 -159.5q0 -120 60.5 -182t170.5 -62q91 0 163 60.5t74 198.5h383q-1 -195 -84 -321
t-223 -187.5t-313 -61.5q-286 0 -448 144.5t-162 400.5q0 137 48 229.5t118.5 163l142 140.5t121 159.5t51.5 221.5z" />
    <glyph glyph-name="parenleft" unicode="(" horiz-adv-x="1026" 
d="M940 -384h-324q-110 148 -194.5 341.5t-133 416t-48.5 458.5t49 458.5t135.5 416t201.5 341.5h318q-180 -306 -260 -594.5t-80 -621.5q0 -321 79.5 -615.5t256.5 -600.5z" />
    <glyph glyph-name="parenleft.case" horiz-adv-x="1026" 
d="M940 -192h-324q-110 148 -194.5 341.5t-133 416t-48.5 458.5t49 458.5t135.5 416t201.5 341.5h318q-180 -306 -260 -594.5t-80 -621.5q0 -321 79.5 -615.5t256.5 -600.5z" />
    <glyph glyph-name="parenright" unicode=")" horiz-adv-x="1026" 
d="M59 -384q177 306 256.5 600.5t79.5 615.5q0 333 -80 621.5t-260 594.5h318q115 -148 201.5 -341.5t135.5 -416t49 -458.5t-48.5 -458.5t-133.5 -416t-194 -341.5h-324z" />
    <glyph glyph-name="parenright.case" horiz-adv-x="1026" 
d="M59 -192q177 306 256.5 600.5t79.5 615.5q0 333 -80 621.5t-260 594.5h318q115 -148 201.5 -341.5t135.5 -416t49 -458.5t-48.5 -458.5t-133.5 -416t-194 -341.5h-324z" />
    <glyph glyph-name="bracketleft" unicode="[" horiz-adv-x="1026" 
d="M912 2313v-301h-291v-2183h291v-299h-643v2783h643z" />
    <glyph glyph-name="bracketleft.case" horiz-adv-x="1026" 
d="M912 2414v-301h-291v-2183h291v-299h-643v2783h643z" />
    <glyph glyph-name="bracketleft_quill" unicode="&#x2045;" horiz-adv-x="1026" 
d="M912 1071v-299h-291v-943h291v-299h-643v2783h643v-301h-291v-941h291z" />
    <glyph glyph-name="bracketright" unicode="]" horiz-adv-x="1026" 
d="M114 2313h642v-2783h-642v299h291v2183h-291v301z" />
    <glyph glyph-name="bracketright.case" horiz-adv-x="1026" 
d="M114 2414h642v-2783h-642v299h291v2183h-291v301z" />
    <glyph glyph-name="bracketright_quill" unicode="&#x2046;" horiz-adv-x="1026" 
d="M114 2313h642v-2783h-642v299h291v943h-291v299h291v941h-291v301z" />
    <glyph glyph-name="braceleft" unicode="{" horiz-adv-x="1026" 
d="M913 -276l-75 -220q-188 54 -291.5 149.5t-144.5 222t-41 272.5v276q0 130 -58.5 209.5t-189.5 79.5v278q131 0 189.5 77.5t58.5 207.5v280q0 144 41 270.5t144.5 222t291.5 147.5l75 -216q-126 -45 -171 -159.5t-45 -264.5v-280q0 -136 -55.5 -247.5t-179.5 -176.5
q124 -65 179.5 -177.5t55.5 -250.5v-276q0 -150 45 -264.5t171 -159.5z" />
    <glyph glyph-name="braceleft.case" horiz-adv-x="1026" 
d="M913 -104l-75 -220q-188 54 -291.5 149.5t-144.5 222t-41 272.5v276q0 130 -58.5 209.5t-189.5 79.5v278q131 0 189.5 77.5t58.5 207.5v280q0 144 41 270.5t144.5 222t291.5 147.5l75 -216q-126 -45 -171 -159.5t-45 -264.5v-280q0 -136 -55.5 -247.5t-179.5 -176.5
q124 -65 179.5 -177.5t55.5 -250.5v-276q0 -150 45 -264.5t171 -159.5z" />
    <glyph glyph-name="braceright" unicode="}" horiz-adv-x="1026" 
d="M86 -276q126 45 171 159.5t45 264.5v276q0 138 55.5 250.5t179.5 177.5q-124 65 -179.5 176.5t-55.5 247.5v280q0 150 -45 264.5t-171 159.5l75 216q188 -52 291.5 -147.5t144.5 -222t41 -270.5v-280q0 -130 58.5 -207.5t189.5 -77.5v-278q-131 0 -189.5 -79.5
t-58.5 -209.5v-276q0 -146 -41 -272.5t-144.5 -222t-291.5 -149.5z" />
    <glyph glyph-name="braceright.case" horiz-adv-x="1026" 
d="M86 -104q126 45 171 159.5t45 264.5v276q0 138 55.5 250.5t179.5 177.5q-124 65 -179.5 176.5t-55.5 247.5v280q0 150 -45 264.5t-171 159.5l75 216q188 -52 291.5 -147.5t144.5 -222t41 -270.5v-280q0 -130 58.5 -207.5t189.5 -77.5v-278q-131 0 -189.5 -79.5
t-58.5 -209.5v-276q0 -146 -41 -272.5t-144.5 -222t-291.5 -149.5z" />
    <glyph glyph-name="at" unicode="@" horiz-adv-x="2780" 
d="M1439 2026q295 0 523.5 -89t386 -246t239 -364t81.5 -443q0 -254 -54 -457.5t-177 -322t-331 -118.5q-83 0 -156 13t-123 59t-63 146h-12q-25 -64 -97.5 -113t-167 -74.5t-188.5 -18.5q-255 19 -409.5 203.5t-154.5 534.5q0 212 81 359t205 229t253 101q107 15 203 -2.5
t161.5 -55t82.5 -81.5h12v112h291v-1002q0 -62 29.5 -83.5t69.5 -21.5q108 0 169.5 134.5t61.5 462.5q0 428 -239.5 635t-688.5 207q-298 0 -509.5 -131t-324 -360t-112.5 -523q0 -484 253.5 -740t740.5 -256q106 0 210.5 17t190.5 40.5t139 43.5l91 -268q-55 -31 -159 -62
t-230.5 -51.5t-249.5 -20.5q-639 0 -977 336.5t-338 968.5q0 386 154 679.5t442 458t691 164.5zM1364 1126q-144 0 -227.5 -109t-83.5 -269q-1 -126 25.5 -225t93 -156t184.5 -57q365 0 365 438q0 221 -99.5 300.5t-257.5 77.5z" />
    <glyph glyph-name="at.case" horiz-adv-x="2761" 
d="M1439 2315q295 0 523.5 -89t386 -246t239 -364t81.5 -443q0 -254 -54 -457.5t-177 -322t-331 -118.5q-83 0 -156 13t-123 59.5t-63 145.5h-12q-25 -63 -97.5 -112.5t-167 -75t-188.5 -18.5q-255 19 -409.5 203.5t-154.5 534.5q0 213 81 359.5t205 229t253 100.5
q107 16 203 -2t161.5 -55.5t82.5 -81.5h12v112h291v-1002q0 -61 29.5 -83t69.5 -22q108 0 169.5 134.5t61.5 462.5q0 427 -239.5 634.5t-688.5 207.5q-298 0 -509.5 -131t-324 -359.5t-112.5 -523.5q0 -484 253.5 -740t740.5 -256q106 0 210.5 17t190.5 40.5t139 43.5
l91 -268q-55 -32 -159 -62.5t-230.5 -51t-249.5 -20.5q-639 0 -977 336.5t-338 968.5q0 386 154 679.5t442 458t691 164.5zM1364 1415q-144 0 -227.5 -109t-83.5 -269q-1 -125 25.5 -224.5t93 -156.5t184.5 -57q365 0 365 438q0 221 -99.5 300t-257.5 78z" />
    <glyph glyph-name="numbersign" unicode="#" horiz-adv-x="1819" 
d="M360 0l88 565h-308l9 236h336l65 411h-310l9 238h338l89 568h244l-89 -568h295l89 568h248l-89 -568h306l-9 -238h-335l-64 -411h308l-9 -236h-336l-89 -565h-246l88 565h-295l-88 -565h-245zM730 801h295l64 411h-295z" />
    <glyph glyph-name="currency" unicode="&#xa4;" horiz-adv-x="2066" 
d="M212 836q0 144 40.5 272.5t112.5 234.5l-196 202l182 190l198 -200q101 76 224 118.5t258 42.5q136 0 259.5 -43t224.5 -121l198 203l186 -190l-202 -205q71 -105 111 -233t40 -271q0 -137 -36.5 -260.5t-102.5 -226.5l190 -190l-186 -190l-179 184
q-104 -86 -232.5 -133.5t-270.5 -47.5t-270 47t-232 131l-178 -181l-182 190l184 187q-67 104 -104 228t-37 262zM457 836q0 -170 77 -309t207 -220.5t290 -81.5q157 0 286.5 81.5t206.5 220.5t77 309q0 172 -77 310.5t-206.5 219.5t-286.5 81q-160 0 -290 -81t-207 -219.5
t-77 -310.5z" />
    <glyph glyph-name="slash" unicode="/" horiz-adv-x="1138" 
d="M1038 2048l-596 -2356h-343l596 2356h343z" />
    <glyph glyph-name="bar" unicode="|" horiz-adv-x="887" 
d="M617 2048v-2432h-348v2432h348z" />
    <glyph glyph-name="brokenbar" unicode="&#xa6;" horiz-adv-x="887" 
d="M617 2048v-948h-348v948h348zM269 568h348v-952h-348v952z" />
    <glyph glyph-name="backslash" unicode="\" horiz-adv-x="1128" 
d="M93 2048h344l596 -2356h-344z" />
    <glyph glyph-name="hyphenbullet" unicode="&#x2043;" horiz-adv-x="1297" 
d="M1136 1312v-576h-976v576h976z" />
    <glyph glyph-name="hyphen" unicode="-" horiz-adv-x="1307" 
d="M1145 1015v-293h-983v293h983z" />
    <glyph glyph-name="hyphen.case" horiz-adv-x="1297" 
d="M1145 1174v-293h-983v293h983z" />
    <glyph glyph-name="endash" unicode="&#x2013;" horiz-adv-x="1696" 
d="M1575 1012v-288h-1454v288h1454z" />
    <glyph glyph-name="endash.case" horiz-adv-x="1696" 
d="M1575 1168v-288h-1454v288h1454z" />
    <glyph glyph-name="figuredash" unicode="&#x2012;" horiz-adv-x="1811" 
d="M1802 1012v-288h-1792v288h1792z" />
    <glyph glyph-name="figuredash.case" horiz-adv-x="1811" 
d="M1802 1168v-288h-1792v288h1792z" />
    <glyph glyph-name="emdash" unicode="&#x2014;" horiz-adv-x="2843" 
d="M2701 1012v-288h-2560v288h2560z" />
    <glyph glyph-name="emdash.case" horiz-adv-x="2843" 
d="M2701 1168v-288h-2560v288h2560z" />
    <glyph glyph-name="bullet" unicode="&#x2022;" horiz-adv-x="1256" 
d="M1017 846q0 -110 -51 -198.5t-139.5 -140t-198.5 -51.5q-109 0 -197.5 51.5t-140.5 140t-52 198.5t52 198t140.5 140t197.5 52q110 0 198.5 -52t139.5 -140t51 -198z" />
    <glyph glyph-name="bullet.case" horiz-adv-x="1220" 
d="M1017 1010q0 -110 -51 -198.5t-139.5 -140t-198.5 -51.5q-109 0 -197.5 51.5t-140.5 140t-52 198.5t52 198t140.5 140t197.5 52q110 0 198.5 -52t139.5 -140t51 -198z" />
    <glyph glyph-name="quoteleft" unicode="&#x2018;" horiz-adv-x="657" 
d="M140 1408v210q0 134 73 277t179 232l174 -109q-50 -82 -89 -178t-39 -221v-211h-298z" />
    <glyph glyph-name="quoteright" unicode="&#x2019;" horiz-adv-x="657" 
d="M516 2048v-210q0 -134 -73 -277t-179 -232l-174 109q51 82 90 178t39 221v211h297z" />
    <glyph glyph-name="primetripl1" unicode="&#x2034;" horiz-adv-x="2075" 
d="M141 1664l249 484h401l-351 -484h-299zM714 1664l245 484h403l-350 -484h-298zM1284 1664l248 484h403l-350 -484h-301z" />
    <glyph glyph-name="quotesingle" unicode="'" horiz-adv-x="570" 
d="M425 2048v-764h-285v764h285z" />
    <glyph glyph-name="quotedbl" unicode="&#x22;" horiz-adv-x="1123" 
d="M435 2048v-764h-285v764h285zM947 2048v-764h-285v764h285z" />
    <glyph glyph-name="quotedblleft" unicode="&#x201c;" horiz-adv-x="1210" 
d="M150 1408v210q0 134 73 277t179 232l174 -109q-50 -82 -89 -178t-39 -221v-211h-298zM654 1408v210q0 134 73 277t179 232l174 -109q-50 -82 -89 -178t-39 -221v-211h-298z" />
    <glyph glyph-name="quotedblright" unicode="&#x201d;" horiz-adv-x="1210" 
d="M534 2048v-210q0 -134 -73 -277t-179 -232l-174 109q51 82 90 178t39 221v211h297zM1036 2048v-210q0 -134 -73 -277t-179 -232l-174 109q51 82 90 178t39 221v211h297z" />
    <glyph glyph-name="quotedblbase" unicode="&#x201e;" horiz-adv-x="1127" 
d="M466 256v-210q0 -134 -73 -277t-179 -232l-174 109q51 82 90 178t39 221v211h297zM968 256v-210q0 -134 -73 -277t-179 -232l-174 109q51 82 90 178t39 221v211h297z" />
    <glyph glyph-name="quotesinglbase" unicode="&#x201a;" horiz-adv-x="657" 
d="M511 256v-210q0 -134 -73 -277t-179 -232l-174 109q51 82 90 178t39 221v211h297z" />
    <glyph glyph-name="comma" unicode="," horiz-adv-x="792" 
d="M589 319v-259q-1 -157 -71 -307.5t-176 -256.5l-216 89l91 204.5t45 250.5v279h327z" />
    <glyph glyph-name="comma.tnum" horiz-adv-x="792" 
d="M589 319v-259q-1 -157 -71 -307.5t-176 -256.5l-216 89l91 204.5t45 250.5v279h327z" />
    <glyph glyph-name="period" unicode="." horiz-adv-x="792" 
d="M396 -24q-93 0 -159.5 67t-66.5 162q0 93 67 159t159 66q94 0 160 -66.5t66 -158.5q0 -95 -66 -162t-160 -67z" />
    <glyph glyph-name="period.tnum" horiz-adv-x="792" 
d="M396 -24q-93 0 -159.5 67t-66.5 162q0 93 67 159t159 66q94 0 160 -66.5t66 -158.5q0 -95 -66 -162t-160 -67z" />
    <glyph glyph-name="ellipsis" unicode="&#x2026;" horiz-adv-x="2184" 
d="M396 -24q-93 0 -159.5 67t-66.5 162q0 93 67 159t159 66q94 0 160 -66.5t66 -158.5q0 -95 -66 -162t-160 -67zM1093 -24q-93 0 -159.5 67t-66.5 162q0 93 67 159t159 66q94 0 160 -66.5t66 -158.5q0 -95 -66 -162t-160 -67zM1788 -24q-93 0 -159.5 67t-66.5 162
q0 93 67 159t159 66q94 0 160 -66.5t66 -158.5q0 -95 -66 -162t-160 -67z" />
    <glyph glyph-name="twodotleader" unicode="&#x2025;" horiz-adv-x="1560" 
d="M431 -24q-93 0 -159.5 67t-66.5 162q0 93 67 159t159 66q94 0 160 -66.5t66 -158.5q0 -95 -66 -162t-160 -67zM1129 -24q-93 0 -159.5 67t-66.5 162q0 93 67 159t159 66q94 0 160 -66.5t66 -158.5q0 -95 -66 -162t-160 -67z" />
    <glyph glyph-name="colon" unicode=":" horiz-adv-x="792" 
d="M396 1043q-93 0 -159.5 67t-66.5 162q0 93 67 159t159 66q94 0 160 -66.5t66 -158.5q0 -95 -66 -162t-160 -67zM396 -24q-93 0 -159.5 67t-66.5 162q0 93 67 159t159 66q94 0 160 -66.5t66 -158.5q0 -95 -66 -162t-160 -67z" />
    <glyph glyph-name="colon.case" horiz-adv-x="792" 
d="M396 1292q-93 0 -159.5 67t-66.5 162q0 93 67 159t159 66q94 0 160 -66.5t66 -158.5q0 -95 -66 -162t-160 -67zM396 276q-93 0 -159.5 67t-66.5 162q0 93 67 159t159 66q94 0 160 -66.5t66 -158.5q0 -95 -66 -162t-160 -67z" />
    <glyph glyph-name="semicolon" unicode=";" horiz-adv-x="792" 
d="M396 1078q-93 0 -159.5 67t-66.5 162q0 93 67 159t159 66q94 0 160 -66.5t66 -158.5q0 -95 -66 -162t-160 -67zM589 319v-259q-1 -157 -71 -307.5t-176 -256.5l-216 89l91 204.5t45 250.5v279h327z" />
    <glyph glyph-name="guilsinglleft" unicode="&#x2039;" horiz-adv-x="1041" 
d="M838 179h-254l-385 557v28l385 556h254l-342 -570z" />
    <glyph glyph-name="guilsinglright" unicode="&#x203a;" horiz-adv-x="1041" 
d="M199 179l339 569l-339 569h251l388 -556v-25l-388 -557h-251z" />
    <glyph glyph-name="guillemotleft" unicode="&#xab;" horiz-adv-x="1471" 
d="M814 179h-254l-385 557v28l385 556h254l-342 -570zM1356 179h-254l-385 557v28l385 556h254l-342 -570z" />
    <glyph glyph-name="guillemotright" unicode="&#xbb;" horiz-adv-x="1471" 
d="M178 179l339 569l-339 569h251l388 -556v-25l-388 -557h-251zM723 179l339 569l-339 569h251l388 -556v-25l-388 -557h-251z" />
    <glyph glyph-name="less" unicode="&#x3c;" horiz-adv-x="1307" 
d="M1145 388l-229 -215l-803 723l803 723l229 -215l-564 -504v-8z" />
    <glyph glyph-name="greater" unicode="&#x3e;" horiz-adv-x="1307" 
d="M135 388l564 504v8l-564 504l229 215l803 -723l-803 -723z" />
    <glyph glyph-name="lessequal" unicode="&#x2264;" horiz-adv-x="1645" 
d="M1419 674v-318l-1193 645v48l1193 643v-319l-631 -341v-16zM1419 290v-289h-1193v289h1193z" />
    <glyph glyph-name="greaterequal" unicode="&#x2265;" horiz-adv-x="1645" 
d="M199 674l631 342v16l-631 341v319l1193 -643v-48l-1193 -645v318zM199 290h1193v-289h-1193v289z" />
    <glyph glyph-name="equal" unicode="=" horiz-adv-x="1645" 
d="M246 1359h1152v-310h-1152v310zM246 743h1152v-310h-1152v310z" />
    <glyph glyph-name="equal.case" horiz-adv-x="1645" 
d="M246 1487h1152v-310h-1152v310zM246 871h1152v-310h-1152v310z" />
    <glyph glyph-name="notequal" unicode="&#x2260;" horiz-adv-x="1645" 
d="M246 743h391l166 306h-557v310h725l156 288l163 -87l-109 -201h217v-310h-386l-166 -306h552v-310h-720l-160 -294l-162 86l113 208h-223v310z" />
    <glyph glyph-name="notequal.case" horiz-adv-x="1645" 
d="M246 871h391l166 306h-557v310h725l156 288l163 -87l-109 -201h217v-310h-386l-166 -306h552v-310h-720l-160 -294l-162 86l113 208h-223v310z" />
    <glyph glyph-name="plus" unicode="+" horiz-adv-x="1645" 
d="M1462 1052v-312h-484v-484h-311v484h-485v312h485v484h311v-484h484z" />
    <glyph glyph-name="plus.case" horiz-adv-x="1645" 
d="M1462 1180v-312h-484v-484h-311v484h-485v312h485v484h311v-484h484z" />
    <glyph glyph-name="minus" unicode="&#x2212;" horiz-adv-x="1645" 
d="M1419 1052v-312h-1193v312h1193z" />
    <glyph glyph-name="minus.case" horiz-adv-x="1645" 
d="M1419 1180v-312h-1193v312h1193z" />
    <glyph glyph-name="multiply" unicode="&#xd7;" horiz-adv-x="1645" 
d="M411 253l-223 221l414 422l-419 427l223 221l416 -424l417 424l222 -221l-419 -427l414 -422l-222 -221l-412 419z" />
    <glyph glyph-name="multiply.case" horiz-adv-x="1645" 
d="M411 381l-223 221l414 422l-419 427l223 221l416 -424l417 424l222 -221l-419 -427l414 -422l-222 -221l-412 419z" />
    <glyph glyph-name="divide" unicode="&#xf7;" horiz-adv-x="1645" 
d="M600 1435q0 89 60 147.5t162 58.5t162.5 -58.5t60.5 -147.5t-60.5 -145.5t-162.5 -56.5t-162 56.5t-60 145.5zM1462 1052v-310h-1280v310h1280zM600 350q0 89 60 148.5t162 59.5t162.5 -59.5t60.5 -148.5q0 -88 -60.5 -145t-162.5 -57t-162 57t-60 145z" />
    <glyph glyph-name="divide.case" horiz-adv-x="1645" 
d="M600 1566q0 89 60 147.5t162 58.5t162.5 -58.5t60.5 -147.5q0 -88 -60.5 -145t-162.5 -57t-162 57t-60 145zM1462 1183v-310h-1280v310h1280zM600 481q0 89 60 148.5t162 59.5t162.5 -59.5t60.5 -148.5t-60.5 -145.5t-162.5 -56.5t-162 56.5t-60 145.5z" />
    <glyph glyph-name="plusminus" unicode="&#xb1;" horiz-adv-x="1645" 
d="M1462 1221v-311h-483v-424h-313v424h-486v311h486v456h313v-456h483zM1460 310v-310h-1275v310h1275z" />
    <glyph glyph-name="plusminus.case" horiz-adv-x="1645" 
d="M1462 1446v-311h-483v-424h-313v424h-486v311h486v456h313v-456h483zM1460 535v-310h-1275v310h1275z" />
    <glyph glyph-name="approxequal" unicode="&#x2248;" horiz-adv-x="1645" 
d="M169 934v322q63 69 154.5 108t181.5 39q111 3 183 -27t157 -73q83 -41 149.5 -68t168.5 -27q89 0 169.5 45.5t146.5 126.5v-322q-66 -67 -141.5 -105.5t-163.5 -38.5q-102 0 -169.5 27t-148.5 68q-87 43 -159 73.5t-181 26.5q-90 0 -187 -46t-160 -129zM169 358v322
q63 68 150.5 106t177.5 38q109 3 181 -26.5t159 -73.5q81 -40 148.5 -66.5t169.5 -26.5q89 0 173.5 45.5t150.5 126.5v-321q-66 -69 -146.5 -107t-169.5 -38q-102 0 -168.5 26.5t-149.5 66.5q-85 44 -157 73.5t-183 26.5q-90 0 -181.5 -45.5t-154.5 -126.5z" />
    <glyph glyph-name="asciitilde" unicode="~" horiz-adv-x="1778" 
d="M1342 1123h288q1 -259 -120 -407.5t-316 -148.5q-100 0 -191.5 42.5t-181.5 133.5q-56 59 -101.5 86t-100.5 27q-88 0 -134 -59.5t-49 -167.5h-288q1 269 129 409.5t313 140.5q196 0 367 -175q58 -58 103 -89t105 -31q78 0 127.5 56.5t49.5 182.5z" />
    <glyph glyph-name="logicalnot" unicode="&#xac;" horiz-adv-x="1553" 
d="M1352 1108v-592h-276v356h-872v236h1148z" />
    <glyph glyph-name="periodcentered" unicode="&#xb7;" horiz-adv-x="795" 
d="M396 754q-93 0 -159.5 67t-66.5 162q0 93 67 159t159 66q94 0 160 -66.5t66 -158.5q0 -95 -66 -162t-160 -67z" />
    <glyph glyph-name="anoteleia" unicode="&#x387;" horiz-adv-x="795" 
d="M361 754q-93 0 -159.5 67t-66.5 162q0 93 67 159t159 66q94 0 160 -66.5t66 -158.5q0 -95 -66 -162t-160 -67z" />
    <glyph glyph-name="questiongreek" unicode="&#x37e;" horiz-adv-x="795" 
d="M406 1107q-93 0 -159.5 67t-66.5 162q0 93 67 159t159 66q94 0 160 -66.5t66 -158.5q0 -95 -66 -162t-160 -67zM640 319v-259q-1 -157 -70.5 -307.5t-176.5 -256.5l-216 89l91.5 204.5t44.5 250.5v279h327z" />
    <glyph glyph-name="underscore" unicode="_" horiz-adv-x="1299" 
d="M1279 0v-304h-1259v304h1259z" />
    <glyph glyph-name="dagger" unicode="&#x2020;" horiz-adv-x="1635" 
d="M1497 1488v-323h-487v-1165h-390v1165h-483v323h483v516h390v-516h487z" />
    <glyph glyph-name="daggerdbl" unicode="&#x2021;" horiz-adv-x="1553" 
d="M1456 315v-315h-488v-572h-389v572h-483v315h483v861h-483v312h483v516h389v-516h488v-312h-488v-861h488z" />
    <glyph glyph-name="asciicircum" unicode="^" horiz-adv-x="1297" 
d="M889 1004l-241 625l-240 -625h-310l409 1000h284l410 -1000h-312z" />
    <glyph glyph-name="asterisk" unicode="*" horiz-adv-x="1522" 
d="M286 969l291 371l-434 128l79 245l432 -167l-21 472h267l-24 -481l424 165l81 -245l-441 -128l285 -362l-214 -153l-255 390l-256 -382z" />
    <glyph glyph-name="asterisk.case" horiz-adv-x="1563" 
d="M563 414l-199 115l230 376l-8 16l-441 -12v230l440 -12l8 16l-230 376l200 115l210 -388h16l211 388l200 -115l-226 -376l8 -16l436 12v-230l-439 12l-8 -16l228 -376l-199 -115l-211 384h-16z" />
    <glyph glyph-name="registered" unicode="&#xae;" horiz-adv-x="2321" 
d="M184 1004q0 218 76 404.5t211 327t311.5 218.5t377.5 78q202 0 379 -78t311.5 -218.5t210 -327t75.5 -404.5q0 -219 -75.5 -407t-210 -328t-311.5 -218.5t-379 -78.5q-201 0 -377.5 78.5t-311.5 218.5t-211 328t-76 407zM352 1004q0 -183 63 -339.5t174.5 -273.5
t258 -182t312.5 -65q168 0 314.5 65t257.5 182t173.5 273.5t62.5 339.5q0 182 -62.5 337.5t-173.5 272t-257.5 181.5t-314.5 65q-166 0 -312.5 -65t-258 -181.5t-174.5 -272t-63 -337.5zM1180 900h-216v-464h-208v1168h386q206 0 326 -91.5t120 -268.5q0 -156 -156 -241
q84 -42 118 -119.5t34 -175.5v-76q0 -110 24 -176v-20h-212q-15 33 -17.5 99.5t-2.5 96.5v76q0 96 -44 144t-152 48zM964 1420v-336h187q91 0 162 40t71 120q0 99 -54 137.5t-188 38.5h-178z" />
    <glyph glyph-name="trademark" unicode="&#x2122;" horiz-adv-x="1809" 
d="M1411 1259v487l-156 -487h-96l-156 489v-489h-174v745h215l162 -507l175 507h201v-745h-171zM732 2004v-146h-178v-597h-192v597h-188v146h558z" />
    <glyph glyph-name="servicemark" unicode="&#x2120;" horiz-adv-x="1809" 
d="M588 1463q0 34 -29.5 57t-115.5 41q-140 27 -207 80.5t-67 155.5q0 91 75.5 155.5t214.5 64.5q142 0 217 -63.5t75 -174.5h-174q0 43 -27 68.5t-91 25.5q-63 0 -89 -22.5t-26 -53.5q0 -34 27 -56t127 -41q129 -28 196.5 -81t67.5 -154q0 -99 -81 -162t-225 -63
q-148 0 -232 66t-84 181h176q0 -58 41 -77.5t99 -19.5q73 0 102.5 21t29.5 52zM1497 1259v419l-157 -419h-100l-163 435v-435h-175v745h216l172 -507l172 507h208v-745h-173z" />
    <glyph glyph-name="degree" unicode="&#xb0;" horiz-adv-x="1123" 
d="M564 1179q-118 0 -217 58t-159 155.5t-60 216.5q0 120 60 219.5t159 159.5t217 60t215 -60t154.5 -159.5t57.5 -219.5q0 -119 -57.5 -216.5t-154.5 -155.5t-215 -58zM564 1409q82 0 140.5 58.5t58.5 143.5t-58.5 144.5t-140.5 59.5t-141.5 -59.5t-59.5 -144.5
q0 -84 59.5 -143t141.5 -59z" />
    <glyph glyph-name="ordfeminine" unicode="&#xaa;" horiz-adv-x="1297" 
d="M848 969q-14 47 -22 95q-42 -45 -110.5 -78.5t-167.5 -33.5q-165 0 -253 85.5t-88 226.5q0 153 116 235t353 82h140v71q0 176 -160 176q-189 0 -189 -136l-239 17q0 140 116.5 231.5t311.5 91.5q180 0 290 -95.5t110 -284.5v-432q0 -68 7.5 -129.5t28.5 -121.5h-244z
M608 1149q56 0 113.5 26t94.5 61v185h-140q-120 0 -174 -46t-54 -106q0 -55 38 -87.5t122 -32.5z" />
    <glyph glyph-name="ordmasculine" unicode="&#xba;" horiz-adv-x="1297" 
d="M172 1436v105q0 215 128.5 353t347.5 138q222 0 349 -138t127 -353v-105q0 -213 -126.5 -350t-345.5 -137q-222 0 -351 137t-129 350zM412 1541v-105q0 -123 60 -203.5t180 -80.5q117 0 174.5 80.5t57.5 203.5v105q0 122 -58 204.5t-178 82.5q-117 0 -176.5 -82.5
t-59.5 -204.5z" />
    <glyph glyph-name="isuperior" unicode="&#x2071;" horiz-adv-x="703" 
d="M183 2167q0 68 45 112.5t123 44.5q79 0 125.5 -44.5t46.5 -112.5q0 -69 -46.5 -113.5t-125.5 -44.5q-78 0 -123 44.5t-45 113.5zM500 1880v-1108h-290v1108h290z" />
    <glyph glyph-name="nsuperior" unicode="&#x207f;" horiz-adv-x="1297" 
d="M652 1767q-67 0 -111.5 -29t-69.5 -78v-761h-290v1102h227l45 -168q49 86 126 134.5t179 48.5q168 0 264 -99t96 -321v-697h-289v608q0 146 -45.5 203t-131.5 57z" />
    <glyph glyph-name="paragraph" unicode="&#xb6;" horiz-adv-x="1297" 
d="M1195 0h-300v716h-114q-219 0 -370 83.5t-228.5 229t-77.5 331.5q0 184 77.5 329.5t228.5 230t370 84.5h414v-2004z" />
    <glyph glyph-name="section" unicode="&#xa7;" horiz-adv-x="1596" 
d="M1342 1545h-345q0 86 -52 144t-160 58q-86 0 -144.5 -41.5t-58.5 -114.5q0 -77 64.5 -131.5t124.5 -82.5l374 -187q39 -20 93.5 -53.5t106 -87t83 -131t23.5 -184.5q-7 -82 -48 -142t-96.5 -98.5t-106.5 -54.5l-2 -4q161 -143 161 -362q0 -156 -75 -264.5t-203 -165
t-287 -56.5q-175 0 -309.5 66t-210 188t-75.5 289h346q0 -106 71 -162t181 -52q80 2 147.5 39.5t67.5 117.5q0 83 -64 133.5t-122 80.5l-375 183q-39 20 -93.5 54t-106 88.5t-82.5 132.5t-23 185q8 122 89 197t161 99v5q-71 71 -115 159t-44 201q0 141 70 250.5t193.5 172
t284.5 62.5q168 0 293 -68.5t194.5 -188.5t69.5 -274zM1127 715q12 114 -161 197l-335 166q-51 26 -104.5 -14t-60.5 -115q-6 -61 37.5 -110.5t124.5 -88.5l332 -161q49 -24 105 14t62 112z" />
    <glyph glyph-name="copyright" unicode="&#xa9;" horiz-adv-x="2321" 
d="M184 1004q0 218 76 404.5t211 327t311.5 218.5t377.5 78q202 0 379 -78t311.5 -218.5t210 -327t75.5 -404.5q0 -219 -75.5 -407t-210 -328t-311.5 -218.5t-379 -78.5q-201 0 -377.5 78.5t-311.5 218.5t-211 328t-76 407zM352 1004q0 -183 63 -339.5t174.5 -273.5
t258 -182t312.5 -65q168 0 314.5 65t257.5 182t173.5 273.5t62.5 339.5q0 182 -62.5 337.5t-173.5 272t-257.5 181.5t-314.5 65q-166 0 -312.5 -65t-258 -181.5t-174.5 -272t-63 -337.5zM1388 820h216q0 -216 -125 -324t-337 -108q-220 0 -350 147.5t-130 384.5v164
q0 237 130 384.5t350 147.5q212 0 337 -108t125 -324h-214q0 132 -63 190t-185 58q-132 0 -199 -97.5t-67 -250.5v-164q0 -153 67 -250.5t199 -97.5q122 0 184 56.5t62 191.5z" />
    <glyph glyph-name="infinity" unicode="&#x221e;" horiz-adv-x="2672" 
d="M720 1480q178 0 312 -75t224 -161q46 -49 80 -90l38 44.5l42 45.5q90 86 223.5 161t312.5 75q168 0 306 -82.5t220 -220.5t82 -305q0 -169 -82 -307t-220 -220t-306 -82q-179 0 -312.5 73.5t-221.5 158.5q-23 22 -43.5 45.5l-38.5 45.5l-39 -45.5t-44 -45.5
q-88 -85 -221.5 -158.5t-311.5 -73.5q-168 0 -306.5 82t-220.5 220t-82 307q0 167 82 305t220.5 220.5t306.5 82.5zM456 872q0 -110 77 -187t187 -77q85 0 157.5 37.5t136.5 99.5q35 32 61 64t47 63q-21 28 -46.5 58t-61.5 65q-64 62 -136.5 101t-157.5 39q-110 0 -187 -78
t-77 -185zM2215 872q0 107 -76.5 185t-186.5 78q-86 0 -158 -39t-137 -101q-34 -35 -60 -65t-47 -58q43 -63 107 -127q65 -62 137 -99.5t158 -37.5q110 0 186.5 77t76.5 187z" />
    <glyph glyph-name="partialdiff" unicode="&#x2202;" horiz-adv-x="1809" 
d="M859 1423q110 0 208 -38t180 -119q-40 243 -162.5 388t-300.5 145q-109 0 -177.5 -17.5t-158.5 -54.5l-61 283q76 34 175 69t254 35q371 0 579 -295.5t210 -843.5v-80q0 -259 -82 -468.5t-238.5 -332t-380.5 -122.5t-379 95t-236 260t-81 373v32q0 199 75.5 355t221 246
t354.5 90zM908 1111q-114 0 -183 -55t-100 -145.5t-31 -197.5v-29q0 -166 70.5 -283t239.5 -117q114 0 182.5 66t98.5 176t30 242v152q-29 63 -102 127t-205 64z" />
    <glyph glyph-name="summation" unicode="&#x2211;" horiz-adv-x="1983" 
d="M1380 847v-47l-667 -860h1087v-312h-1617v208l788 987l-788 972v209h1566v-315h-1031z" />
    <glyph glyph-name="product" unicode="&#x220f;" horiz-adv-x="2065" 
d="M1790 2004v-2349h-393v2042h-729v-2042h-393v2349h1515z" />
    <glyph glyph-name="integral" unicode="&#x222b;" horiz-adv-x="969" 
d="M656 -73q0 -265 -138 -396t-380 -131q-52 0 -98 4.5t-98 16.5l22 307q27 -6 54.5 -11t64.5 -5q89 0 137 50.5t48 164.5v1695q0 254 143 387.5t399 133.5q56 0 109 -8.5t108 -22.5l-32 -296q-31 6 -60 9t-73 3q-206 0 -206 -206v-1695z" />
    <glyph glyph-name="radical" unicode="&#x221a;" horiz-adv-x="1809" 
d="M161 731v315h527l195 -639l452 1597h315l-593 -2004h-327l-263 731h-306z" />
    <glyph glyph-name="lozenge" unicode="&#x25ca;" horiz-adv-x="1553" 
d="M103 1000l509 1004h330l509 -1004l-507 -1000h-330zM489 1000l291 -591l285 591l-288 593z" />
    <glyph glyph-name="fraction" unicode="&#x2044;" horiz-adv-x="1379" 
d="M1272 1716l-976 -1564l-190 103l976 1565z" />
    <glyph glyph-name="zerosub" unicode="&#x2080;" horiz-adv-x="1297" 
d="M1108 155v-225q0 -226 -117.5 -335.5t-303.5 -109.5q-190 0 -309 109.5t-119 335.5v225q0 226 118.5 336t305.5 110t306 -110t119 -336zM829 -82v248q0 116 -39 164t-107 48q-67 0 -105 -48t-38 -164v-248q0 -116 38 -161.5t109 -45.5q65 0 103.5 45.5t38.5 161.5z" />
    <glyph glyph-name="oneinferior" unicode="&#x2081;" horiz-adv-x="1041" 
d="M783 582v-1081h-274v758l-262 -57v215l512 165h24z" />
    <glyph glyph-name="twosub" unicode="&#x2082;" horiz-adv-x="1297" 
d="M1079 -276v-223h-851v189l393 355q79 67 113.5 125.5t34.5 91.5q0 53 -34 85t-99 32q-78 0 -116 -45.5t-38 -106.5h-278q0 154 113 264t306 110q201 0 312.5 -87.5t111.5 -251.5q0 -120 -73.5 -208t-222.5 -204l-159 -126h487z" />
    <glyph glyph-name="threesub" unicode="&#x2083;" horiz-adv-x="1297" 
d="M642 -39v187h121q80 0 118 33.5t38 88.5q0 40 -33 74.5t-115 34.5q-58 0 -99 -23t-41 -64h-279q0 102 57.5 171t151.5 103.5t204 34.5q193 0 312.5 -79.5t119.5 -231.5q0 -82 -50 -141t-135 -91q96 -26 150.5 -86.5t54.5 -166.5q0 -151 -129.5 -235.5t-322.5 -84.5
q-103 0 -202 34t-163.5 108.5t-64.5 197.5h281q0 -44 43.5 -79t121.5 -35q83 0 120.5 36.5t37.5 85.5q0 70 -47 99t-129 29h-121z" />
    <glyph glyph-name="foursub" unicode="&#x2084;" horiz-adv-x="1297" 
d="M1090 -52v-226h-122v-221h-278v221h-478l-16 183l493 680h279v-637h122zM463 -52h227v297l-19 -30z" />
    <glyph glyph-name="fivesub" unicode="&#x2085;" horiz-adv-x="1297" 
d="M465 -29l-221 57l74 557h688v-218h-461l-28 -187q20 7 70.5 21.5t108.5 14.5q181 0 276.5 -91.5t95.5 -259.5q0 -97 -45.5 -183.5t-139 -141.5t-237.5 -55q-108 0 -205 39.5t-159 112t-63 172.5h280q1 -55 42 -76.5t105 -21.5q86 0 114.5 46.5t28.5 108.5q0 74 -41 115.5
t-125 41.5q-70 0 -104.5 -18.5t-53.5 -33.5z" />
    <glyph glyph-name="sixinferior" unicode="&#x2086;" horiz-adv-x="1297" 
d="M843 609h46v-230h-16q-146 0 -251 -46t-131 -195q43 39 103 63.5t136 24.5q168 0 258 -101t90 -261q0 -161 -119 -270t-308 -109q-193 0 -319.5 107.5t-126.5 336.5v69q0 219 87 353.5t232.5 196t318.5 61.5zM484 -117q0 -172 160 -172q68 0 110.5 45t42.5 109
q0 71 -41 105t-114 34q-57 0 -98 -20.5t-60 -46.5v-54z" />
    <glyph glyph-name="sevensub" unicode="&#x2087;" horiz-adv-x="1297" 
d="M1214 585v-155l-457 -929h-293l457 862h-585v222h878z" />
    <glyph glyph-name="eightsub" unicode="&#x2088;" horiz-adv-x="1297" 
d="M1044 294q0 -79 -41.5 -138.5t-113.5 -96.5q82 -37 130.5 -102.5t48.5 -155.5q0 -158 -120 -237t-302 -79t-304.5 79t-122.5 237q0 91 49 156.5t133 102.5q-72 37 -113.5 96.5t-41.5 137.5q0 152 112.5 229.5t284.5 77.5q176 0 288.5 -77.5t112.5 -229.5zM765 277
q0 102 -122 102q-119 0 -119 -102q0 -48 32 -78.5t90 -30.5q60 0 89.5 30.5t29.5 78.5zM791 -172q0 58 -41 86t-107 28q-65 0 -104 -28t-39 -86q0 -54 39.5 -85.5t106.5 -31.5q64 0 104.5 31.5t40.5 85.5z" />
    <glyph glyph-name="nineinferior" unicode="&#x2089;" horiz-adv-x="1297" 
d="M547 -293h18q146 0 235 39t108 173q-42 -32 -94.5 -51.5t-109.5 -19.5q-167 0 -264 91t-97 270q0 107 54 196t149.5 142.5t220.5 53.5q178 0 301.5 -104.5t123.5 -339.5v-76q0 -226 -81 -356.5t-222 -185.5t-322 -55h-20v223zM624 206q0 -153 155 -153q49 0 82.5 17.5
t51.5 38.5v106q0 87 -38.5 125t-107.5 38q-67 0 -105 -50.5t-38 -121.5z" />
    <glyph glyph-name="plussub" unicode="&#x208a;" horiz-adv-x="1297" 
d="M841 500v-372h334v-236h-334v-368h-249v368h-337v236h337v372h249z" />
    <glyph glyph-name="minussub" unicode="&#x208b;" horiz-adv-x="1297" 
d="M1175 128v-236h-817v236h817z" />
    <glyph glyph-name="equalsub" unicode="&#x208c;" horiz-adv-x="1297" 
d="M1051 340v-237h-817v237h817zM1051 -83v-237h-817v237h817z" />
    <glyph glyph-name="parenleftinferior" unicode="&#x208d;" horiz-adv-x="785" 
d="M141 20v21q0 211 61.5 368t152.5 256.5t178 137.5l113 -181q-52 -51 -99.5 -122.5t-78 -181t-30.5 -273.5v-25q0 -167 31 -276.5t79 -179.5t98 -118l-113 -177q-87 37 -178 135t-152.5 253t-61.5 363z" />
    <glyph glyph-name="parenrightsub" unicode="&#x208e;" horiz-adv-x="785" 
d="M646 57v-24q0 -212 -61.5 -370t-152 -257.5t-177.5 -136.5l-114 177q49 48 96.5 119.5t78 184t30.5 283.5v24q0 161 -29.5 268t-76.5 177.5t-99 119.5l114 181q87 -36 177.5 -133.5t152 -251.5t61.5 -361z" />
    <glyph glyph-name="zerosuperior" unicode="&#x2070;" horiz-adv-x="1297" 
d="M1108 1570v-225q0 -227 -117.5 -336t-303.5 -109q-190 0 -309 109t-119 336v225q0 226 118.5 336t305.5 110t306 -110t119 -336zM829 1333v248q0 116 -39 164t-107 48q-67 0 -105 -48t-38 -164v-248q0 -116 38 -161.5t109 -45.5q65 0 103.5 45.5t38.5 161.5z" />
    <glyph glyph-name="onesuperior" unicode="&#xb9;" horiz-adv-x="1041" 
d="M783 1997v-1081h-274v758l-262 -57v215l512 165h24z" />
    <glyph glyph-name="twosuperior" unicode="&#xb2;" horiz-adv-x="1297" 
d="M1206 1139v-223h-851v189l393 355q79 67 113.5 125.5t34.5 91.5q0 53 -34 85t-99 32q-78 0 -116 -45.5t-38 -106.5h-278q0 154 113 264t306 110q201 0 312.5 -88t111.5 -251q0 -120 -73.5 -208t-222.5 -204l-159 -126h487z" />
    <glyph glyph-name="threesuperior" unicode="&#xb3;" horiz-adv-x="1297" 
d="M555 1376v187h121q80 0 118 33.5t38 88.5q0 41 -33 75t-115 34q-58 0 -99 -23t-41 -64h-279q0 102 57.5 170.5t151.5 103.5t204 35q193 0 312.5 -79.5t119.5 -231.5q0 -82 -50 -141t-135 -91q96 -26 150.5 -86.5t54.5 -166.5q0 -151 -129.5 -235.5t-322.5 -84.5
q-103 0 -202 34t-163.5 109t-64.5 197h281q0 -44 43.5 -79t121.5 -35q82 0 120 36.5t38 85.5q0 70 -47 99t-129 29h-121z" />
    <glyph glyph-name="foursuperior" unicode="&#x2074;" horiz-adv-x="1297" 
d="M1212 1363v-226h-122v-221h-278v221h-478l-16 183l493 680h279v-637h122zM585 1363h227v297l-19 -30z" />
    <glyph glyph-name="fivesuperior" unicode="&#x2075;" horiz-adv-x="1297" 
d="M582 1386l-221 57l74 557h688v-218h-461l-28 -187q20 7 70 21.5t109 14.5q181 0 276.5 -91.5t95.5 -259.5q0 -96 -45.5 -183t-139 -142t-237.5 -55q-108 0 -205 39.5t-158.5 112t-63.5 172.5h280q2 -55 42 -76.5t105 -21.5q85 0 114 46.5t29 108.5q0 73 -41 115t-125 42
q-70 0 -104.5 -18.5t-53.5 -33.5z" />
    <glyph glyph-name="sixsuperior" unicode="&#x2076;" horiz-adv-x="1297" 
d="M843 2024h46v-230h-16q-146 0 -251 -46t-131 -195q43 39 103 63.5t136 24.5q168 0 258 -101t90 -261q0 -161 -119 -270t-308 -109q-193 0 -319.5 107t-126.5 337v69q0 219 87 353.5t232.5 196t318.5 61.5zM484 1298q0 -172 160 -172q68 0 110.5 45t42.5 109q0 71 -41 105
t-114 34q-57 0 -98 -20.5t-60 -46.5v-54z" />
    <glyph glyph-name="sevensuperior" unicode="&#x2077;" horiz-adv-x="1297" 
d="M1214 2000v-155l-457 -929h-293l457 862h-585v222h878z" />
    <glyph glyph-name="eightsuperior" unicode="&#x2078;" horiz-adv-x="1297" 
d="M1186 1216q0 -158 -120 -237t-302 -79t-304.5 79t-122.5 237q0 91 49 156.5t133 102.5q-72 37 -113.5 96.5t-41.5 137.5q0 151 112.5 229t284.5 78q176 0 288.5 -78t112.5 -229q0 -79 -41.5 -138.5t-113.5 -96.5q82 -37 130.5 -102.5t48.5 -155.5zM883 1692
q0 102 -122 102q-119 0 -119 -102q0 -48 32 -78.5t90 -30.5q60 0 89.5 30.5t29.5 78.5zM909 1243q0 59 -41 86.5t-107 27.5q-65 0 -104 -27.5t-39 -86.5q0 -54 39.5 -85.5t106.5 -31.5q64 0 104.5 31.5t40.5 85.5z" />
    <glyph glyph-name="ninesuperior" unicode="&#x2079;" horiz-adv-x="1297" 
d="M465 1122h18q146 0 235 39t108 173q-42 -32 -94.5 -51.5t-109.5 -19.5q-167 0 -264 91.5t-97 269.5q0 106 54 195.5t149.5 143t220.5 53.5q178 0 301.5 -104.5t123.5 -339.5v-76q0 -226 -81 -356.5t-222 -185.5t-322 -55h-20v223zM542 1621q0 -153 155 -153
q49 0 82.5 17.5t51.5 38.5v106q0 87 -38.5 125t-107.5 38q-67 0 -105 -50.5t-38 -121.5z" />
    <glyph glyph-name="plussuperior" unicode="&#x207a;" horiz-adv-x="1297" 
d="M1108 1504v-236h-334v-368h-249v368h-337v236h337v372h249v-372h334z" />
    <glyph glyph-name="minussuperior" unicode="&#x207b;" horiz-adv-x="1297" 
d="M1057 1504v-236h-817v236h817z" />
    <glyph glyph-name="equalsuperior" unicode="&#x207c;" horiz-adv-x="1297" 
d="M1057 1716v-237h-817v237h817zM1057 1293v-237h-817v237h817z" />
    <glyph glyph-name="parenleftsuperior" unicode="&#x207d;" horiz-adv-x="785" 
d="M141 1326v24q0 221 61.5 386.5t152.5 269.5t178 143l113 -178q-52 -55 -99.5 -132.5t-78 -195t-30.5 -293.5v-24q0 -180 31 -300t79 -196t98 -128l-113 -179q-87 40 -178 145.5t-152.5 271t-61.5 386.5z" />
    <glyph glyph-name="parenrightsuperior" unicode="&#x207e;" horiz-adv-x="785" 
d="M646 1350v-24q0 -221 -61.5 -386.5t-152 -271t-177.5 -145.5l-114 179q49 52 96.5 128t78 196t30.5 300v24q0 176 -29.5 293.5t-76.5 195t-99 132.5l114 178q87 -39 177.5 -143t152 -269.5t61.5 -386.5z" />
    <glyph glyph-name="onehalf" unicode="&#xbd;" horiz-adv-x="2321" 
d="M762 2001v-1081h-274v758l-262 -57v215l512 165h24zM1654 1728l-976 -1564l-190 103l976 1565zM2211 223v-223h-851v189l393 355q79 67 113.5 125.5t34.5 91.5q0 53 -34 85t-99 32q-78 0 -116 -45.5t-38 -106.5h-278q0 154 113 264t306 110q201 0 312.5 -88t111.5 -251
q0 -120 -73.5 -208t-222.5 -204l-159 -126h487z" />
    <glyph glyph-name="onequarter" unicode="&#xbc;" horiz-adv-x="2147" 
d="M682 1993v-1081h-274v758l-262 -57v215l512 165h24zM1611 1728l-976 -1564l-190 103l976 1565zM1990 447v-226h-122v-221h-278v221h-478l-16 183l493 680h279v-637h122zM1363 447h227v297l-19 -30z" />
    <glyph glyph-name="threequarters" unicode="&#xbe;" horiz-adv-x="2321" 
d="M596 1376v187h121q80 0 118 33.5t38 88.5q0 41 -33 75t-115 34q-58 0 -99 -23t-41 -64h-279q0 102 57.5 170.5t151.5 103.5t204 35q193 0 312.5 -79.5t119.5 -231.5q0 -82 -50 -141t-135 -91q96 -26 150.5 -86.5t54.5 -166.5q0 -151 -129.5 -235.5t-322.5 -84.5
q-103 0 -202 34t-163.5 109t-64.5 197h281q0 -44 43.5 -79t121.5 -35q83 0 120.5 36.5t37.5 85.5q0 70 -47 99t-129 29h-121zM1901 1728l-976 -1564l-190 103l976 1565zM2271 447v-226h-122v-221h-278v221h-478l-16 183l493 680h279v-637h122zM1644 447h227v297l-19 -30z
" />
    <glyph glyph-name="percent" unicode="%" horiz-adv-x="2321" 
d="M220 1556v108q0 122 50.5 223.5t147 162.5t234.5 61q141 0 237 -61t145.5 -162.5t49.5 -223.5v-108q0 -122 -50 -223t-146.5 -161.5t-235.5 -60.5q-140 0 -236.5 60.5t-146 161.5t-49.5 223zM2034 2083l-1455 -2118h-316l1454 2118h317zM492 1664v-108q0 -76 34 -140.5
t126 -64.5q91 0 125.5 64.5t34.5 140.5v108q0 76 -33 141.5t-127 65.5q-91 0 -125.5 -65.5t-34.5 -141.5zM1240 384v108q0 122 50.5 223.5t147 162.5t234.5 61q141 0 237.5 -61t145.5 -162.5t49 -223.5v-108q0 -122 -50 -223.5t-146.5 -162.5t-235.5 -61q-140 0 -236.5 61
t-146 162.5t-49.5 223.5zM1512 492v-108q0 -76 34 -140.5t126 -64.5q91 0 125.5 64.5t34.5 140.5v108q0 76 -33 141.5t-127 65.5q-91 0 -125.5 -65.5t-34.5 -141.5z" />
    <glyph glyph-name="perthousand" unicode="&#x2030;" horiz-adv-x="2833" 
d="M172 1512v104q0 114 49.5 208.5t142 151t220.5 56.5q137 0 234.5 -56.5t149 -151t51.5 -208.5v-104q0 -112 -51.5 -205.5t-148 -150t-231.5 -56.5q-130 0 -223 56.5t-143 150t-50 205.5zM1674 1716l-979 -1564l-190 103l976 1565zM413 1616v-104q0 -73 43 -129.5
t132 -56.5q87 0 128.5 56.5t41.5 129.5v104q0 76 -43 133t-131 57q-86 0 -128.5 -57t-42.5 -133zM1170 384v108q0 112 52.5 205.5t150 150t232.5 56.5q105 0 183.5 -39.5t128.5 -106.5q51 67 129.5 106.5t182.5 39.5q137 0 234.5 -56.5t149 -150t51.5 -205.5v-108
q0 -112 -51.5 -205.5t-148 -150t-231.5 -56.5q-106 0 -185.5 40t-130.5 107q-50 -67 -129 -107t-183 -40q-135 0 -232.5 56.5t-150 150t-52.5 205.5zM1431 492v-108q0 -73 47.5 -129.5t126.5 -56.5q100 0 135 56.5t35 129.5v108q0 73 -41.5 129.5t-128.5 56.5
q-89 0 -131.5 -56.5t-42.5 -129.5zM2055 492v-108q0 -73 48.5 -129.5t129.5 -56.5q99 0 134.5 56.5t35.5 129.5v108q0 73 -43 129.5t-131 56.5q-86 0 -130 -56.5t-44 -129.5z" />
    <glyph glyph-name="numero" unicode="&#x2116;" horiz-adv-x="2833" 
d="M1734 1435v98q0 141 58 252t165 175t253 64q148 0 254.5 -64t164 -175t57.5 -252v-98q0 -213 -127 -352t-348 -139q-220 0 -348.5 139t-128.5 352zM1563 2004v-2004h-430l-593 1320v-1320h-393v2004h429l598 -1322v1322h389zM1974 1533v-98q0 -121 58 -206t179 -85
q119 0 177 85t58 206v98q0 120 -58 203.5t-178 83.5t-178 -83.5t-58 -203.5zM2617 776v-201h-824v201h824z" />
    <glyph glyph-name="acute" unicode="&#xb4;" horiz-adv-x="964" 
d="M166 1688l262 424h399l-357 -424h-304z" />
    <glyph glyph-name="hungarumlaut" unicode="&#x2dd;" horiz-adv-x="1225" 
d="M566 1696l308 416h337l-364 -416h-281zM80 1696l254 416h336l-315 -416h-275z" />
    <glyph glyph-name="grave" unicode="`" horiz-adv-x="959" 
d="M551 2112l271 -424h-320l-378 424h427z" />
    <glyph glyph-name="tonos" unicode="&#x384;" horiz-adv-x="959" 
d="M239 1681l98 473h354l-220 -473h-232z" />
    <glyph glyph-name="dieresis" unicode="&#xa8;" horiz-adv-x="1420" 
d="M426 1726q-80 0 -132.5 51.5t-52.5 122.5q0 75 52.5 125.5t132.5 50.5q79 0 130.5 -50.5t51.5 -125.5q0 -71 -51.5 -122.5t-130.5 -51.5zM996 1726q-79 0 -131.5 51.5t-52.5 122.5q0 75 52.5 125.5t131.5 50.5q80 0 131 -50.5t51 -125.5q0 -71 -51 -122.5t-131 -51.5z
" />
    <glyph glyph-name="circumflex" unicode="&#x2c6;" horiz-adv-x="1481" 
d="M525 1792h-320v13l416 387h236l414 -387v-13h-317l-214 202z" />
    <glyph glyph-name="tilde" unicode="&#x2dc;" horiz-adv-x="1297" 
d="M939 2116l226 -16q0 -152 -88.5 -258t-223.5 -106q-88 0 -144.5 30t-107.5 60t-123 30q-49 0 -82.5 -35t-33.5 -98l-230 10q0 99 40.5 182.5t111 134t160.5 50.5q74 0 133 -29.5l116.5 -58.5t125.5 -29q49 0 84.5 35t35.5 98z" />
    <glyph glyph-name="macron" unicode="&#xaf;" horiz-adv-x="1471" 
d="M1210 1999v-226h-948v226h948z" />
    <glyph glyph-name="breve" unicode="&#x2d8;" horiz-adv-x="1297" 
d="M842 2097h279q0 -179 -127 -292.5t-346 -113.5q-215 0 -342 113.5t-127 292.5h277q0 -72 43.5 -127.5t148.5 -55.5t149.5 55.5t44.5 127.5z" />
    <glyph glyph-name="dotaccent" unicode="&#x2d9;" horiz-adv-x="785" 
d="M193 1904q0 80 53.5 133t145.5 53t146.5 -53t54.5 -133t-54.5 -132t-146.5 -52t-145.5 52t-53.5 132z" />
    <glyph glyph-name="ring" unicode="&#x2da;" horiz-adv-x="1000" 
d="M174 1873q0 124 92.5 213.5t233.5 89.5t232.5 -89.5t91.5 -213.5q0 -123 -91.5 -208t-232.5 -85t-233.5 85t-92.5 208zM340 1873q0 -64 44 -111t116 -47t115.5 47t43.5 111q0 65 -43.5 113t-115.5 48t-116 -48t-44 -113z" />
    <glyph glyph-name="caron" unicode="&#x2c7;" horiz-adv-x="1481" 
d="M528 2048l215 -202l214 202h317v-13l-414 -387h-236l-416 387v13h320z" />
    <glyph glyph-name="dieresistonos" unicode="&#x385;" horiz-adv-x="1553" 
d="M663 1952l61 450h351l-207 -450h-205zM166 1877q0 73 53 123.5t136 50.5q82 0 135.5 -50.5t53.5 -123.5q0 -71 -53.5 -120t-135.5 -49q-83 0 -136 49t-53 120zM1011 1876q0 74 53 124.5t137 50.5q82 0 134.5 -50.5t52.5 -124.5q0 -71 -52.5 -120.5t-134.5 -49.5
q-84 0 -137 49.5t-53 120.5z" />
    <glyph glyph-name="cedilla" unicode="&#xb8;" horiz-adv-x="959" 
d="M287 11h290l-16 -83q76 -12 140.5 -65.5t64.5 -170.5q0 -146 -120.5 -235.5t-353.5 -89.5l-11 224q68 0 113.5 25.5t45.5 86.5q0 59 -47 80.5t-150 28.5z" />
    <glyph glyph-name="ogonek" unicode="&#x2db;" horiz-adv-x="785" 
d="M435 84l198 -84q-103 -60 -158 -117t-55 -130q0 -41 20.5 -65.5t72.5 -24.5q39 0 64 9.5l45 17.5l40 -211q-35 -21 -89.5 -40.5t-137.5 -19.5q-130 0 -220 71.5t-90 211.5q0 103 66 201.5t244 180.5z" />
    <glyph glyph-name="commaaccent" unicode="&#xf6c3;" horiz-adv-x="611" 
d="M493 389v-194q-1 -157 -44.5 -304t-140.5 -256l-216 89q45 101 76 202.5t31 247.5v215h294z" />
    <glyph glyph-name="acutecomb" unicode="&#x301;" 
d="M-937 1688l270 424h426l-381 -424h-315z" />
    <glyph glyph-name="acutedblnosp" unicode="&#x30b;" 
d="M-1453 1688l262 424h399l-357 -424h-304zM-810 1688l262 424h399l-357 -424h-304z" />
    <glyph glyph-name="gravecomb" unicode="&#x300;" 
d="M-803 2112l271 -424h-320l-378 424h427z" />
    <glyph glyph-name="dblgravecmb" unicode="&#x30f;" 
d="M-700 1722h-323l-403 365h389zM-241 1722h-314l-337 365h381z" />
    <glyph glyph-name="macroncomb" unicode="&#x304;" 
d="M-324 2000v-228h-948v228h948z" />
    <glyph glyph-name="dieresisnosp" unicode="&#x308;" 
d="M-1131 1726q-79 0 -132 51.5t-53 122.5q0 75 53 125.5t132 50.5t130.5 -50.5t51.5 -125.5q0 -71 -51.5 -122.5t-130.5 -51.5zM-561 1726q-79 0 -131.5 51.5t-52.5 122.5q0 75 52.5 125.5t131.5 50.5t130.5 -50.5t51.5 -125.5q0 -71 -51.5 -122.5t-130.5 -51.5z" />
    <glyph glyph-name="brevenosp" unicode="&#x306;" 
d="M-606 2096h280q0 -178 -127 -291.5t-344 -113.5q-218 0 -345.5 113.5t-127.5 291.5h279q0 -71 43.5 -126.5t150.5 -55.5q104 0 147.5 55.5t43.5 126.5z" />
    <glyph glyph-name="breveinvnosp" unicode="&#x311;" 
d="M-326 1597h-279q0 71 -43.5 127t-148.5 56q-107 0 -150.5 -56t-43.5 -127h-278q0 179 127.5 292t344.5 113t344 -113t127 -292z" />
    <glyph glyph-name="hook" unicode="&#x309;" 
d="M-691 1740h-291l-19 187q100 5 144.5 26t44.5 64q0 55 -56 75t-141 20l10 184q253 0 383.5 -71.5t130.5 -195.5q0 -95 -64.5 -142t-141.5 -57v-90z" />
    <glyph glyph-name="circumflexnosp" unicode="&#x302;" 
d="M-1007 1792h-320v13l416 387h236l414 -387v-13h-317l-214 202z" />
    <glyph glyph-name="caroncmb" unicode="&#x30c;" 
d="M-688 1712h-226l-402 381v20h304l211 -201l211 201h309v-17z" />
    <glyph glyph-name="tildecomb" unicode="&#x303;" 
d="M-495 2116l226 -16q0 -152 -88.5 -258t-223.5 -106q-88 0 -144.5 30t-107.5 60t-123 30q-49 0 -82.5 -35t-33.5 -98l-230 10q0 99 40.5 182.5t111 134t160.5 50.5q74 0 133 -29.5l116.5 -58.5t125.5 -29q49 0 84.5 35t35.5 98z" />
    <glyph glyph-name="dotnosp" unicode="&#x307;" 
d="M-1015 1873q0 88 58.5 145.5t159.5 57.5q100 0 159 -57.5t59 -145.5t-59 -144.5t-159 -56.5q-101 0 -159.5 56.5t-58.5 144.5z" />
    <glyph glyph-name="ringnosp" unicode="&#x30a;" 
d="M-1092 1893q0 124 92.5 213.5t233.5 89.5t232.5 -89.5t91.5 -213.5q0 -123 -91.5 -208t-232.5 -85t-233.5 85t-92.5 208zM-926 1893q0 -64 44 -111t116 -47t115.5 47t43.5 111q0 65 -43.5 113t-115.5 48t-116 -48t-44 -113z" />
    <glyph glyph-name="hornnosp" unicode="&#x31b;" 
d="M-151 2182v-189q0 -202 -73.5 -363.5t-177.5 -255.5l-195 108q30 64 52 124.5t36 134.5t20.5 179.5t6.5 261.5h331z" />
    <glyph glyph-name="ogoneknosp" unicode="&#x328;" 
d="M-794 83l174 -83q-101 -58 -157 -115.5t-56 -131.5q0 -40 20.5 -65t71.5 -25q38 0 64.5 10t45.5 19l40 -214q-35 -20 -90 -40t-138 -20q-128 0 -218.5 72.5t-90.5 212.5q0 103 78.5 202t255.5 178z" />
    <glyph glyph-name="cedillanosp" unicode="&#x327;" 
d="M-982 10h291l-16 -80q77 -14 141.5 -67t64.5 -171q0 -146 -120.5 -235.5t-355.5 -89.5l-9 224q69 0 114 26t45 87q0 58 -46.5 80t-151.5 29z" />
    <glyph glyph-name="circumflexsubnosp" unicode="&#x32d;" 
d="M-999 -512h-320v13l416 387h236l414 -387v-13h-317l-214 202z" />
    <glyph glyph-name="brevesubnosp" unicode="&#x32e;" 
d="M-606 -119h279q0 -179 -126.5 -292t-343.5 -113q-218 0 -345.5 113t-127.5 292h279q0 -72 43.5 -127t150.5 -55q104 0 147.5 55t43.5 127z" />
    <glyph glyph-name="dotbelow" unicode="&#x323;" 
d="M-1043 -324q0 80 59 134t157 54q101 0 160.5 -54t59.5 -134t-59.5 -133.5t-160.5 -53.5q-98 0 -157 53.5t-59 133.5z" />
    <glyph glyph-name="commabelowcmb" unicode="&#x326;" 
d="M-597 -196v-97q0 -124 -56.5 -253.5t-143.5 -212.5l-193 105q46 73 74.5 152.5t28.5 190.5v115h290z" />
    <glyph glyph-name="dotdblsubnosp" unicode="&#x324;" 
d="M-1413 -324q0 73 52.5 123t135.5 50t135.5 -50t52.5 -123t-52.5 -122.5t-135.5 -49.5t-135.5 49.5t-52.5 122.5zM-749 -325q0 73 52.5 123t135.5 50t136 -50t53 -123t-53 -122.5t-136 -49.5t-135.5 49.5t-52.5 122.5z" />
    <glyph glyph-name="ringsubnosp" unicode="&#x325;" 
d="M-1094 -343q0 124 92.5 213.5t233.5 89.5t232.5 -89.5t91.5 -213.5q0 -123 -91.5 -208t-232.5 -85t-233.5 85t-92.5 208zM-928 -343q0 -64 44 -111t116 -47t115.5 47t43.5 111q0 65 -43.5 113t-115.5 48t-116 -48t-44 -113z" />
    <glyph glyph-name="underscorenosp" unicode="&#x332;" 
d="M-148 -205v-304h-1259v304h1259z" />
    <glyph glyph-name="tildesubnosp" unicode="&#x330;" 
d="M-542 -149l226 -16q0 -151 -88.5 -257.5t-223.5 -106.5q-88 0 -144.5 30t-107.5 60t-123 30q-49 0 -82.5 -35t-33.5 -98l-230 10q0 100 40.5 183t111 133.5t160.5 50.5q73 0 132.5 -29l117 -58.5t125.5 -29.5q49 0 84.5 35t35.5 98z" />
    <glyph glyph-name="enquad" unicode="&#x2000;" horiz-adv-x="1558" 
 />
    <glyph glyph-name="emquad" unicode="&#x2001;" horiz-adv-x="3094" 
 />
    <glyph glyph-name="enspace" unicode="&#x2002;" horiz-adv-x="1495" 
 />
    <glyph glyph-name="emspace" unicode="&#x2003;" horiz-adv-x="2990" 
 />
    <glyph glyph-name="thirdemspace" unicode="&#x2004;" horiz-adv-x="997" 
 />
    <glyph glyph-name="quarteremspace" unicode="&#x2005;" horiz-adv-x="748" 
 />
    <glyph glyph-name="sixthemspace" unicode="&#x2006;" horiz-adv-x="498" 
 />
    <glyph glyph-name="figurespace" unicode="&#x2007;" horiz-adv-x="1759" 
 />
    <glyph glyph-name="punctuationspace" unicode="&#x2008;" horiz-adv-x="947" 
 />
    <glyph glyph-name="thinspace" unicode="&#x2009;" horiz-adv-x="703" 
 />
    <glyph glyph-name="hairspace" unicode="&#x200a;" horiz-adv-x="512" 
 />
    <glyph glyph-name="zerowidthspace" unicode="&#x200b;" 
 />
    <glyph glyph-name="arrowleft" unicode="&#x2190;" horiz-adv-x="2669" 
d="M2358 697h-1475v-16l507 -507l-209 -209l-888 887l888 888l209 -209l-507 -507v-16h1475v-311z" />
    <glyph glyph-name="arrowleft.case" horiz-adv-x="2669" 
d="M2358 869h-1475v-16l507 -507l-209 -209l-888 887l888 888l209 -209l-507 -507v-16h1475v-311z" />
    <glyph glyph-name="arrowleftlong" unicode="&#x27f5;" horiz-adv-x="3867" 
d="M3556 697h-2673v-16l507 -507l-209 -209l-888 887l888 888l209 -209l-507 -507v-16h2673v-311z" />
    <glyph glyph-name="arrowleftlong.case" horiz-adv-x="3867" 
d="M3556 869h-2673v-16l507 -507l-209 -209l-888 887l888 888l209 -209l-507 -507v-16h2673v-311z" />
    <glyph glyph-name="arrowup" unicode="&#x2191;" horiz-adv-x="2587" 
d="M1138 0v1476h-16l-506 -506l-210 207l887 888l888 -888l-209 -207l-507 506h-16v-1476h-311z" />
    <glyph glyph-name="arrowright" unicode="&#x2192;" horiz-adv-x="2669" 
d="M284 1008h1475v16l-507 507l209 209l888 -887l-888 -888l-209 209l507 507v16h-1475v311z" />
    <glyph glyph-name="arrowright.case" horiz-adv-x="2669" 
d="M284 1180h1475v16l-507 507l209 209l888 -887l-888 -888l-209 209l507 507v16h-1475v311z" />
    <glyph glyph-name="arrowrightlong" unicode="&#x27f6;" horiz-adv-x="3867" 
d="M284 697v311h2673v16l-507 507l209 209l888 -888l-888 -887l-209 209l507 507v16h-2673z" />
    <glyph glyph-name="arrowrightlong.case" horiz-adv-x="3867" 
d="M284 869v311h2673v16l-507 507l209 209l888 -888l-888 -887l-209 209l507 507v16h-2673z" />
    <glyph glyph-name="arrowdown" unicode="&#x2193;" horiz-adv-x="2587" 
d="M1138 2048h311v-1476h16l507 506l209 -207l-888 -888l-887 888l210 207l506 -506h16v1476z" />
    <glyph glyph-name="arrowNW" unicode="&#x2196;" horiz-adv-x="2587" 
d="M1877 478l-1042 1042l-12 -12v-717h-298v1257h1258v-298h-717l-12 -12l1041 -1041z" />
    <glyph glyph-name="arrowNE" unicode="&#x2197;" horiz-adv-x="2587" 
d="M683 478l-218 219l1041 1041l-12 12h-717v298h1258v-1257h-298v717l-12 12z" />
    <glyph glyph-name="arrowSE" unicode="&#x2198;" horiz-adv-x="2587" 
d="M683 1570l1042 -1042l12 12v717h298v-1257h-1258v298h717l12 12l-1041 1041z" />
    <glyph glyph-name="arrowSW" unicode="&#x2199;" horiz-adv-x="2587" 
d="M1877 1570l218 -219l-1041 -1041l12 -12h717v-298h-1258v1257h298v-717l12 -12z" />
    <glyph glyph-name="dngb_check" unicode="&#x2713;" horiz-adv-x="2576" 
d="M2358 1505l-1372 -1363l-767 763l230 234l537 -532l1138 1130z" />
    <glyph glyph-name="dngb_ballotx" unicode="&#x2717;" horiz-adv-x="1846" 
d="M448 144l-223 222l478 486l-483 491l223 221l480 -488l480 488l223 -221l-483 -491l478 -486l-223 -222l-475 483z" />
    <glyph glyph-name="triagrt" unicode="&#x25ba;" horiz-adv-x="2587" 
d="M269 -256v2560l2176 -1280z" />
    <glyph glyph-name="triagdn" unicode="&#x25bc;" horiz-adv-x="2845" 
d="M143 2048h2560l-1280 -2176z" />
    <glyph glyph-name="triagup" unicode="&#x25b2;" horiz-adv-x="2845" 
d="M143 0l1280 2176l1280 -2176h-2560z" />
    <glyph glyph-name="blackleftpointingtriangle" unicode="&#x25c0;" horiz-adv-x="2587" 
d="M2317 -256l-2176 1280l2176 1280v-2560z" />
    <glyph glyph-name="uni2009.fra" horiz-adv-x="534" 
 />
    <glyph glyph-name="overscoredblnosp" unicode="&#x33f;" 
d="M-172 2665v-212h-1253v212h1253zM-171 2275v-212h-1253v212h1253z" />
    <glyph glyph-name="uni215A" unicode="&#x215a;" horiz-adv-x="2577" 
d="M574 1382l-221 57l74 557h688v-218h-461l-28 -187q20 7 70 21.5t109 14.5q181 0 276.5 -91.5t95.5 -259.5q0 -96 -45.5 -183t-139 -142t-237.5 -55q-108 0 -205 39.5t-158.5 112t-63.5 172.5h280q2 -55 42 -76.5t105 -21.5q85 0 114 46.5t29 108.5q0 73 -41 115t-125 42
q-70 0 -104.5 -18.5t-53.5 -33.5zM1918 1716l-976 -1564l-190 103l976 1565zM2230 1108h46v-230h-16q-146 0 -251 -46t-131 -195q43 39 103 63.5t136 24.5q168 0 258 -101t90 -261q0 -161 -119 -270t-308 -109q-193 0 -319.5 107t-126.5 337v69q0 219 87 353.5t232 196
t319 61.5zM1871 382q0 -172 160 -172q68 0 110.5 45t42.5 109q0 71 -41 105t-114 34q-57 0 -98 -20.5t-60 -46.5v-54z" />
    <glyph glyph-name="uni215F" unicode="&#x215f;" horiz-adv-x="1809" 
d="M763 1993v-1081h-274v758l-262 -57v215l512 165h24zM1681 1716l-976 -1564l-190 103l976 1565z" />
    <glyph glyph-name="macronacutecomb" 
d="M-916 2001l176 259h284l-248 -259h-212zM-323 1921v-228h-949v228h949z" />
    <glyph glyph-name="crossbar" horiz-adv-x="1297" 
d="M1128 1140v-239h-956v239h956z" />
    <glyph glyph-name="uni006A.ccmp" horiz-adv-x="772" 
d="M396 1536h388v-1604q0 -258 -152.5 -385t-398.5 -127h-130v315h79q127 0 170.5 56.5t43.5 145.5v1599z" />
    <glyph glyph-name="acutedotcomb.lc" 
d="M-970 2424q0 81 54 134t146 53q93 0 147 -53t54 -134q0 -80 -54 -132t-147 -52q-92 0 -146 52t-54 132zM-955 1688l269 424h427l-382 -424h-314z" />
    <glyph glyph-name="tildedieresiscomb.lc" 
d="M-1318 2378q0 73 53 123t135 50t135 -50t53 -123t-53 -123t-135 -50t-135 50t-53 123zM-653 2377q0 73 52.5 123t135.5 50t135.5 -50t52.5 -123t-52.5 -122.5t-135.5 -49.5t-135.5 49.5t-52.5 122.5zM-508 2110l227 -16q0 -152 -88.5 -258t-224.5 -106q-88 0 -144.5 30
l-108 59.5t-123.5 29.5q-49 0 -82.5 -35t-33.5 -98l-227 13q0 99 40 182t110 133.5t160 50.5q73 0 132.5 -29.5l117 -59t126.5 -29.5q49 0 84 35t35 98z" />
    <glyph glyph-name="underscoredbl" unicode="&#x2017;" horiz-adv-x="1299" 
d="M1279 0v-212h-1259v212h1259zM1279 -363v-209h-1259v209h1259z" />
    <glyph glyph-name="uni2151" unicode="&#x2151;" horiz-adv-x="2403" 
d="M809 1993v-1081h-274v758l-262 -57v215l512 165h24zM1726 1716l-976 -1564l-190 103l976 1565zM1655 206h18q146 0 235 39t108 173q-42 -32 -94.5 -51.5t-109.5 -19.5q-167 0 -264 91.5t-97 269.5q0 106 54 195.5t149.5 143t220.5 53.5q178 0 301.5 -104.5t123.5 -339.5
v-76q0 -226 -81 -356.5t-222 -185.5t-322 -55h-20v223zM1732 705q0 -153 155 -153q49 0 82.5 17.5t51.5 38.5v106q0 87 -38.5 125t-107.5 38q-67 0 -105 -50.5t-38 -121.5z" />
    <glyph glyph-name="uni2150" unicode="&#x2150;" horiz-adv-x="2577" 
d="M830 1993v-1081h-274v758l-262 -57v215l512 165h24zM1746 1716l-976 -1564l-190 103l976 1565zM2461 1084v-155l-457 -929h-293l457 862h-585v222h878z" />
    <glyph glyph-name="uni2152" unicode="&#x2152;" horiz-adv-x="3089" 
d="M800 1993v-1081h-274v758l-262 -57v215l512 165h24zM1719 1716l-976 -1564l-190 103l976 1565zM2990 654v-225q0 -227 -117.5 -336t-303.5 -109q-190 0 -309 109t-119 336v225q0 226 118.5 336t305.5 110t306 -110t119 -336zM1945 1081v-1081h-274v758l-262 -57v215
l512 165h24zM2711 417v248q0 116 -39 164t-107 48q-67 0 -105 -48t-38 -164v-248q0 -116 38 -161.5t109 -45.5q65 0 103.5 45.5t38.5 161.5z" />
    <glyph glyph-name="uni2155" unicode="&#x2155;" horiz-adv-x="2495" 
d="M827 1993v-1081h-274v758l-262 -57v215l512 165h24zM1743 1716l-976 -1564l-190 103l976 1565zM1768 470l-221 57l74 557h688v-218h-461l-28 -187q20 7 70 21.5t109 14.5q181 0 276.5 -91.5t95.5 -259.5q0 -96 -45.5 -183t-139 -142t-237.5 -55q-108 0 -205 39.5
t-158.5 112t-63.5 172.5h280q2 -55 42 -76.5t105 -21.5q85 0 114 46.5t29 108.5q0 73 -41 115t-125 42q-70 0 -104.5 -18.5t-53.5 -33.5z" />
    <glyph glyph-name="romanone" unicode="&#x2160;" horiz-adv-x="749" 
d="M572 2048v-2048h-395v2048h395z" />
    <glyph glyph-name="uni2157" unicode="&#x2157;" horiz-adv-x="2577" 
d="M568 1372v187h121q80 0 118 33.5t38 88.5q0 41 -33 75t-115 34q-58 0 -99 -23t-41 -64h-279q0 102 57.5 170.5t151.5 103.5t204 35q193 0 312.5 -79.5t119.5 -231.5q0 -82 -50 -141t-135 -91q96 -26 150.5 -86.5t54.5 -166.5q0 -151 -129.5 -235.5t-322.5 -84.5
q-103 0 -202 34t-163.5 109t-64.5 197h281q0 -44 43.5 -79t121.5 -35q83 0 120.5 36.5t37.5 85.5q0 70 -47 99t-129 29h-121zM1898 1716l-976 -1564l-190 103l976 1565zM1952 470l-221 57l74 557h688v-218h-461l-28 -187q20 7 70 21.5t109 14.5q181 0 276.5 -91.5
t95.5 -259.5q0 -96 -45.5 -183t-139 -142t-237.5 -55q-108 0 -205 39.5t-158.5 112t-63.5 172.5h280q2 -55 42 -76.5t105 -21.5q85 0 114 46.5t29 108.5q0 73 -41 115t-125 42q-70 0 -104.5 -18.5t-53.5 -33.5z" />
    <glyph glyph-name="uni2156" unicode="&#x2156;" horiz-adv-x="2659" 
d="M1147 1135v-223h-851v189l393 355q79 67 113.5 125.5t34.5 91.5q0 53 -34 85t-99 32q-78 0 -116 -45.5t-38 -106.5h-278q0 154 113 264t306 110q201 0 312.5 -88t111.5 -251q0 -120 -73.5 -208t-222.5 -204l-159 -126h487zM1990 1716l-976 -1564l-190 103l976 1565z
M2018 470l-221 57l74 557h688v-218h-461l-28 -187q20 7 70 21.5t109 14.5q181 0 276.5 -91.5t95.5 -259.5q0 -96 -45.5 -183t-139 -142t-237.5 -55q-108 0 -205 39.5t-158.5 112t-63.5 172.5h280q2 -55 42 -76.5t105 -21.5q85 0 114 46.5t29 108.5q0 73 -41 115t-125 42
q-70 0 -104.5 -18.5t-53.5 -33.5z" />
    <glyph glyph-name="estimated" unicode="&#x212e;" horiz-adv-x="1809" 
d="M1432 272v-144q-114 -72 -243.5 -114t-264.5 -42q-149 0 -279.5 60.5t-229.5 166.5t-155 246t-56 299t61 299t164 246t231.5 166.5t263.5 60.5q188 0 342.5 -97t246 -265t91.5 -382v-64h-1056v-452q77 -69 173.5 -110.5t202.5 -41.5q129 0 257 40.5t251 127.5zM924 1388
q-102 0 -199 -46.5t-177 -121.5v-384h744v396q-72 72 -167.5 114t-200.5 42z" />
    <glyph glyph-name="degreecentigrade" unicode="&#x2103;" horiz-adv-x="2932" 
d="M2802 1405l-384 -43q-45 178 -170.5 267.5t-288.5 89.5q-221 0 -365 -169.5t-144 -528.5q0 -358 144 -525t365 -167q163 0 286 87.5t168 261.5l387 -43q-50 -211 -171 -359.5t-293 -226t-377 -77.5q-261 0 -465 125t-321.5 360t-117.5 564q0 331 117.5 567t321.5 362
t465 126q205 0 378 -78.5t294 -228.5t171 -364zM551 1179q-118 0 -217 58t-159 155.5t-60 216.5q0 120 60 219.5t159 159.5t217 60q119 0 215.5 -60t154 -159.5t57.5 -219.5q0 -119 -57.5 -216.5t-154 -155.5t-215.5 -58zM551 1409q82 0 140.5 58.5t58.5 143.5t-58.5 144.5
t-140.5 59.5t-141.5 -59.5t-59.5 -144.5q0 -84 59.5 -143t141.5 -59z" />
    <glyph glyph-name="dieresisacutecomb.lc" 
d="M-985 2115l270 424h427l-382 -424h-315zM-1318 1878q0 73 53 123t135 50t135 -50t53 -123t-53 -122.5t-135 -49.5t-135 49.5t-53 122.5zM-653 1877q0 73 52.5 123t135.5 50t135.5 -50t52.5 -123t-52.5 -122.5t-135.5 -49.5t-135.5 49.5t-52.5 122.5z" />
    <glyph glyph-name="carondotcomb.lc" 
d="M-998 2399q0 81 54 134t146 53t146.5 -53t54.5 -134q0 -79 -54.5 -131.5t-146.5 -52.5t-146 52.5t-54 131.5zM-999 2114l201 -198l202 198h332v-15l-411 -386h-246l-411 388v13h333z" />
    <glyph glyph-name="aturn_uni02DE" horiz-adv-x="2331" 
d="M1441 782v57q-74 -96 -210.5 -150.5t-325.5 -71.5q-68 -7 -131.5 -15t-104 -27t-40.5 -59v-23q0 -103 60.5 -158.5t161.5 -55.5q107 0 181 54t95 132l365 -53q-53 -212 -229.5 -324t-421.5 -112q-153 0 -291 50t-225 165t-87 310v1031h374v-173h18q40 73 135.5 138.5
t257.5 65.5q137 0 250.5 -54t181.5 -157.5t68 -252.5v-19l463 103q20 -134 36 -225.5t50.5 -138t110.5 -46.5q19 0 39 2.5t37 5.5l55 -263q-93 -51 -210 -51q-120 0 -188 52t-105 139.5t-65 194.5zM629 1020v-203q15 16 58.5 28t94.5 20.5t86 12.5q138 16 207.5 66t69.5 150
q0 82 -59.5 128.5t-155.5 46.5q-128 0 -214.5 -74.5t-86.5 -174.5z" />
    <glyph glyph-name="uni1FFD" unicode="&#x1ffd;" horiz-adv-x="785" 
d="M172 1595l152 433h290v-28l-316 -440h-126v35z" />
    <glyph glyph-name="uni1FFE" unicode="&#x1ffe;" horiz-adv-x="785" 
d="M220 1928v128h238v-120q0 -85 24.5 -148.5t81.5 -110.5l-113 -117q-102 52 -166.5 147t-64.5 221z" />
    <glyph glyph-name="oopen" unicode="&#x254;" horiz-adv-x="1553" 
d="M125 513h366q4 -103 75 -164.5t182 -61.5q121 0 183.5 61.5t84.5 161t22 214.5v40q0 114 -23 214.5t-85.5 163t-181.5 62.5q-123 0 -188 -78.5t-69 -187.5h-366q3 176 81.5 306t217 201t319.5 71q229 0 381 -101t227.5 -271.5t75.5 -379.5v-40q0 -210 -75.5 -380.5
t-228 -271t-383.5 -100.5q-170 0 -308.5 70t-221 192.5t-85.5 278.5z" />
    <glyph glyph-name="Gsmallcaphook" unicode="&#x29b;" horiz-adv-x="1999" 
d="M1617 798v-577q-47 -54 -129 -111t-214 -96t-329 -39q-217 0 -383.5 83.5t-260.5 232.5t-94 345v224q0 196 92 343.5t254.5 230t372.5 82.5q258 0 422 -93q97 228 382 228q80 0 166 -23v-260q-24 3 -48 6.5t-50 3.5q-84 0 -136.5 -40.5t-52.5 -156.5v-188h-380
q-19 113 -93 164t-210 51q-154 0 -246.5 -98t-92.5 -247v-227q0 -150 95.5 -249.5t262.5 -99.5q135 0 207 22.5t107 44.5v175h-317v269h675z" />
    <glyph glyph-name="uni0346" unicode="&#x346;" 
d="M-311 1655h-254v318h-466v-318h-253v550h973v-550z" />
    <glyph glyph-name="anglesupnosp" unicode="&#x31a;" 
d="M-442 1764v285h-684v232h937v-517h-253z" />
    <glyph glyph-name="ringacute" horiz-adv-x="1041" 
d="M308 2088l253 282h353l-366 -282h-240zM128 1777q0 108 80 181.5t196 73.5q114 0 192.5 -73.5t78.5 -181.5q0 -109 -78.5 -178.5t-192.5 -69.5q-116 0 -196 69.5t-80 178.5zM281 1777q0 -52 35.5 -86t87.5 -34t84.5 34t32.5 86q0 56 -32.5 90t-84.5 34t-87.5 -34
t-35.5 -90z" />
    <glyph glyph-name="uni1DD8" unicode="&#x1dd8;" 
d="M-952 2565l69 161q131 -30 237.5 -113t169 -208.5t62.5 -284.5v-53q0 -127 -51.5 -223t-139 -150t-196.5 -54q-167 0 -272.5 100t-105.5 243q0 157 96.5 253.5t257.5 96.5q97 0 176 -50q-39 118 -124 186t-179 96zM-967 1983q0 -74 43.5 -123.5t124.5 -49.5
q82 0 128 71.5t46 185.5v49q-21 23 -63.5 39t-107.5 16q-88 0 -129.5 -51.5t-41.5 -136.5z" />
    <glyph glyph-name="uni1DD9" unicode="&#x1dd9;" 
d="M-452 2622l-126 -70q76 -80 120 -190t44 -242v-53q0 -127 -51.5 -223t-139 -150t-196.5 -54q-167 0 -272.5 100t-105.5 243q0 157 96.5 253.5t257.5 96.5q97 0 176 -50q-17 53 -44.5 95.5t-62.5 75.5l-154 -85l-55 79l125 69q-52 30 -112 48l69 161q127 -29 230 -106
l148 81zM-967 1983q0 -74 43.5 -123.5t124.5 -49.5q82 0 128 71.5t46 185.5v49q-21 23 -63.5 39t-107.5 16q-88 0 -129.5 -51.5t-41.5 -136.5z" />
    <glyph glyph-name="uni1DD2" unicode="&#x1dd2;" 
d="M-851 1959q-89 0 -169.5 32t-130.5 102.5t-50 184.5q0 158 112.5 256t277.5 98q188 0 309 -114.5t121 -320.5q0 -156 -50.5 -263.5t-131.5 -177t-176 -111t-185 -64.5l-73 163q89 30 182.5 76.5t158 136t64.5 244.5q0 140 -59.5 204.5t-145.5 64.5q-84 0 -139 -47.5
t-55 -135.5q0 -97 47.5 -135t119.5 -38q81 0 132 25l35 -127q-35 -24 -81 -38.5t-113 -14.5z" />
    <glyph glyph-name="uni1DD3" unicode="&#x1dd3;" 
d="M-492 1908h211q0 -136 -87.5 -203t-226.5 -67q-127 0 -203 69q-69 -69 -209 -69q-141 0 -228 79t-87 191h208q0 -47 27.5 -77.5t79.5 -30.5q103 0 103 108h198q0 -47 29 -77.5t82 -30.5q103 0 103 108z" />
    <glyph glyph-name="uni1DD0" unicode="&#x1dd0;" 
d="M-944 -84h227l-127 -329q55 33 96.5 45.5t82.5 12.5q52 0 95.5 -22.5l85 -44.5t86.5 -22q39 0 73.5 24t50.5 80l174 -56q-12 -119 -75 -205.5t-191 -86.5q-76 0 -142.5 26l-128 52t-124.5 26q-106 0 -229 -81l-156 70z" />
    <glyph glyph-name="uni1DD1" unicode="&#x1dd1;" 
d="M-627 1733q75 0 75 89q0 44 -23.5 76.5t-83.5 34.5v157q95 0 178 -68t83 -196q0 -114 -65 -185t-171 -71t-160 57t-83 165q-18 70 -40.5 93t-52.5 23q-77 0 -77 -80q0 -86 95 -91v-165q-107 0 -177 70t-70 186q0 112 69 177.5t168 65.5q103 0 157.5 -60t79.5 -152
q21 -76 44 -101t54 -25z" />
    <glyph glyph-name="circumflexgravecomb" horiz-adv-x="1553" 
d="M370 2285l222 -372h-226l-311 372h315zM1106 2044l395 -321h-297l-208 177l-209 -177h-297l394 321h222z" />
    <glyph glyph-name="uni1DD4" unicode="&#x1dd4;" 
d="M-518 1632q-113 0 -195.5 45.5t-128.5 119.5q-28 -59 -89 -109t-165 -50q-111 0 -179 62t-68 166q0 114 87 178.5t262 64.5h97v43q0 108 -105 108t-105 -84l-208 5q0 103 88 172t234 69q147 0 229 -76q91 73 225 73q163 0 250 -102.5t87 -270.5v-86h-480
q21 -156 177 -156q57 0 103.5 19t80.5 63l102 -115q-37 -53 -112 -96t-187 -43zM-541 2248q-64 0 -96.5 -41t-42.5 -108h274v15q-2 61 -34 97.5t-101 36.5zM-1037 1798q57 0 98 29.5t56 68.5q-11 43 -13 90h-97q-72 0 -105.5 -34t-33.5 -77q0 -77 95 -77z" />
    <glyph glyph-name="uni1DD5" unicode="&#x1dd5;" 
d="M-550 1632q-107 0 -185.5 44.5t-122.5 121.5q-29 -60 -90 -110t-165 -50q-111 0 -179 62t-68 166q0 114 87 178.5t262 64.5h97v43q0 108 -105 108t-105 -84l-208 5q0 103 88 172t234 69q147 0 230 -77q93 74 229 74q173 0 268 -108.5t95 -278.5v-15q0 -169 -95 -277
t-267 -108zM-550 1803q84 0 118 60t34 154v15q0 92 -34 154t-119 62q-82 0 -116 -62t-34 -154v-15q0 -94 33.5 -154t117.5 -60zM-1054 1798q56 0 96.5 29t59.5 69q-10 43 -13 90h-99q-72 0 -105.5 -34t-33.5 -77q0 -77 95 -77z" />
    <glyph glyph-name="dieresiscaroncomb" 
d="M-980 2357l183 -158l183 158h332v-23l-383 -314h-264l-383 314v23h332zM-1281 1840q0 68 49 114.5t133 46.5q85 0 134.5 -46.5t49.5 -114.5t-49.5 -114t-134.5 -46q-84 0 -133 46t-49 114zM-680 1840q0 67 49 113.5t134 46.5t134 -46.5t49 -113.5q0 -68 -49 -114.5
t-134 -46.5t-134 46.5t-49 114.5z" />
    <glyph glyph-name="breveinvsubnosp" unicode="&#x32f;" 
d="M-327 -537h-279q0 72 -43.5 127.5t-147.5 55.5q-107 0 -150.5 -55.5t-43.5 -127.5h-279q0 179 127.5 292t345.5 113q217 0 343.5 -113t126.5 -292z" />
    <glyph glyph-name="commaturnsupnosp" unicode="&#x312;" 
d="M-967 1374v270q0 94 34 195t91 191t127 152l193 -108q-52 -88 -83 -190.5t-31 -238.5v-271h-331z" />
    <glyph glyph-name="uni1DDB" unicode="&#x1ddb;" 
d="M-790 1638q-166 0 -272.5 93t-106.5 241v170q0 150 104.5 242t265.5 92q324 0 353 -267h-207q-11 53 -44 75.5t-102 22.5q-159 0 -159 -176v-152q0 -172 168 -172q69 0 102.5 9.5t49.5 20.5v106h-152v148h364v-329q-36 -41 -124 -82.5t-240 -41.5z" />
    <glyph glyph-name="uni1DDC" unicode="&#x1ddc;" 
d="M-630 1651l-193 307l-74 -77v-230h-212v1095h212v-613l38 49l193 228h239l-264 -306l304 -453h-243z" />
    <glyph glyph-name="ringrighthalfsubnosp" unicode="&#x339;" 
d="M-912 -628v126q57 0 93 38t36 98q0 62 -36 100.5t-93 38.5v130q121 0 203.5 -77t82.5 -192q0 -116 -82.5 -189t-203.5 -73z" />
    <glyph glyph-name="uni1DDF" unicode="&#x1ddf;" 
d="M-548 1651v486l-177 -486h-152l-173 477v-477h-211v819h260l200 -578l202 578h262v-819h-211z" />
    <glyph glyph-name="uni1DDD" unicode="&#x1ddd;" 
d="M-903 2739h212v-1088h-212v1088z" />
    <glyph glyph-name="uni1DDE" unicode="&#x1dde;" 
d="M-479 1822v-171h-553v819h211v-648h342z" />
    <glyph glyph-name="romanten" unicode="&#x2169;" horiz-adv-x="1922" 
d="M534 2048l419 -727h16l419 727h450l-611 -1024l622 -1024h-455l-425 724h-16l-425 -724h-455l628 1024l-617 1024h450z" />
    <glyph glyph-name="degreefarenheit" unicode="&#x2109;" horiz-adv-x="2618" 
d="M556 1179q-118 0 -217 58t-159 155.5t-60 216.5q0 120 60 219.5t159 159.5t217 60t215 -60t154.5 -159.5t57.5 -219.5q0 -119 -57.5 -216.5t-154.5 -155.5t-215 -58zM2272 1190v-331h-791v-859h-395v2048h1323v-332h-928v-526h791zM556 1409q82 0 140.5 58.5t58.5 143.5
t-58.5 144.5t-140.5 59.5t-141.5 -59.5t-59.5 -144.5q0 -84 59.5 -143t141.5 -59z" />
    <glyph glyph-name="Upsilon2" unicode="&#x1b1;" horiz-adv-x="1809" 
d="M559 939v-122q0 -255 93.5 -385.5t254.5 -130.5q158 0 250 130.5t92 385.5v122q0 340 -76 510.5t-202 217.5v337h704v-330h-300q141 -128 231.5 -319t90.5 -416v-118q0 -249 -100 -440.5t-278 -300t-412 -108.5q-236 0 -415 108.5t-279.5 300t-100.5 440.5v118
q0 225 90.5 416t230.5 319h-298v330h692v-337q-118 -47 -193 -219t-75 -509z" />
    <glyph glyph-name="degreekelvin" unicode="&#x212a;" horiz-adv-x="1981" 
d="M1420 0l-603 823l-245 -270v-553h-395v2048h395v-907h27l819 907h517l-868 -940l828 -1108h-475z" />
    <glyph glyph-name="uni02AB" unicode="&#x2ab;" horiz-adv-x="2137" 
d="M1988 315v-315h-1235v241l732 980h-930v-1221h-388v2048h388v-512h1415v-237l-731 -984h749z" />
    <glyph glyph-name="uni02AC" unicode="&#x2ac;" horiz-adv-x="1471" 
d="M407 2004l87 -426l137 426h206l142 -422l86 422h269l-219 -804h-220l-159 462l-160 -462h-220l-220 804h271zM407 804l87 -423l137 423h206l142 -420l86 420h269l-219 -804h-220l-158 464l-161 -464h-220l-220 804h271z" />
    <glyph glyph-name="uni1FCD" unicode="&#x1fcd;" horiz-adv-x="1297" 
d="M1071 1620v-31h-126l-318 439v28h290zM574 2056v-128q0 -126 -65 -221t-168 -147l-114 117q59 47 83 110.5t24 148.5v120h240z" />
    <glyph glyph-name="kappa1" unicode="&#x3f0;" horiz-adv-x="2065" 
d="M335 0l126 170l-3 861q0 110 -60 149.5t-145 39.5q-24 0 -49.5 -2.5t-48.5 -6.5l-3 284q39 9 99.5 15t106.5 6q162 0 256 -61.5t134 -171t40 -252.5v-419l649 876h333l-163 -216v-815q0 -110 60.5 -148t146.5 -38q22 0 48 1t51 5v-284q-36 -10 -96.5 -15.5t-107.5 -5.5
q-241 0 -335.5 135.5t-94.5 352.5v377l-632 -837h-312z" />
    <glyph glyph-name="onethird" unicode="&#x2153;" horiz-adv-x="2403" 
d="M794 1993v-1081h-274v758l-262 -57v215l512 165h24zM1711 1716l-976 -1564l-190 103l976 1565zM1748 460v187h121q80 0 118 33.5t38 88.5q0 41 -33 75t-115 34q-58 0 -99 -23t-41 -64h-279q0 102 57.5 170.5t151.5 103.5t204 35q193 0 312.5 -79.5t119.5 -231.5
q0 -82 -50 -141t-135 -91q96 -26 150.5 -86.5t54.5 -166.5q0 -151 -129.5 -235.5t-322.5 -84.5q-103 0 -202 34t-163.5 109t-64.5 197h281q0 -44 43.5 -79t121.5 -35q83 0 120.5 36.5t37.5 85.5q0 70 -47 99t-129 29h-121z" />
    <glyph glyph-name="uni2159" unicode="&#x2159;" horiz-adv-x="2321" 
d="M775 1993v-1081h-274v758l-262 -57v215l512 165h24zM1691 1716l-976 -1564l-190 103l976 1565zM2002 1108h46v-230h-16q-146 0 -251 -46t-131 -195q43 39 103 63.5t136 24.5q168 0 258 -101t90 -261q0 -161 -119 -270t-308 -109q-193 0 -319.5 107t-126.5 337v69
q0 219 87 353.5t232 196t319 61.5zM1643 382q0 -172 160 -172q68 0 110.5 45t42.5 109q0 71 -41 105t-114 34q-57 0 -98 -20.5t-60 -46.5v-54z" />
    <glyph glyph-name="uni2158" unicode="&#x2158;" horiz-adv-x="2833" 
d="M1200 1359v-226h-122v-221h-278v221h-478l-16 183l493 680h279v-637h122zM2051 1716l-976 -1564l-190 103l976 1565zM573 1359h227v297l-19 -30zM2102 470l-221 57l74 557h688v-218h-461l-28 -187q20 7 70 21.5t109 14.5q181 0 276.5 -91.5t95.5 -259.5q0 -96 -45.5 -183
t-139 -142t-237.5 -55q-108 0 -205 39.5t-158.5 112t-63.5 172.5h280q2 -55 42 -76.5t105 -21.5q85 0 114 46.5t29 108.5q0 73 -41 115t-125 42q-70 0 -104.5 -18.5t-53.5 -33.5z" />
    </font>
</defs>
</svg>
